<?xml version="1.0" standalone="no"?>
<!DOCTYPE svg PUBLIC "-//W3C//DTD SVG 1.1//EN" "http://www.w3.org/Graphics/SVG/1.1/DTD/svg11.dtd" >
<svg xmlns="http://www.w3.org/2000/svg" xmlns:xlink="http://www.w3.org/1999/xlink" version="1.1">
<metadata>
Created by FontForge 20170812 at Mon Feb 17 23:41:15 2020
 By www-data
Copyright \(c\) 2020 by Alfredo Marco Pradil. All rights reserved.
</metadata>
<defs>
<font id="HKGrotesk-LightItalic" horiz-adv-x="0" >
  <font-face 
    font-family="HK Grotesk Light Italic"
    font-weight="300"
    font-style="italic"
    font-stretch="normal"
    units-per-em="1000"
    panose-1="0 0 4 0 0 0 0 0 0 0"
    ascent="800"
    descent="-200"
    x-height="493"
    cap-height="697"
    bbox="-708 -253 1315 1126"
    underline-thickness="10"
    underline-position="-121"
    slope="-11"
    stemh="10"
    stemv="10"
    unicode-range="U+0020-FB02"
  />
<missing-glyph horiz-adv-x="591" 
d="M42 0l92 474h411l-93 -474h-410zM71 25h361l83 424h-361z" />
    <glyph glyph-name="f_f" unicode="ff" horiz-adv-x="590" 
d="M55 0l88 454h-86l8 39h86l10 51c19 99 109 160 209 160c41 0 79 -10 110 -31c30 21 66 31 107 31c27 0 50 -8 71 -19l-23 -39c-16 9 -32 13 -48 13c-65 0 -105 -30 -117 -93l-15 -73h166l-7 -39h-166l-89 -454h-48l88 454h-206l-88 -454h-50zM201 493h206l15 82
c5 23 13 45 33 67c-24 14 -54 21 -86 21c-84 0 -145 -51 -159 -124z" />
    <glyph glyph-name="f_f_i" unicode="ffi" horiz-adv-x="753" 
d="M55 0l88 454h-86l8 39h86l10 51c19 99 109 160 209 160c47 0 87 -13 118 -37c36 27 79 37 120 37c55 0 96 -17 130 -46l-28 -33c-27 25 -61 38 -104 38c-74 0 -125 -37 -143 -130l-8 -40h256l-96 -493h-50l89 454h-206l-89 -454h-48l88 454h-206l-88 -454h-50zM201 493
h206l8 44c8 44 24 77 46 101c-25 16 -56 25 -92 25c-84 0 -145 -51 -159 -124z" />
    <glyph glyph-name="f_f_l" unicode="ffl" horiz-adv-x="783" 
d="M650 -7c-54 0 -80 32 -66 102l106 542c-21 16 -50 26 -84 26c-74 0 -125 -37 -143 -130l-8 -40h119l-8 -39h-118l-89 -454h-48l88 454h-206l-88 -454h-50l88 454h-86l8 39h86l10 51c19 99 109 160 209 160c46 0 88 -13 119 -36c34 25 77 36 119 36c55 0 96 -17 133 -47
l-106 -554c-8 -45 1 -65 35 -65c16 0 33 4 53 11l-5 -44c-26 -7 -51 -12 -68 -12zM201 493h206l8 44c8 39 20 71 46 102c-24 15 -57 24 -92 24c-84 0 -145 -51 -159 -124z" />
    <glyph glyph-name="fi" unicode="fi" horiz-adv-x="496" 
d="M352 663c-74 0 -125 -37 -144 -131l-7 -39h252l-96 -493h-48l88 454h-204l-88 -454h-50l88 454h-86l8 39h86l9 44c24 118 103 167 194 167c58 0 97 -19 130 -46l-28 -33c-27 25 -61 38 -104 38z" />
    <glyph glyph-name="fl" unicode="fl" horiz-adv-x="517" 
d="M383 -7c-53 0 -79 32 -65 102l106 539c-23 19 -51 29 -85 29c-68 0 -117 -36 -136 -131l-7 -39h112l-8 -39h-112l-88 -454h-50l88 454h-81l7 39h82l9 44c25 120 101 167 185 167c56 0 90 -14 135 -47l-107 -554c-9 -47 4 -65 36 -65c16 0 33 4 53 11l-5 -44
c-27 -7 -51 -12 -69 -12z" />
    <glyph glyph-name="h_d_c_o.liga" unicode="hdco" horiz-adv-x="897" 
d="M469 -30c-211 0 -382 170 -382 382c0 211 171 381 382 381s382 -170 382 -381c0 -212 -171 -382 -382 -382zM469 5c192 0 346 155 346 347c0 191 -154 346 -346 346s-347 -155 -347 -346c0 -192 155 -347 347 -347zM270 202c-9 0 -17 7 -17 17v265c0 10 8 18 17 18
c10 0 18 -8 18 -18v-265c0 -10 -8 -17 -18 -17zM469 202c-10 0 -17 7 -17 17v265c0 10 7 18 17 18s17 -8 17 -18v-265c0 -10 -7 -17 -17 -17zM667 202c-4 0 -8 1 -11 5l-134 132c-3 4 -4 8 -4 13s1 9 4 12l130 127c6 6 13 8 18 8c9 0 15 -5 15 -15c0 -4 -1 -8 -5 -12
l-120 -120l120 -121c4 -4 5 -8 5 -12c0 -9 -9 -17 -18 -17zM336 334c-10 0 -17 7 -17 18c0 10 7 17 17 17h66c10 0 18 -7 18 -17c0 -11 -8 -18 -18 -18h-66z" />
    <glyph glyph-name="hyphen_greater.liga" unicode="&#x2d;&#x3e;" horiz-adv-x="1066" 
d="M595 573l423 -263l-514 -264l-11 39l410 207l-894 -1l7 39h898l-342 212z" />
    <glyph glyph-name="less_hyphen.liga" unicode="&#x3c;&#x2d;" horiz-adv-x="1065" 
d="M1081 330l-7 -39h-897l341 -213l-23 -31l-424 263l515 264l11 -39l-408 -206z" />
    <glyph glyph-name=".notdef" horiz-adv-x="591" 
d="M42 0l92 474h411l-93 -474h-410zM71 25h361l83 424h-361z" />
    <glyph glyph-name="space" unicode=" " horiz-adv-x="273" 
 />
    <glyph glyph-name="A" unicode="A" horiz-adv-x="631" 
d="M490 0l-32 196h-301l-107 -196h-59l389 697h44l120 -697h-54zM182 240h269l-61 380z" />
    <glyph glyph-name="Aacute" unicode="&#xc1;" horiz-adv-x="631" 
d="M584 901l-148 -140h-40l133 140h55zM380 697h44l120 -697h-54l-32 196h-301l-107 -196h-59zM182 240h269l-61 380z" />
    <glyph glyph-name="Abreve" unicode="&#x102;" horiz-adv-x="631" 
d="M409 771c-93 0 -141 48 -125 130h36c-12 -65 22 -97 94 -97c79 0 118 35 130 97h37c-17 -86 -75 -130 -172 -130zM380 697h44l120 -697h-54l-32 196h-301l-107 -196h-59zM182 240h269l-61 380z" />
    <glyph glyph-name="uni1EAE" unicode="&#x1eae;" horiz-adv-x="631" 
d="M623 1105l-148 -140h-40l133 140h55zM414 804c79 0 118 35 130 97h37c-17 -86 -75 -130 -172 -130c-93 0 -141 48 -125 130h36c-12 -65 22 -97 94 -97zM380 697h44l120 -697h-54l-32 196h-301l-107 -196h-59zM182 240h269l-61 380z" />
    <glyph glyph-name="uni1EB6" unicode="&#x1eb6;" horiz-adv-x="631" 
d="M409 771c-93 0 -141 48 -125 130h36c-12 -65 22 -97 94 -97c79 0 118 35 130 97h37c-17 -86 -75 -130 -172 -130zM380 697h44l120 -697h-54l-32 196h-301l-107 -196h-59zM182 240h269l-61 380zM208 -173l19 97h52l-20 -97h-51z" />
    <glyph glyph-name="uni1EB0" unicode="&#x1eb0;" horiz-adv-x="631" 
d="M476 965h-41l-148 140h55zM409 771c-93 0 -141 48 -125 130h36c-12 -65 22 -97 94 -97c79 0 118 35 130 97h37c-17 -86 -75 -130 -172 -130zM380 697h44l120 -697h-54l-32 196h-301l-107 -196h-59zM182 240h269l-61 380z" />
    <glyph glyph-name="uni1EB2" unicode="&#x1eb2;" horiz-adv-x="631" 
d="M542 1043c0 38 -41 53 -88 53h-16l6 30h13c68 0 118 -29 118 -81c0 -73 -60 -92 -129 -105l-5 31c51 10 101 21 101 72zM409 771c-93 0 -141 48 -125 130h36c-12 -65 22 -97 94 -97c79 0 118 35 130 97h37c-17 -86 -75 -130 -172 -130zM380 697h44l120 -697h-54l-32 196
h-301l-107 -196h-59zM182 240h269l-61 380z" />
    <glyph glyph-name="uni1EB4" unicode="&#x1eb4;" horiz-adv-x="631" 
d="M602 1105h35c-14 -75 -55 -121 -105 -121c-85 0 -64 93 -123 93c-37 0 -60 -35 -69 -83h-35c14 75 55 115 108 115c79 0 60 -92 120 -92c32 0 60 36 69 88zM414 804c79 0 118 35 130 97h37c-17 -86 -75 -130 -172 -130c-93 0 -141 48 -125 130h36c-12 -65 22 -97 94 -97z
M380 697h44l120 -697h-54l-32 196h-301l-107 -196h-59zM182 240h269l-61 380z" />
    <glyph glyph-name="uni01CD" unicode="&#x1cd;" horiz-adv-x="631" 
d="M588 901l-176 -152l-117 152h40l81 -107l125 107h47zM380 697h44l120 -697h-54l-32 196h-301l-107 -196h-59zM182 240h269l-61 380z" />
    <glyph glyph-name="Acircumflex" unicode="&#xc2;" horiz-adv-x="631" 
d="M437 862l-124 -107h-48l178 153l115 -153h-39zM380 697h44l120 -697h-54l-32 196h-301l-107 -196h-59zM182 240h269l-61 380z" />
    <glyph glyph-name="uni1EA4" unicode="&#x1ea4;" horiz-adv-x="631" 
d="M623 1100l-148 -140h-40l133 140h55zM265 755l178 153l115 -153h-39l-82 107l-124 -107h-48zM380 697h44l120 -697h-54l-32 196h-301l-107 -196h-59zM182 240h269l-61 380z" />
    <glyph glyph-name="uni1EAC" unicode="&#x1eac;" horiz-adv-x="631" 
d="M437 862l-124 -107h-48l178 153l115 -153h-39zM380 697h44l120 -697h-54l-32 196h-301l-107 -196h-59zM182 240h269l-61 380zM208 -173l19 97h52l-20 -97h-51z" />
    <glyph glyph-name="uni1EA6" unicode="&#x1ea6;" horiz-adv-x="631" 
d="M476 960h-41l-148 140h55zM437 862l-124 -107h-48l178 153l115 -153h-39zM380 697h44l120 -697h-54l-32 196h-301l-107 -196h-59zM182 240h269l-61 380z" />
    <glyph glyph-name="uni1EA8" unicode="&#x1ea8;" horiz-adv-x="631" 
d="M542 1038c0 38 -41 53 -88 53h-16l6 30h13c68 0 118 -29 118 -81c0 -73 -60 -92 -129 -105l-5 31c51 10 101 21 101 72zM265 755l178 153l115 -153h-39l-82 107l-124 -107h-48zM380 697h44l120 -697h-54l-32 196h-301l-107 -196h-59zM182 240h269l-61 380z" />
    <glyph glyph-name="uni1EAA" unicode="&#x1eaa;" horiz-adv-x="631" 
d="M602 1100h35c-14 -75 -55 -121 -105 -121c-85 0 -64 93 -123 93c-37 0 -60 -35 -69 -83h-35c14 75 55 115 108 115c79 0 60 -92 120 -92c32 0 60 36 69 88zM265 755l178 153l115 -153h-39l-82 107l-124 -107h-48zM380 697h44l120 -697h-54l-32 196h-301l-107 -196h-59z
M182 240h269l-61 380z" />
    <glyph glyph-name="Adieresis" unicode="&#xc4;" horiz-adv-x="631" 
d="M378 901l-20 -98h-42l19 98h43zM552 901l-19 -98h-42l19 98h42zM380 697h44l120 -697h-54l-32 196h-301l-107 -196h-59zM182 240h269l-61 380z" />
    <glyph glyph-name="uni1EA0" unicode="&#x1ea0;" horiz-adv-x="631" 
d="M544 0h-54l-32 196h-301l-107 -196h-59l389 697h44zM182 240h269l-61 380zM208 -173l19 97h52l-20 -97h-51z" />
    <glyph glyph-name="Agrave" unicode="&#xc0;" horiz-adv-x="631" 
d="M437 761h-41l-148 140h55zM490 0l-32 196h-301l-107 -196h-59l389 697h44l120 -697h-54zM182 240h269l-61 380z" />
    <glyph glyph-name="uni1EA2" unicode="&#x1ea2;" horiz-adv-x="631" 
d="M503 839c0 38 -41 53 -88 53h-16l6 30h13c68 0 118 -29 118 -81c0 -73 -60 -92 -129 -105l-5 31c51 10 101 21 101 72zM490 0l-32 196h-301l-107 -196h-59l389 697h44l120 -697h-54zM182 240h269l-61 380z" />
    <glyph glyph-name="Amacron" unicode="&#x100;" horiz-adv-x="631" 
d="M298 847h269l-7 -31h-268zM380 697h44l120 -697h-54l-32 196h-301l-107 -196h-59zM182 240h269l-61 380z" />
    <glyph glyph-name="Aogonek" unicode="&#x104;" horiz-adv-x="631" 
d="M526 -148l21 -24c-29 -25 -62 -38 -93 -38c-45 0 -75 26 -70 73c7 55 57 108 110 137h-4l-32 196h-301l-107 -196h-59l389 697h44l120 -697h-1c-77 -38 -117 -86 -123 -128c-4 -30 14 -46 42 -46c18 0 43 9 64 26zM182 240h269l-61 380z" />
    <glyph glyph-name="Aring" unicode="&#xc5;" horiz-adv-x="631" 
d="M490 0l-32 196h-301l-107 -196h-59l384 689c-29 10 -48 36 -48 71c0 58 50 105 107 105c44 0 76 -31 76 -77c0 -49 -38 -91 -84 -102l118 -686h-54zM355 763c0 -30 21 -51 53 -51c38 0 73 33 73 73c0 31 -21 51 -51 51c-40 0 -75 -33 -75 -73zM182 240h269l-61 380z" />
    <glyph glyph-name="Atilde" unicode="&#xc3;" horiz-adv-x="631" 
d="M563 901h35c-14 -75 -55 -121 -105 -121c-85 0 -64 93 -123 93c-37 0 -60 -35 -69 -83h-35c14 75 55 115 108 115c79 0 60 -92 120 -92c32 0 60 36 69 88zM380 697h44l120 -697h-54l-32 196h-301l-107 -196h-59zM182 240h269l-61 380z" />
    <glyph glyph-name="AE" unicode="&#xc6;" horiz-adv-x="934" 
d="M958 650h-383l-53 -272h338l-9 -48h-339l-55 -283h383l-9 -47h-435l42 216h-272l-118 -216h-57l388 697h588zM446 257l77 396h-119l-216 -396h258z" />
    <glyph glyph-name="B" unicode="B" horiz-adv-x="623" 
d="M66 0l136 697h198c113 0 178 -48 178 -136c0 -84 -53 -165 -133 -193c69 -16 104 -61 104 -133c0 -147 -105 -235 -262 -235h-221zM191 384h176c95 0 161 82 161 167c0 62 -43 99 -130 99h-155zM126 47h163c130 0 208 74 208 184c0 65 -42 109 -122 109h-192z" />
    <glyph glyph-name="C" unicode="C" horiz-adv-x="718" 
d="M333 -7c-169 0 -252 101 -252 258c0 248 150 453 391 453c149 0 223 -70 245 -186l-50 -16c-18 101 -79 153 -199 153c-212 0 -337 -185 -337 -400c0 -124 60 -213 207 -213c120 0 208 57 271 159l45 -22c-72 -115 -176 -186 -321 -186z" />
    <glyph glyph-name="Cacute" unicode="&#x106;" horiz-adv-x="718" 
d="M469 761l133 140h55l-148 -140h-40zM333 -7c-169 0 -252 101 -252 258c0 248 150 453 391 453c149 0 223 -70 245 -186l-50 -16c-18 101 -79 153 -199 153c-212 0 -337 -185 -337 -400c0 -124 60 -213 207 -213c120 0 208 57 271 159l45 -22
c-72 -115 -176 -186 -321 -186z" />
    <glyph glyph-name="Ccaron" unicode="&#x10c;" horiz-adv-x="718" 
d="M485 749l-117 152h40l81 -107l125 107h47zM333 -7c-169 0 -252 101 -252 258c0 248 150 453 391 453c149 0 223 -70 245 -186l-50 -16c-18 101 -79 153 -199 153c-212 0 -337 -185 -337 -400c0 -124 60 -213 207 -213c120 0 208 57 271 159l45 -22
c-72 -115 -176 -186 -321 -186z" />
    <glyph glyph-name="Ccedilla" unicode="&#xc7;" horiz-adv-x="718" 
d="M468 655c-212 0 -337 -185 -337 -400c0 -124 60 -213 207 -213c120 0 208 57 271 159l45 -22c-69 -110 -167 -180 -302 -186l-48 -64c59 -7 101 -35 101 -88c0 -59 -42 -94 -97 -94c-45 0 -81 21 -96 52l22 22c9 -27 37 -44 71 -44c40 0 67 24 67 61c0 52 -57 69 -118 69
l64 86c-159 6 -237 106 -237 258c0 248 150 453 391 453c149 0 223 -70 245 -186l-50 -16c-18 101 -79 153 -199 153z" />
    <glyph glyph-name="Cdotaccent" unicode="&#x10a;" horiz-adv-x="718" 
d="M472 803l19 98h51l-19 -98h-51zM333 -7c-169 0 -252 101 -252 258c0 248 150 453 391 453c149 0 223 -70 245 -186l-50 -16c-18 101 -79 153 -199 153c-212 0 -337 -185 -337 -400c0 -124 60 -213 207 -213c120 0 208 57 271 159l45 -22c-72 -115 -176 -186 -321 -186z
" />
    <glyph glyph-name="D" unicode="D" horiz-adv-x="720" 
d="M66 0l136 697h182c194 0 296 -92 296 -260c0 -257 -167 -437 -430 -437h-184zM126 47h127c237 0 376 164 376 392c0 140 -83 211 -253 211h-133z" />
    <glyph glyph-name="Eth" unicode="&#xd0;" horiz-adv-x="720" 
d="M384 697c194 0 296 -92 296 -260c0 -257 -167 -437 -430 -437h-184l65 332h-74l7 34h73l65 331h182zM253 47c237 0 376 164 376 392c0 140 -83 211 -253 211h-133l-55 -284h126l-7 -34h-126l-55 -285h127z" />
    <glyph glyph-name="Dcaron" unicode="&#x10e;" horiz-adv-x="720" 
d="M457 749l-117 152h40l81 -107l125 107h47zM66 0l136 697h182c194 0 296 -92 296 -260c0 -257 -167 -437 -430 -437h-184zM126 47h127c237 0 376 164 376 392c0 140 -83 211 -253 211h-133z" />
    <glyph glyph-name="Dcroat" unicode="&#x110;" horiz-adv-x="720" 
d="M384 697c194 0 296 -92 296 -260c0 -257 -167 -437 -430 -437h-184l65 332h-74l7 34h73l65 331h182zM253 47c237 0 376 164 376 392c0 140 -83 211 -253 211h-133l-55 -284h126l-7 -34h-126l-55 -285h127z" />
    <glyph glyph-name="E" unicode="E" horiz-adv-x="623" 
d="M66 0l136 697h454l-10 -47h-403l-53 -272h358l-8 -48h-359l-55 -283h402l-8 -47h-454z" />
    <glyph glyph-name="Eacute" unicode="&#xc9;" horiz-adv-x="623" 
d="M421 761l133 140h55l-148 -140h-40zM66 0l136 697h454l-10 -47h-403l-53 -272h358l-8 -48h-359l-55 -283h402l-8 -47h-454z" />
    <glyph glyph-name="Ecaron" unicode="&#x11a;" horiz-adv-x="623" 
d="M437 749l-117 152h40l81 -107l125 107h47zM66 0l136 697h454l-10 -47h-403l-53 -272h358l-8 -48h-359l-55 -283h402l-8 -47h-454z" />
    <glyph glyph-name="Ecircumflex" unicode="&#xca;" horiz-adv-x="623" 
d="M289 755l178 153l115 -153h-39l-82 107l-124 -107h-48zM66 0l136 697h454l-10 -47h-403l-53 -272h358l-8 -48h-359l-55 -283h402l-8 -47h-454z" />
    <glyph glyph-name="uni1EBE" unicode="&#x1ebe;" horiz-adv-x="623" 
d="M460 960l133 140h55l-148 -140h-40zM289 755l178 153l115 -153h-39l-82 107l-124 -107h-48zM66 0l136 697h454l-10 -47h-403l-53 -272h358l-8 -48h-359l-55 -283h402l-8 -47h-454z" />
    <glyph glyph-name="uni1EC6" unicode="&#x1ec6;" horiz-adv-x="623" 
d="M289 755l178 153l115 -153h-39l-82 107l-124 -107h-48zM66 0l136 697h454l-10 -47h-403l-53 -272h358l-8 -48h-359l-55 -283h402l-8 -47h-454zM233 -173l19 97h52l-20 -97h-51z" />
    <glyph glyph-name="uni1EC0" unicode="&#x1ec0;" horiz-adv-x="623" 
d="M459 960l-148 140h55l134 -140h-41zM289 755l178 153l115 -153h-39l-82 107l-124 -107h-48zM66 0l136 697h454l-10 -47h-403l-53 -272h358l-8 -48h-359l-55 -283h402l-8 -47h-454z" />
    <glyph glyph-name="uni1EC2" unicode="&#x1ec2;" horiz-adv-x="623" 
d="M471 935l-5 31c51 10 101 21 101 72c0 38 -41 53 -88 53h-16l6 30h13c68 0 118 -29 118 -81c0 -73 -60 -92 -129 -105zM289 755l178 153l115 -153h-39l-82 107l-124 -107h-48zM66 0l136 697h454l-10 -47h-403l-53 -272h358l-8 -48h-359l-55 -283h402l-8 -47h-454z" />
    <glyph glyph-name="uni1EC4" unicode="&#x1ec4;" horiz-adv-x="623" 
d="M557 979c-85 0 -64 93 -123 93c-37 0 -60 -35 -69 -83h-35c14 75 55 115 108 115c79 0 60 -92 120 -92c32 0 60 36 69 88h35c-14 -75 -55 -121 -105 -121zM289 755l178 153l115 -153h-39l-82 107l-124 -107h-48zM66 0l136 697h454l-10 -47h-403l-53 -272h358l-8 -48h-359
l-55 -283h402l-8 -47h-454z" />
    <glyph glyph-name="Edieresis" unicode="&#xcb;" horiz-adv-x="623" 
d="M340 803l19 98h43l-20 -98h-42zM515 803l19 98h42l-19 -98h-42zM66 0l136 697h454l-10 -47h-403l-53 -272h358l-8 -48h-359l-55 -283h402l-8 -47h-454z" />
    <glyph glyph-name="Edotaccent" unicode="&#x116;" horiz-adv-x="623" 
d="M424 803l19 98h51l-19 -98h-51zM66 0l136 697h454l-10 -47h-403l-53 -272h358l-8 -48h-359l-55 -283h402l-8 -47h-454z" />
    <glyph glyph-name="uni1EB8" unicode="&#x1eb8;" horiz-adv-x="623" 
d="M66 0l136 697h454l-10 -47h-403l-53 -272h358l-8 -48h-359l-55 -283h402l-8 -47h-454zM233 -173l19 97h52l-20 -97h-51z" />
    <glyph glyph-name="Egrave" unicode="&#xc8;" horiz-adv-x="623" 
d="M420 761l-148 140h55l134 -140h-41zM66 0l136 697h454l-10 -47h-403l-53 -272h358l-8 -48h-359l-55 -283h402l-8 -47h-454z" />
    <glyph glyph-name="uni1EBA" unicode="&#x1eba;" horiz-adv-x="623" 
d="M432 736l-5 31c51 10 101 21 101 72c0 38 -41 53 -88 53h-16l6 30h13c68 0 118 -29 118 -81c0 -73 -60 -92 -129 -105zM66 0l136 697h454l-10 -47h-403l-53 -272h358l-8 -48h-359l-55 -283h402l-8 -47h-454z" />
    <glyph glyph-name="Emacron" unicode="&#x112;" horiz-adv-x="623" 
d="M317 816l6 31h269l-7 -31h-268zM66 0l136 697h454l-10 -47h-403l-53 -272h358l-8 -48h-359l-55 -283h402l-8 -47h-454z" />
    <glyph glyph-name="Eogonek" unicode="&#x118;" horiz-adv-x="623" 
d="M646 650h-403l-53 -272h358l-8 -48h-359l-55 -283h402l-8 -47h-1c-77 -38 -117 -86 -123 -128c-4 -30 14 -46 42 -46c18 0 43 9 64 26l21 -24c-29 -25 -62 -38 -93 -38c-45 0 -75 26 -70 73c7 55 57 108 110 137h-404l136 697h454z" />
    <glyph glyph-name="uni1EBC" unicode="&#x1ebc;" horiz-adv-x="623" 
d="M518 780c-85 0 -64 93 -123 93c-37 0 -60 -35 -69 -83h-35c14 75 55 115 108 115c79 0 60 -92 120 -92c32 0 60 36 69 88h35c-14 -75 -55 -121 -105 -121zM66 0l136 697h454l-10 -47h-403l-53 -272h358l-8 -48h-359l-55 -283h402l-8 -47h-454z" />
    <glyph glyph-name="F" unicode="F" horiz-adv-x="618" 
d="M66 0l136 697h464l-10 -47h-413l-53 -272h362l-9 -48h-362l-65 -330h-50z" />
    <glyph glyph-name="G" unicode="G" horiz-adv-x="756" 
d="M457 312l8 42h224l-68 -354h-43l24 128c-55 -90 -159 -135 -270 -135c-167 0 -251 101 -251 267c0 236 151 444 394 444c149 0 222 -75 243 -186l-50 -16c-18 99 -78 153 -198 153c-214 0 -338 -187 -338 -393c0 -134 60 -220 205 -220c128 0 254 71 284 224l9 46h-173z
" />
    <glyph glyph-name="Gbreve" unicode="&#x11e;" horiz-adv-x="756" 
d="M472 771c-93 0 -141 48 -125 130h36c-12 -65 22 -97 94 -97c79 0 118 35 130 97h37c-17 -86 -75 -130 -172 -130zM457 312l8 42h224l-68 -354h-43l24 128c-55 -90 -159 -135 -270 -135c-167 0 -251 101 -251 267c0 236 151 444 394 444c149 0 222 -75 243 -186l-50 -16
c-18 99 -78 153 -198 153c-214 0 -338 -187 -338 -393c0 -134 60 -220 205 -220c128 0 254 71 284 224l9 46h-173z" />
    <glyph glyph-name="uni0122" unicode="&#x122;" horiz-adv-x="756" 
d="M457 312l8 42h224l-68 -354h-43l24 128c-55 -90 -159 -135 -270 -135c-167 0 -251 101 -251 267c0 236 151 444 394 444c149 0 222 -75 243 -186l-50 -16c-18 99 -78 153 -198 153c-214 0 -338 -187 -338 -393c0 -134 60 -220 205 -220c128 0 254 71 284 224l9 46h-173z
M164 -219l128 162h54l-147 -162h-35z" />
    <glyph glyph-name="Gdotaccent" unicode="&#x120;" horiz-adv-x="756" 
d="M532 901l-19 -98h-51l19 98h51zM457 312l8 42h224l-68 -354h-43l24 128c-55 -90 -159 -135 -270 -135c-167 0 -251 101 -251 267c0 236 151 444 394 444c149 0 222 -75 243 -186l-50 -16c-18 99 -78 153 -198 153c-214 0 -338 -187 -338 -393c0 -134 60 -220 205 -220
c128 0 254 71 284 224l9 46h-173z" />
    <glyph glyph-name="H" unicode="H" horiz-adv-x="713" 
d="M66 0l136 697h50l-62 -318h384l62 318h51l-136 -697h-51l65 330h-383l-66 -330h-50z" />
    <glyph glyph-name="Hbar" unicode="&#x126;" horiz-adv-x="713" 
d="M730 551l-7 -31h-71l-101 -520h-51l65 330h-383l-66 -330h-50l101 520h-71l6 31h72l28 146h50l-28 -146h384l28 146h51l-28 -146h71zM574 379l27 141h-384l-27 -141h384z" />
    <glyph glyph-name="I" unicode="I" horiz-adv-x="278" 
d="M66 0l136 697h50l-136 -697h-50z" />
    <glyph glyph-name="Iacute" unicode="&#xcd;" horiz-adv-x="278" 
d="M220 761l133 140h55l-148 -140h-40zM66 0l136 697h50l-136 -697h-50z" />
    <glyph glyph-name="uni01CF" unicode="&#x1cf;" horiz-adv-x="278" 
d="M236 749l-117 152h40l81 -107l125 107h47zM66 0l136 697h50l-136 -697h-50z" />
    <glyph glyph-name="Icircumflex" unicode="&#xce;" horiz-adv-x="278" 
d="M88 755l178 153l115 -153h-39l-82 107l-124 -107h-48zM66 0l136 697h50l-136 -697h-50z" />
    <glyph glyph-name="Idieresis" unicode="&#xcf;" horiz-adv-x="278" 
d="M139 803l19 98h43l-20 -98h-42zM314 803l19 98h42l-19 -98h-42zM66 0l136 697h50l-136 -697h-50z" />
    <glyph glyph-name="Idotaccent" unicode="&#x130;" horiz-adv-x="278" 
d="M223 803l19 98h51l-19 -98h-51zM66 0l136 697h50l-136 -697h-50z" />
    <glyph glyph-name="uni1ECA" unicode="&#x1eca;" horiz-adv-x="278" 
d="M66 0l136 697h50l-136 -697h-50zM32 -173l19 97h52l-20 -97h-51z" />
    <glyph glyph-name="Igrave" unicode="&#xcc;" horiz-adv-x="278" 
d="M219 761l-148 140h55l134 -140h-41zM66 0l136 697h50l-136 -697h-50z" />
    <glyph glyph-name="uni1EC8" unicode="&#x1ec8;" horiz-adv-x="278" 
d="M231 736l-5 31c51 10 101 21 101 72c0 38 -41 53 -88 53h-16l6 30h13c68 0 118 -29 118 -81c0 -73 -60 -92 -129 -105zM66 0l136 697h50l-136 -697h-50z" />
    <glyph glyph-name="Imacron" unicode="&#x12a;" horiz-adv-x="278" 
d="M116 816l6 31h269l-7 -31h-268zM66 0l136 697h50l-136 -697h-50z" />
    <glyph glyph-name="Iogonek" unicode="&#x12e;" horiz-adv-x="278" 
d="M35 -174c18 0 43 9 64 26l21 -24c-29 -25 -62 -38 -93 -38c-45 0 -75 26 -70 73c7 55 57 108 110 137h-1l136 697h50l-136 -697c-77 -38 -117 -86 -123 -128c-4 -30 14 -46 42 -46z" />
    <glyph glyph-name="Itilde" unicode="&#x128;" horiz-adv-x="278" 
d="M317 780c-85 0 -64 93 -123 93c-37 0 -60 -35 -69 -83h-35c14 75 55 115 108 115c79 0 60 -92 120 -92c32 0 60 36 69 88h35c-14 -75 -55 -121 -105 -121zM66 0l136 697h50l-136 -697h-50z" />
    <glyph glyph-name="J" unicode="J" horiz-adv-x="575" 
d="M213 -7c-132 0 -195 90 -181 208l51 2c-12 -98 35 -162 134 -162c127 0 183 89 208 215l77 394h-289l9 47h340l-87 -447c-32 -162 -118 -257 -262 -257z" />
    <glyph glyph-name="K" unicode="K" horiz-adv-x="695" 
d="M727 697l-295 -253l175 -444h-54l-158 413l-237 -203l-42 -210h-50l136 697h50l-83 -422l489 422h69z" />
    <glyph glyph-name="uni0136" unicode="&#x136;" horiz-adv-x="695" 
d="M727 697l-295 -253l175 -444h-54l-158 413l-237 -203l-42 -210h-50l136 697h50l-83 -422l489 422h69zM133 -219l128 162h54l-147 -162h-35z" />
    <glyph glyph-name="L" unicode="L" horiz-adv-x="524" 
d="M66 0l136 697h50l-126 -650h325l-9 -47h-376z" />
    <glyph glyph-name="Lacute" unicode="&#x139;" horiz-adv-x="524" 
d="M220 761l133 140h55l-148 -140h-40zM66 0l136 697h50l-126 -650h325l-9 -47h-376z" />
    <glyph glyph-name="Lcaron" unicode="&#x13d;" horiz-adv-x="524" 
d="M66 0l136 697h50l-126 -650h325l-9 -47h-376zM411 495l98 202h53l-118 -202h-33z" />
    <glyph glyph-name="uni013B" unicode="&#x13b;" horiz-adv-x="524" 
d="M66 0l136 697h50l-126 -650h325l-9 -47h-376zM82 -219l128 162h54l-147 -162h-35z" />
    <glyph glyph-name="Lslash" unicode="&#x141;" horiz-adv-x="524" 
d="M126 47h325l-9 -47h-376l53 273l-71 -49l8 52l74 50l72 371h50l-64 -331l207 142l-9 -52l-208 -143z" />
    <glyph glyph-name="M" unicode="M" horiz-adv-x="871" 
d="M769 697h76l-136 -697h-51l122 625l-356 -568h-50l-133 582l-125 -639h-50l136 697h74l132 -579z" />
    <glyph glyph-name="N" unicode="N" horiz-adv-x="699" 
d="M622 697h51l-136 -697h-58l-243 613l-120 -613h-50l136 697h56l245 -613z" />
    <glyph glyph-name="Nacute" unicode="&#x143;" horiz-adv-x="699" 
d="M618 901l-148 -140h-40l133 140h55zM622 697h51l-136 -697h-58l-243 613l-120 -613h-50l136 697h56l245 -613z" />
    <glyph glyph-name="Ncaron" unicode="&#x147;" horiz-adv-x="699" 
d="M622 901l-176 -152l-117 152h40l81 -107l125 107h47zM622 697h51l-136 -697h-58l-243 613l-120 -613h-50l136 697h56l245 -613z" />
    <glyph glyph-name="uni0145" unicode="&#x145;" horiz-adv-x="699" 
d="M622 697h51l-136 -697h-58l-243 613l-120 -613h-50l136 697h56l245 -613zM135 -219l128 162h54l-147 -162h-35z" />
    <glyph glyph-name="Eng" unicode="&#x14a;" horiz-adv-x="699" 
d="M622 697h51l-140 -717c-16 -85 -68 -147 -163 -147c-21 0 -49 6 -70 13l7 34c17 -6 40 -10 54 -10c73 0 111 46 121 98c4 17 0 26 -3 33l-243 612l-120 -613h-50l136 697h56l245 -614z" />
    <glyph glyph-name="Ntilde" unicode="&#xd1;" horiz-adv-x="699" 
d="M404 873c-37 0 -60 -35 -69 -83h-35c14 75 55 115 108 115c79 0 60 -92 120 -92c32 0 60 36 69 88h35c-14 -75 -55 -121 -105 -121c-85 0 -64 93 -123 93zM622 697h51l-136 -697h-58l-243 613l-120 -613h-50l136 697h56l245 -613z" />
    <glyph glyph-name="O" unicode="O" horiz-adv-x="764" 
d="M335 -7c-176 0 -256 117 -256 265c0 236 162 446 389 446c176 0 257 -117 257 -266c0 -236 -163 -445 -390 -445zM339 42c201 0 335 189 335 393c0 126 -65 220 -211 220c-201 0 -333 -190 -333 -395c0 -125 65 -218 209 -218z" />
    <glyph glyph-name="Oacute" unicode="&#xd3;" horiz-adv-x="764" 
d="M462 761l133 140h55l-148 -140h-40zM335 -7c-176 0 -256 117 -256 265c0 236 162 446 389 446c176 0 257 -117 257 -266c0 -236 -163 -445 -390 -445zM339 42c201 0 335 189 335 393c0 126 -65 220 -211 220c-201 0 -333 -190 -333 -395c0 -125 65 -218 209 -218z" />
    <glyph glyph-name="uni01D1" unicode="&#x1d1;" horiz-adv-x="764" 
d="M478 749l-117 152h40l81 -107l125 107h47zM335 -7c-176 0 -256 117 -256 265c0 236 162 446 389 446c176 0 257 -117 257 -266c0 -236 -163 -445 -390 -445zM339 42c201 0 335 189 335 393c0 126 -65 220 -211 220c-201 0 -333 -190 -333 -395c0 -125 65 -218 209 -218z
" />
    <glyph glyph-name="Ocircumflex" unicode="&#xd4;" horiz-adv-x="764" 
d="M331 755l178 153l115 -153h-39l-82 107l-124 -107h-48zM335 -7c-176 0 -256 117 -256 265c0 236 162 446 389 446c176 0 257 -117 257 -266c0 -236 -163 -445 -390 -445zM339 42c201 0 335 189 335 393c0 126 -65 220 -211 220c-201 0 -333 -190 -333 -395
c0 -125 65 -218 209 -218z" />
    <glyph glyph-name="uni1ED0" unicode="&#x1ed0;" horiz-adv-x="764" 
d="M501 960l133 140h55l-148 -140h-40zM331 755l178 153l115 -153h-39l-82 107l-124 -107h-48zM335 -7c-176 0 -256 117 -256 265c0 236 162 446 389 446c176 0 257 -117 257 -266c0 -236 -163 -445 -390 -445zM339 42c201 0 335 189 335 393c0 126 -65 220 -211 220
c-201 0 -333 -190 -333 -395c0 -125 65 -218 209 -218z" />
    <glyph glyph-name="uni1ED8" unicode="&#x1ed8;" horiz-adv-x="764" 
d="M331 755l178 153l115 -153h-39l-82 107l-124 -107h-48zM335 -7c-176 0 -256 117 -256 265c0 236 162 446 389 446c176 0 257 -117 257 -266c0 -236 -163 -445 -390 -445zM339 42c201 0 335 189 335 393c0 126 -65 220 -211 220c-201 0 -333 -190 -333 -395
c0 -125 65 -218 209 -218zM275 -173l19 97h52l-20 -97h-51z" />
    <glyph glyph-name="uni1ED2" unicode="&#x1ed2;" horiz-adv-x="764" 
d="M500 960l-148 140h55l134 -140h-41zM331 755l178 153l115 -153h-39l-82 107l-124 -107h-48zM335 -7c-176 0 -256 117 -256 265c0 236 162 446 389 446c176 0 257 -117 257 -266c0 -236 -163 -445 -390 -445zM339 42c201 0 335 189 335 393c0 126 -65 220 -211 220
c-201 0 -333 -190 -333 -395c0 -125 65 -218 209 -218z" />
    <glyph glyph-name="uni1ED4" unicode="&#x1ed4;" horiz-adv-x="764" 
d="M512 935l-5 31c51 10 101 21 101 72c0 38 -41 53 -88 53h-16l6 30h13c68 0 118 -29 118 -81c0 -73 -60 -92 -129 -105zM331 755l178 153l115 -153h-39l-82 107l-124 -107h-48zM335 -7c-176 0 -256 117 -256 265c0 236 162 446 389 446c176 0 257 -117 257 -266
c0 -236 -163 -445 -390 -445zM339 42c201 0 335 189 335 393c0 126 -65 220 -211 220c-201 0 -333 -190 -333 -395c0 -125 65 -218 209 -218z" />
    <glyph glyph-name="uni1ED6" unicode="&#x1ed6;" horiz-adv-x="764" 
d="M598 979c-85 0 -64 93 -123 93c-37 0 -60 -35 -69 -83h-35c14 75 55 115 108 115c79 0 60 -92 120 -92c32 0 60 36 69 88h35c-14 -75 -55 -121 -105 -121zM331 755l178 153l115 -153h-39l-82 107l-124 -107h-48zM335 -7c-176 0 -256 117 -256 265c0 236 162 446 389 446
c176 0 257 -117 257 -266c0 -236 -163 -445 -390 -445zM339 42c201 0 335 189 335 393c0 126 -65 220 -211 220c-201 0 -333 -190 -333 -395c0 -125 65 -218 209 -218z" />
    <glyph glyph-name="Odieresis" unicode="&#xd6;" horiz-adv-x="764" 
d="M382 803l19 98h43l-20 -98h-42zM557 803l19 98h42l-19 -98h-42zM335 -7c-176 0 -256 117 -256 265c0 236 162 446 389 446c176 0 257 -117 257 -266c0 -236 -163 -445 -390 -445zM339 42c201 0 335 189 335 393c0 126 -65 220 -211 220c-201 0 -333 -190 -333 -395
c0 -125 65 -218 209 -218z" />
    <glyph glyph-name="uni1ECC" unicode="&#x1ecc;" horiz-adv-x="764" 
d="M335 -7c-176 0 -256 117 -256 265c0 236 162 446 389 446c176 0 257 -117 257 -266c0 -236 -163 -445 -390 -445zM339 42c201 0 335 189 335 393c0 126 -65 220 -211 220c-201 0 -333 -190 -333 -395c0 -125 65 -218 209 -218zM275 -173l19 97h52l-20 -97h-51z" />
    <glyph glyph-name="Ograve" unicode="&#xd2;" horiz-adv-x="764" 
d="M461 761l-148 140h55l134 -140h-41zM335 -7c-176 0 -256 117 -256 265c0 236 162 446 389 446c176 0 257 -117 257 -266c0 -236 -163 -445 -390 -445zM339 42c201 0 335 189 335 393c0 126 -65 220 -211 220c-201 0 -333 -190 -333 -395c0 -125 65 -218 209 -218z" />
    <glyph glyph-name="uni1ECE" unicode="&#x1ece;" horiz-adv-x="764" 
d="M473 736l-5 31c51 10 101 21 101 72c0 38 -41 53 -88 53h-16l6 30h13c68 0 118 -29 118 -81c0 -73 -60 -92 -129 -105zM335 -7c-176 0 -256 117 -256 265c0 236 162 446 389 446c176 0 257 -117 257 -266c0 -236 -163 -445 -390 -445zM339 42c201 0 335 189 335 393
c0 126 -65 220 -211 220c-201 0 -333 -190 -333 -395c0 -125 65 -218 209 -218z" />
    <glyph glyph-name="Ohorn" unicode="&#x1a0;" horiz-adv-x="764" 
d="M821 697h39l-11 -53c-16 -81 -56 -133 -129 -144c3 -20 5 -41 5 -62c0 -236 -163 -445 -390 -445c-176 0 -256 117 -256 265c0 236 162 446 389 446c136 0 215 -70 244 -170c55 7 85 49 98 110zM339 42c201 0 335 189 335 393c0 126 -65 220 -211 220
c-201 0 -333 -190 -333 -395c0 -125 65 -218 209 -218z" />
    <glyph glyph-name="uni1EDA" unicode="&#x1eda;" horiz-adv-x="764" 
d="M650 901l-148 -140h-40l133 140h55zM821 697h39l-11 -53c-16 -81 -56 -133 -129 -144c3 -20 5 -41 5 -62c0 -236 -163 -445 -390 -445c-176 0 -256 117 -256 265c0 236 162 446 389 446c136 0 215 -70 244 -170c55 7 85 49 98 110zM339 42c201 0 335 189 335 393
c0 126 -65 220 -211 220c-201 0 -333 -190 -333 -395c0 -125 65 -218 209 -218z" />
    <glyph glyph-name="uni1EE2" unicode="&#x1ee2;" horiz-adv-x="764" 
d="M821 697h39l-11 -53c-16 -81 -56 -133 -129 -144c3 -20 5 -41 5 -62c0 -236 -163 -445 -390 -445c-176 0 -256 117 -256 265c0 236 162 446 389 446c136 0 215 -70 244 -170c55 7 85 49 98 110zM339 42c201 0 335 189 335 393c0 126 -65 220 -211 220
c-201 0 -333 -190 -333 -395c0 -125 65 -218 209 -218zM275 -173l19 97h52l-20 -97h-51z" />
    <glyph glyph-name="uni1EDC" unicode="&#x1edc;" horiz-adv-x="764" 
d="M502 761h-41l-148 140h55zM821 697h39l-11 -53c-16 -81 -56 -133 -129 -144c3 -20 5 -41 5 -62c0 -236 -163 -445 -390 -445c-176 0 -256 117 -256 265c0 236 162 446 389 446c136 0 215 -70 244 -170c55 7 85 49 98 110zM339 42c201 0 335 189 335 393
c0 126 -65 220 -211 220c-201 0 -333 -190 -333 -395c0 -125 65 -218 209 -218z" />
    <glyph glyph-name="uni1EDE" unicode="&#x1ede;" horiz-adv-x="764" 
d="M569 839c0 38 -41 53 -88 53h-16l6 30h13c68 0 118 -29 118 -81c0 -73 -60 -92 -129 -105l-5 31c51 10 101 21 101 72zM821 697h39l-11 -53c-16 -81 -56 -133 -129 -144c3 -20 5 -41 5 -62c0 -236 -163 -445 -390 -445c-176 0 -256 117 -256 265c0 236 162 446 389 446
c136 0 215 -70 244 -170c55 7 85 49 98 110zM339 42c201 0 335 189 335 393c0 126 -65 220 -211 220c-201 0 -333 -190 -333 -395c0 -125 65 -218 209 -218z" />
    <glyph glyph-name="uni1EE0" unicode="&#x1ee0;" horiz-adv-x="764" 
d="M436 873c-37 0 -60 -35 -69 -83h-35c14 75 55 115 108 115c79 0 60 -92 120 -92c32 0 60 36 69 88h35c-14 -75 -55 -121 -105 -121c-85 0 -64 93 -123 93zM821 697h39l-11 -53c-16 -81 -56 -133 -129 -144c3 -20 5 -41 5 -62c0 -236 -163 -445 -390 -445
c-176 0 -256 117 -256 265c0 236 162 446 389 446c136 0 215 -70 244 -170c55 7 85 49 98 110zM339 42c201 0 335 189 335 393c0 126 -65 220 -211 220c-201 0 -333 -190 -333 -395c0 -125 65 -218 209 -218z" />
    <glyph glyph-name="Ohungarumlaut" unicode="&#x150;" horiz-adv-x="764" 
d="M379 753l135 148h55l-150 -148h-40zM541 753l135 148h55l-150 -148h-40zM335 -7c-176 0 -256 117 -256 265c0 236 162 446 389 446c176 0 257 -117 257 -266c0 -236 -163 -445 -390 -445zM339 42c201 0 335 189 335 393c0 126 -65 220 -211 220
c-201 0 -333 -190 -333 -395c0 -125 65 -218 209 -218z" />
    <glyph glyph-name="Omacron" unicode="&#x14c;" horiz-adv-x="764" 
d="M358 816l6 31h269l-7 -31h-268zM335 -7c-176 0 -256 117 -256 265c0 236 162 446 389 446c176 0 257 -117 257 -266c0 -236 -163 -445 -390 -445zM339 42c201 0 335 189 335 393c0 126 -65 220 -211 220c-201 0 -333 -190 -333 -395c0 -125 65 -218 209 -218z" />
    <glyph glyph-name="Oslash" unicode="&#xd8;" horiz-adv-x="764" 
d="M656 634c47 -48 69 -118 69 -196c0 -236 -163 -445 -390 -445c-65 0 -117 16 -156 43l-29 -36h-52l50 63c-47 48 -69 117 -69 195c0 236 162 446 389 446c65 0 117 -16 157 -44l29 37h52zM130 260c0 -63 16 -117 51 -156l411 516c-32 22 -75 35 -129 35
c-201 0 -333 -190 -333 -395zM339 42c201 0 335 189 335 393c0 63 -16 118 -51 158l-412 -516c33 -22 75 -35 128 -35z" />
    <glyph glyph-name="Otilde" unicode="&#xd5;" horiz-adv-x="764" 
d="M559 780c-85 0 -64 93 -123 93c-37 0 -60 -35 -69 -83h-35c14 75 55 115 108 115c79 0 60 -92 120 -92c32 0 60 36 69 88h35c-14 -75 -55 -121 -105 -121zM335 -7c-176 0 -256 117 -256 265c0 236 162 446 389 446c176 0 257 -117 257 -266c0 -236 -163 -445 -390 -445z
M339 42c201 0 335 189 335 393c0 126 -65 220 -211 220c-201 0 -333 -190 -333 -395c0 -125 65 -218 209 -218z" />
    <glyph glyph-name="OE" unicode="&#x152;" horiz-adv-x="1155" 
d="M335 -7c-176 0 -256 117 -256 265c0 236 162 446 389 446c139 0 212 -81 230 -193l36 186h454l-10 -47h-403l-53 -272h359l-9 -48h-359l-55 -283h402l-8 -47h-454l35 181c-58 -108 -159 -188 -298 -188zM339 42c201 0 335 189 335 393c0 126 -65 220 -211 220
c-201 0 -333 -190 -333 -395c0 -125 65 -218 209 -218z" />
    <glyph glyph-name="P" unicode="P" horiz-adv-x="581" 
d="M66 0l136 697h186c146 0 214 -76 190 -202c-25 -124 -122 -185 -264 -185h-138l-60 -310h-50zM186 357h131c117 0 192 47 211 147c19 95 -40 146 -152 146h-133z" />
    <glyph glyph-name="Thorn" unicode="&#xde;" horiz-adv-x="577" 
d="M66 0l136 697h46l-19 -102h143c121 0 187 -59 187 -153c0 -149 -111 -233 -270 -233h-136l-41 -209h-46zM162 252h134c129 0 216 69 216 184c0 74 -53 118 -155 118h-137z" />
    <glyph glyph-name="Q" unicode="Q" horiz-adv-x="776" 
d="M725 438c0 -137 -55 -266 -146 -349l80 -97l-34 -28l-80 97c-60 -43 -131 -68 -210 -68c-176 0 -256 117 -256 265c0 236 162 446 389 446c176 0 257 -117 257 -266zM339 42c67 0 126 21 175 56l-98 119l34 28l98 -119c80 74 126 189 126 309c0 126 -65 220 -211 220
c-201 0 -333 -190 -333 -395c0 -125 65 -218 209 -218z" />
    <glyph glyph-name="R" unicode="R" horiz-adv-x="618" 
d="M583 546c0 -120 -69 -198 -187 -223l127 -323h-55l-120 317c-18 0 -35 -1 -53 -1h-117l-62 -316h-50l136 697h186c127 0 195 -56 195 -151zM318 364c130 0 214 60 214 176c0 73 -56 110 -156 110h-133l-56 -286h131z" />
    <glyph glyph-name="Racute" unicode="&#x154;" horiz-adv-x="618" 
d="M577 901l-148 -140h-40l133 140h55zM583 546c0 -120 -69 -198 -187 -223l127 -323h-55l-120 317c-18 0 -35 -1 -53 -1h-117l-62 -316h-50l136 697h186c127 0 195 -56 195 -151zM318 364c130 0 214 60 214 176c0 73 -56 110 -156 110h-133l-56 -286h131z" />
    <glyph glyph-name="Rcaron" unicode="&#x158;" horiz-adv-x="618" 
d="M581 901l-176 -152l-117 152h40l81 -107l125 107h47zM583 546c0 -120 -69 -198 -187 -223l127 -323h-55l-120 317c-18 0 -35 -1 -53 -1h-117l-62 -316h-50l136 697h186c127 0 195 -56 195 -151zM318 364c130 0 214 60 214 176c0 73 -56 110 -156 110h-133l-56 -286h131z
" />
    <glyph glyph-name="uni0156" unicode="&#x156;" horiz-adv-x="618" 
d="M583 546c0 -120 -69 -198 -187 -223l127 -323h-55l-120 317c-18 0 -35 -1 -53 -1h-117l-62 -316h-50l136 697h186c127 0 195 -56 195 -151zM318 364c130 0 214 60 214 176c0 73 -56 110 -156 110h-133l-56 -286h131zM94 -219l128 162h54l-147 -162h-35z" />
    <glyph glyph-name="S" unicode="S" horiz-adv-x="565" 
d="M251 -6c-121 0 -214 70 -211 189l51 9c-4 -99 68 -152 164 -152c109 0 192 68 192 159c0 87 -75 117 -147 149c-84 38 -155 74 -155 167c0 107 92 189 217 189c80 0 152 -34 182 -111l-47 -24c-21 59 -74 89 -140 89c-96 0 -162 -64 -162 -138c0 -72 64 -100 138 -134
c88 -40 166 -75 166 -179c0 -122 -110 -213 -248 -213z" />
    <glyph glyph-name="Sacute" unicode="&#x15a;" horiz-adv-x="565" 
d="M363 761l133 140h55l-148 -140h-40zM251 -6c-121 0 -214 70 -211 189l51 9c-4 -99 68 -152 164 -152c109 0 192 68 192 159c0 87 -75 117 -147 149c-84 38 -155 74 -155 167c0 107 92 189 217 189c80 0 152 -34 182 -111l-47 -24c-21 59 -74 89 -140 89
c-96 0 -162 -64 -162 -138c0 -72 64 -100 138 -134c88 -40 166 -75 166 -179c0 -122 -110 -213 -248 -213z" />
    <glyph glyph-name="Scaron" unicode="&#x160;" horiz-adv-x="565" 
d="M379 749l-117 152h40l81 -107l125 107h47zM251 -6c-121 0 -214 70 -211 189l51 9c-4 -99 68 -152 164 -152c109 0 192 68 192 159c0 87 -75 117 -147 149c-84 38 -155 74 -155 167c0 107 92 189 217 189c80 0 152 -34 182 -111l-47 -24c-21 59 -74 89 -140 89
c-96 0 -162 -64 -162 -138c0 -72 64 -100 138 -134c88 -40 166 -75 166 -179c0 -122 -110 -213 -248 -213z" />
    <glyph glyph-name="Scedilla" unicode="&#x15e;" horiz-adv-x="565" 
d="M333 386c88 -40 166 -75 166 -179c0 -115 -98 -203 -226 -212l-49 -66c59 -7 101 -35 101 -88c0 -59 -42 -94 -97 -94c-45 0 -81 21 -96 52l22 22c9 -27 37 -44 71 -44c40 0 67 24 67 61c0 52 -57 69 -118 69l65 87c-115 5 -202 74 -199 189l51 9
c-4 -99 68 -152 164 -152c109 0 192 68 192 159c0 87 -75 117 -147 149c-84 38 -155 74 -155 167c0 107 92 189 217 189c80 0 152 -34 182 -111l-47 -24c-21 59 -74 89 -140 89c-96 0 -162 -64 -162 -138c0 -72 64 -100 138 -134z" />
    <glyph glyph-name="uni0218" unicode="&#x218;" horiz-adv-x="565" 
d="M251 -6c-121 0 -214 70 -211 189l51 9c-4 -99 68 -152 164 -152c109 0 192 68 192 159c0 87 -75 117 -147 149c-84 38 -155 74 -155 167c0 107 92 189 217 189c80 0 152 -34 182 -111l-47 -24c-21 59 -74 89 -140 89c-96 0 -162 -64 -162 -138c0 -72 64 -100 138 -134
c88 -40 166 -75 166 -179c0 -122 -110 -213 -248 -213zM94 -219l128 162h54l-147 -162h-35z" />
    <glyph glyph-name="uni1E9E" unicode="&#x1e9e;" horiz-adv-x="681" 
d="M416 -7c-101 0 -172 54 -183 129l47 19c11 -59 63 -100 138 -100c81 0 139 46 139 113c0 119 -252 54 -252 193c0 48 29 87 66 121l200 180h-176c-123 0 -179 -74 -204 -202l-87 -447h-51l87 450c22 111 68 248 262 248h256l-6 -31l-251 -231c-22 -20 -45 -44 -45 -81
c0 -105 256 -47 256 -199c0 -103 -92 -162 -196 -162z" />
    <glyph glyph-name="T" unicode="T" horiz-adv-x="620" 
d="M237 0l126 650h-250l9 47h552l-9 -47h-251l-127 -650h-50z" />
    <glyph glyph-name="Tbar" unicode="&#x166;" horiz-adv-x="620" 
d="M665 650h-251l-55 -284h99l-7 -34h-99l-65 -332h-50l64 332h-100l7 34h100l55 284h-250l9 47h552z" />
    <glyph glyph-name="Tcaron" unicode="&#x164;" horiz-adv-x="620" 
d="M406 749l-117 152h40l81 -107l125 107h47zM237 0l126 650h-250l9 47h552l-9 -47h-251l-127 -650h-50z" />
    <glyph glyph-name="uni0162" unicode="&#x162;" horiz-adv-x="620" 
d="M122 697h552l-9 -47h-251l-127 -650h-9l-53 -71c59 -7 101 -35 101 -88c0 -59 -42 -94 -97 -94c-45 0 -81 21 -96 52l22 22c9 -27 37 -44 71 -44c40 0 67 24 67 61c0 52 -57 69 -118 69l69 93h-7l126 650h-250z" />
    <glyph glyph-name="uni021A" unicode="&#x21a;" horiz-adv-x="620" 
d="M237 0l126 650h-250l9 47h552l-9 -47h-251l-127 -650h-50zM95 -219l128 162h54l-147 -162h-35z" />
    <glyph glyph-name="U" unicode="U" horiz-adv-x="688" 
d="M296 -7c-133 0 -203 66 -203 186c0 22 3 49 8 75l86 443h51l-86 -442c-5 -25 -8 -52 -8 -70c0 -93 52 -142 157 -142c134 0 212 78 240 219l84 435h52l-87 -442c-34 -171 -137 -262 -294 -262z" />
    <glyph glyph-name="Uacute" unicode="&#xda;" horiz-adv-x="688" 
d="M424 761l133 140h55l-148 -140h-40zM296 -7c-133 0 -203 66 -203 186c0 22 3 49 8 75l86 443h51l-86 -442c-5 -25 -8 -52 -8 -70c0 -93 52 -142 157 -142c134 0 212 78 240 219l84 435h52l-87 -442c-34 -171 -137 -262 -294 -262z" />
    <glyph glyph-name="uni01D3" unicode="&#x1d3;" horiz-adv-x="688" 
d="M440 749l-117 152h40l81 -107l125 107h47zM296 -7c-133 0 -203 66 -203 186c0 22 3 49 8 75l86 443h51l-86 -442c-5 -25 -8 -52 -8 -70c0 -93 52 -142 157 -142c134 0 212 78 240 219l84 435h52l-87 -442c-34 -171 -137 -262 -294 -262z" />
    <glyph glyph-name="Ucircumflex" unicode="&#xdb;" horiz-adv-x="688" 
d="M293 755l178 153l115 -153h-39l-82 107l-124 -107h-48zM296 -7c-133 0 -203 66 -203 186c0 22 3 49 8 75l86 443h51l-86 -442c-5 -25 -8 -52 -8 -70c0 -93 52 -142 157 -142c134 0 212 78 240 219l84 435h52l-87 -442c-34 -171 -137 -262 -294 -262z" />
    <glyph glyph-name="Udieresis" unicode="&#xdc;" horiz-adv-x="688" 
d="M344 803l19 98h43l-20 -98h-42zM519 803l19 98h42l-19 -98h-42zM296 -7c-133 0 -203 66 -203 186c0 22 3 49 8 75l86 443h51l-86 -442c-5 -25 -8 -52 -8 -70c0 -93 52 -142 157 -142c134 0 212 78 240 219l84 435h52l-87 -442c-34 -171 -137 -262 -294 -262z" />
    <glyph glyph-name="uni01D7" unicode="&#x1d7;" horiz-adv-x="688" 
d="M464 965l133 140h55l-148 -140h-40zM344 803l19 98h43l-20 -98h-42zM519 803l19 98h42l-19 -98h-42zM296 -7c-133 0 -203 66 -203 186c0 22 3 49 8 75l86 443h51l-86 -442c-5 -25 -8 -52 -8 -70c0 -93 52 -142 157 -142c134 0 212 78 240 219l84 435h52l-87 -442
c-34 -171 -137 -262 -294 -262z" />
    <glyph glyph-name="uni01D9" unicode="&#x1d9;" horiz-adv-x="688" 
d="M480 953l-117 152h40l81 -107l125 107h47zM344 803l19 98h43l-20 -98h-42zM519 803l19 98h42l-19 -98h-42zM296 -7c-133 0 -203 66 -203 186c0 22 3 49 8 75l86 443h51l-86 -442c-5 -25 -8 -52 -8 -70c0 -93 52 -142 157 -142c134 0 212 78 240 219l84 435h52l-87 -442
c-34 -171 -137 -262 -294 -262z" />
    <glyph glyph-name="uni01DB" unicode="&#x1db;" horiz-adv-x="688" 
d="M463 965l-148 140h55l134 -140h-41zM344 803l19 98h43l-20 -98h-42zM519 803l19 98h42l-19 -98h-42zM296 -7c-133 0 -203 66 -203 186c0 22 3 49 8 75l86 443h51l-86 -442c-5 -25 -8 -52 -8 -70c0 -93 52 -142 157 -142c134 0 212 78 240 219l84 435h52l-87 -442
c-34 -171 -137 -262 -294 -262z" />
    <glyph glyph-name="uni01D5" unicode="&#x1d5;" horiz-adv-x="688" 
d="M360 1020l6 31h269l-7 -31h-268zM344 803l19 98h43l-20 -98h-42zM519 803l19 98h42l-19 -98h-42zM296 -7c-133 0 -203 66 -203 186c0 22 3 49 8 75l86 443h51l-86 -442c-5 -25 -8 -52 -8 -70c0 -93 52 -142 157 -142c134 0 212 78 240 219l84 435h52l-87 -442
c-34 -171 -137 -262 -294 -262z" />
    <glyph glyph-name="uni1EE4" unicode="&#x1ee4;" horiz-adv-x="688" 
d="M296 -7c-133 0 -203 66 -203 186c0 22 3 49 8 75l86 443h51l-86 -442c-5 -25 -8 -52 -8 -70c0 -93 52 -142 157 -142c134 0 212 78 240 219l84 435h52l-87 -442c-34 -171 -137 -262 -294 -262zM236 -173l19 97h52l-20 -97h-51z" />
    <glyph glyph-name="Ugrave" unicode="&#xd9;" horiz-adv-x="688" 
d="M423 761l-148 140h55l134 -140h-41zM296 -7c-133 0 -203 66 -203 186c0 22 3 49 8 75l86 443h51l-86 -442c-5 -25 -8 -52 -8 -70c0 -93 52 -142 157 -142c134 0 212 78 240 219l84 435h52l-87 -442c-34 -171 -137 -262 -294 -262z" />
    <glyph glyph-name="uni1EE6" unicode="&#x1ee6;" horiz-adv-x="688" 
d="M435 736l-5 31c51 10 101 21 101 72c0 38 -41 53 -88 53h-16l6 30h13c68 0 118 -29 118 -81c0 -73 -60 -92 -129 -105zM296 -7c-133 0 -203 66 -203 186c0 22 3 49 8 75l86 443h51l-86 -442c-5 -25 -8 -52 -8 -70c0 -93 52 -142 157 -142c134 0 212 78 240 219l84 435h52
l-87 -442c-34 -171 -137 -262 -294 -262z" />
    <glyph glyph-name="Uhorn" unicode="&#x1af;" horiz-adv-x="688" 
d="M763 697h39l-11 -53c-18 -90 -65 -144 -153 -146l-48 -243c-34 -171 -137 -262 -294 -262c-133 0 -203 66 -203 186c0 22 3 49 8 75l86 443h51l-86 -442c-5 -25 -8 -52 -8 -70c0 -93 52 -142 157 -142c134 0 212 78 240 219l84 435h52l-32 -164c61 4 94 47 107 111z" />
    <glyph glyph-name="uni1EE8" unicode="&#x1ee8;" horiz-adv-x="688" 
d="M612 901l-148 -140h-40l133 140h55zM763 697h39l-11 -53c-18 -90 -65 -144 -153 -146l-48 -243c-34 -171 -137 -262 -294 -262c-133 0 -203 66 -203 186c0 22 3 49 8 75l86 443h51l-86 -442c-5 -25 -8 -52 -8 -70c0 -93 52 -142 157 -142c134 0 212 78 240 219l84 435h52
l-32 -164c61 4 94 47 107 111z" />
    <glyph glyph-name="uni1EF0" unicode="&#x1ef0;" horiz-adv-x="688" 
d="M763 697h39l-11 -53c-18 -90 -65 -144 -153 -146l-48 -243c-34 -171 -137 -262 -294 -262c-133 0 -203 66 -203 186c0 22 3 49 8 75l86 443h51l-86 -442c-5 -25 -8 -52 -8 -70c0 -93 52 -142 157 -142c134 0 212 78 240 219l84 435h52l-32 -164c61 4 94 47 107 111z
M236 -173l19 97h52l-20 -97h-51z" />
    <glyph glyph-name="uni1EEA" unicode="&#x1eea;" horiz-adv-x="688" 
d="M464 761h-41l-148 140h55zM763 697h39l-11 -53c-18 -90 -65 -144 -153 -146l-48 -243c-34 -171 -137 -262 -294 -262c-133 0 -203 66 -203 186c0 22 3 49 8 75l86 443h51l-86 -442c-5 -25 -8 -52 -8 -70c0 -93 52 -142 157 -142c134 0 212 78 240 219l84 435h52l-32 -164
c61 4 94 47 107 111z" />
    <glyph glyph-name="uni1EEC" unicode="&#x1eec;" horiz-adv-x="688" 
d="M531 839c0 38 -41 53 -88 53h-16l6 30h13c68 0 118 -29 118 -81c0 -73 -60 -92 -129 -105l-5 31c51 10 101 21 101 72zM763 697h39l-11 -53c-18 -90 -65 -144 -153 -146l-48 -243c-34 -171 -137 -262 -294 -262c-133 0 -203 66 -203 186c0 22 3 49 8 75l86 443h51
l-86 -442c-5 -25 -8 -52 -8 -70c0 -93 52 -142 157 -142c134 0 212 78 240 219l84 435h52l-32 -164c61 4 94 47 107 111z" />
    <glyph glyph-name="uni1EEE" unicode="&#x1eee;" horiz-adv-x="688" 
d="M398 873c-37 0 -60 -35 -69 -83h-35c14 75 55 115 108 115c79 0 60 -92 120 -92c32 0 60 36 69 88h35c-14 -75 -55 -121 -105 -121c-85 0 -64 93 -123 93zM763 697h39l-11 -53c-18 -90 -65 -144 -153 -146l-48 -243c-34 -171 -137 -262 -294 -262
c-133 0 -203 66 -203 186c0 22 3 49 8 75l86 443h51l-86 -442c-5 -25 -8 -52 -8 -70c0 -93 52 -142 157 -142c134 0 212 78 240 219l84 435h52l-32 -164c61 4 94 47 107 111z" />
    <glyph glyph-name="Uhungarumlaut" unicode="&#x170;" horiz-adv-x="688" 
d="M341 753l135 148h55l-150 -148h-40zM503 753l135 148h55l-150 -148h-40zM296 -7c-133 0 -203 66 -203 186c0 22 3 49 8 75l86 443h51l-86 -442c-5 -25 -8 -52 -8 -70c0 -93 52 -142 157 -142c134 0 212 78 240 219l84 435h52l-87 -442c-34 -171 -137 -262 -294 -262z" />
    <glyph glyph-name="Umacron" unicode="&#x16a;" horiz-adv-x="688" 
d="M320 816l6 31h269l-7 -31h-268zM296 -7c-133 0 -203 66 -203 186c0 22 3 49 8 75l86 443h51l-86 -442c-5 -25 -8 -52 -8 -70c0 -93 52 -142 157 -142c134 0 212 78 240 219l84 435h52l-87 -442c-34 -171 -137 -262 -294 -262z" />
    <glyph glyph-name="Uogonek" unicode="&#x172;" horiz-adv-x="688" 
d="M625 697h52l-87 -442c-29 -148 -111 -236 -234 -257c-75 -38 -113 -85 -119 -126c-4 -30 14 -46 42 -46c18 0 43 9 64 26l21 -24c-29 -25 -62 -38 -93 -38c-45 0 -75 26 -70 73c6 51 50 100 98 130h-3c-133 0 -203 66 -203 186c0 22 3 49 8 75l86 443h51l-86 -442
c-5 -25 -8 -52 -8 -70c0 -93 52 -142 157 -142c134 0 212 78 240 219z" />
    <glyph glyph-name="Uring" unicode="&#x16e;" horiz-adv-x="688" 
d="M432 684c-46 0 -77 31 -77 76c0 58 50 105 107 105c44 0 76 -31 76 -77c0 -57 -51 -104 -106 -104zM436 712c38 0 73 33 73 73c0 31 -21 51 -51 51c-40 0 -75 -33 -75 -73c0 -30 21 -51 53 -51zM296 -7c-133 0 -203 66 -203 186c0 22 3 49 8 75l86 443h51l-86 -442
c-5 -25 -8 -52 -8 -70c0 -93 52 -142 157 -142c134 0 212 78 240 219l84 435h52l-87 -442c-34 -171 -137 -262 -294 -262z" />
    <glyph glyph-name="Utilde" unicode="&#x168;" horiz-adv-x="688" 
d="M521 780c-85 0 -64 93 -123 93c-37 0 -60 -35 -69 -83h-35c14 75 55 115 108 115c79 0 60 -92 120 -92c32 0 60 36 69 88h35c-14 -75 -55 -121 -105 -121zM296 -7c-133 0 -203 66 -203 186c0 22 3 49 8 75l86 443h51l-86 -442c-5 -25 -8 -52 -8 -70
c0 -93 52 -142 157 -142c134 0 212 78 240 219l84 435h52l-87 -442c-34 -171 -137 -262 -294 -262z" />
    <glyph glyph-name="V" unicode="V" horiz-adv-x="669" 
d="M660 697h59l-410 -697h-43l-140 697h53l120 -621z" />
    <glyph glyph-name="W" unicode="W" horiz-adv-x="967" 
d="M955 697h56l-334 -697h-54l-75 576l-300 -576h-53l-63 697h50l53 -620l304 584h46l75 -586z" />
    <glyph glyph-name="Wacute" unicode="&#x1e82;" horiz-adv-x="967" 
d="M752 901l-148 -140h-40l133 140h55zM955 697h56l-334 -697h-54l-75 576l-300 -576h-53l-63 697h50l53 -620l304 584h46l75 -586z" />
    <glyph glyph-name="Wcircumflex" unicode="&#x174;" horiz-adv-x="967" 
d="M605 862l-124 -107h-48l178 153l115 -153h-39zM955 697h56l-334 -697h-54l-75 576l-300 -576h-53l-63 697h50l53 -620l304 584h46l75 -586z" />
    <glyph glyph-name="Wdieresis" unicode="&#x1e84;" horiz-adv-x="967" 
d="M546 901l-20 -98h-42l19 98h43zM720 901l-19 -98h-42l19 98h42zM955 697h56l-334 -697h-54l-75 576l-300 -576h-53l-63 697h50l53 -620l304 584h46l75 -586z" />
    <glyph glyph-name="Wgrave" unicode="&#x1e80;" horiz-adv-x="967" 
d="M605 761h-41l-148 140h55zM955 697h56l-334 -697h-54l-75 576l-300 -576h-53l-63 697h50l53 -620l304 584h46l75 -586z" />
    <glyph glyph-name="X" unicode="X" horiz-adv-x="644" 
d="M-7 0l315 352l-173 345h58l154 -309l275 309h63l-308 -345l178 -352h-56l-160 314l-280 -314h-66z" />
    <glyph glyph-name="Y" unicode="Y" horiz-adv-x="650" 
d="M251 0l52 265l-183 432h59l157 -382l308 382h62l-352 -432l-52 -265h-51z" />
    <glyph glyph-name="Yacute" unicode="&#xdd;" horiz-adv-x="650" 
d="M405 761l133 140h55l-148 -140h-40zM251 0l52 265l-183 432h59l157 -382l308 382h62l-352 -432l-52 -265h-51z" />
    <glyph glyph-name="Ycircumflex" unicode="&#x176;" horiz-adv-x="650" 
d="M274 755l178 153l115 -153h-39l-82 107l-124 -107h-48zM251 0l52 265l-183 432h59l157 -382l308 382h62l-352 -432l-52 -265h-51z" />
    <glyph glyph-name="Ydieresis" unicode="&#x178;" horiz-adv-x="650" 
d="M325 803l19 98h43l-20 -98h-42zM500 803l19 98h42l-19 -98h-42zM251 0l52 265l-183 432h59l157 -382l308 382h62l-352 -432l-52 -265h-51z" />
    <glyph glyph-name="uni1EF4" unicode="&#x1ef4;" horiz-adv-x="650" 
d="M251 0l52 265l-183 432h59l157 -382l308 382h62l-352 -432l-52 -265h-51zM217 -173l19 97h52l-20 -97h-51z" />
    <glyph glyph-name="Ygrave" unicode="&#x1ef2;" horiz-adv-x="650" 
d="M405 761l-148 140h55l134 -140h-41zM251 0l52 265l-183 432h59l157 -382l308 382h62l-352 -432l-52 -265h-51z" />
    <glyph glyph-name="uni1EF6" unicode="&#x1ef6;" horiz-adv-x="650" 
d="M416 736l-5 31c51 10 101 21 101 72c0 38 -41 53 -88 53h-16l6 30h13c68 0 118 -29 118 -81c0 -73 -60 -92 -129 -105zM251 0l52 265l-183 432h59l157 -382l308 382h62l-352 -432l-52 -265h-51z" />
    <glyph glyph-name="uni1EF8" unicode="&#x1ef8;" horiz-adv-x="650" 
d="M502 780c-85 0 -64 93 -123 93c-37 0 -60 -35 -69 -83h-35c14 75 55 115 108 115c79 0 60 -92 120 -92c32 0 60 36 69 88h35c-14 -75 -55 -121 -105 -121zM251 0l52 265l-183 432h59l157 -382l308 382h62l-352 -432l-52 -265h-51z" />
    <glyph glyph-name="Z" unicode="Z" horiz-adv-x="641" 
d="M679 697l-8 -42l-596 -608h475l-9 -47h-543l7 41l598 609h-455l9 47h522z" />
    <glyph glyph-name="Zacute" unicode="&#x179;" horiz-adv-x="641" 
d="M589 901l-148 -140h-40l133 140h55zM679 697l-8 -42l-596 -608h475l-9 -47h-543l7 41l598 609h-455l9 47h522z" />
    <glyph glyph-name="Zcaron" unicode="&#x17d;" horiz-adv-x="641" 
d="M593 901l-176 -152l-117 152h40l81 -107l125 107h47zM679 697l-8 -42l-596 -608h475l-9 -47h-543l7 41l598 609h-455l9 47h522z" />
    <glyph glyph-name="Zdotaccent" unicode="&#x17b;" horiz-adv-x="641" 
d="M474 901l-19 -98h-51l19 98h51zM679 697l-8 -42l-596 -608h475l-9 -47h-543l7 41l598 609h-455l9 47h522z" />
    <glyph glyph-name="uni1EB6.ss03" horiz-adv-x="631" 
d="M409 771c-93 0 -141 48 -125 130h36c-12 -65 22 -97 94 -97c79 0 118 35 130 97h37c-17 -86 -75 -130 -172 -130zM380 697h44l120 -697h-54l-32 196h-301l-107 -196h-59zM182 240h269l-61 380zM251 -82c28 0 44 -20 39 -47c-5 -26 -29 -47 -55 -47s-44 21 -38 49
c5 25 29 45 54 45z" />
    <glyph glyph-name="uni1EAC.ss03" horiz-adv-x="631" 
d="M437 862l-124 -107h-48l178 153l115 -153h-39zM380 697h44l120 -697h-54l-32 196h-301l-107 -196h-59zM182 240h269l-61 380zM251 -82c28 0 44 -20 39 -47c-5 -26 -29 -47 -55 -47s-44 21 -38 49c5 25 29 45 54 45z" />
    <glyph glyph-name="Adieresis.ss03" horiz-adv-x="631" 
d="M329 813c-25 0 -43 21 -37 49c5 25 29 45 54 45c27 0 44 -20 39 -47c-5 -26 -29 -47 -56 -47zM542 907c27 0 44 -20 39 -47c-5 -26 -29 -47 -56 -47c-25 0 -43 21 -37 49c5 25 29 45 54 45zM380 697h44l120 -697h-54l-32 196h-301l-107 -196h-59zM182 240h269l-61 380z
" />
    <glyph glyph-name="uni1EA0.ss03" horiz-adv-x="631" 
d="M544 0h-54l-32 196h-301l-107 -196h-59l389 697h44zM182 240h269l-61 380zM251 -82c28 0 44 -20 39 -47c-5 -26 -29 -47 -55 -47s-44 21 -38 49c5 25 29 45 54 45z" />
    <glyph glyph-name="Cdotaccent.ss03" horiz-adv-x="718" 
d="M499 813c-25 0 -43 21 -37 49c5 25 29 45 54 45c27 0 44 -20 39 -47c-5 -26 -29 -47 -56 -47zM333 -7c-169 0 -252 101 -252 258c0 248 150 453 391 453c149 0 223 -70 245 -186l-50 -16c-18 101 -79 153 -199 153c-212 0 -337 -185 -337 -400c0 -124 60 -213 207 -213
c120 0 208 57 271 159l45 -22c-72 -115 -176 -186 -321 -186z" />
    <glyph glyph-name="uni1EC6.ss03" horiz-adv-x="623" 
d="M289 755l178 153l115 -153h-39l-82 107l-124 -107h-48zM66 0l136 697h454l-10 -47h-403l-53 -272h358l-8 -48h-359l-55 -283h402l-8 -47h-454zM259 -176c-26 0 -44 21 -38 49c5 25 29 45 54 45c28 0 44 -20 39 -47c-5 -26 -29 -47 -55 -47z" />
    <glyph glyph-name="Edieresis.ss03" horiz-adv-x="623" 
d="M353 813c-25 0 -43 21 -37 49c5 25 29 45 54 45c27 0 44 -20 39 -47c-5 -26 -29 -47 -56 -47zM549 813c-25 0 -43 21 -37 49c5 25 29 45 54 45c27 0 44 -20 39 -47c-5 -26 -29 -47 -56 -47zM66 0l136 697h454l-10 -47h-403l-53 -272h358l-8 -48h-359l-55 -283h402l-8 -47
h-454z" />
    <glyph glyph-name="Edotaccent.ss03" horiz-adv-x="623" 
d="M451 813c-25 0 -43 21 -37 49c5 25 29 45 54 45c27 0 44 -20 39 -47c-5 -26 -29 -47 -56 -47zM66 0l136 697h454l-10 -47h-403l-53 -272h358l-8 -48h-359l-55 -283h402l-8 -47h-454z" />
    <glyph glyph-name="uni1EB8.ss03" horiz-adv-x="623" 
d="M66 0l136 697h454l-10 -47h-403l-53 -272h358l-8 -48h-359l-55 -283h402l-8 -47h-454zM259 -176c-26 0 -44 21 -38 49c5 25 29 45 54 45c28 0 44 -20 39 -47c-5 -26 -29 -47 -55 -47z" />
    <glyph glyph-name="Gdotaccent.ss03" horiz-adv-x="756" 
d="M490 813c-25 0 -43 21 -37 49c5 25 29 45 54 45c27 0 44 -20 39 -47c-5 -26 -29 -47 -56 -47zM457 312l8 42h224l-68 -354h-43l24 128c-55 -90 -159 -135 -270 -135c-167 0 -251 101 -251 267c0 236 151 444 394 444c149 0 222 -75 243 -186l-50 -16
c-18 99 -78 153 -198 153c-214 0 -338 -187 -338 -393c0 -134 60 -220 205 -220c128 0 254 71 284 224l9 46h-173z" />
    <glyph glyph-name="Idieresis.ss03" horiz-adv-x="278" 
d="M152 813c-25 0 -43 21 -37 49c5 25 29 45 54 45c27 0 44 -20 39 -47c-5 -26 -29 -47 -56 -47zM348 813c-25 0 -43 21 -37 49c5 25 29 45 54 45c27 0 44 -20 39 -47c-5 -26 -29 -47 -56 -47zM66 0l136 697h50l-136 -697h-50z" />
    <glyph glyph-name="uni1ECA.ss03" horiz-adv-x="278" 
d="M66 0l136 697h50l-136 -697h-50zM58 -176c-26 0 -44 21 -38 49c5 25 29 45 54 45c28 0 44 -20 39 -47c-5 -26 -29 -47 -55 -47z" />
    <glyph glyph-name="uni1ED8.ss03" horiz-adv-x="764" 
d="M331 755l178 153l115 -153h-39l-82 107l-124 -107h-48zM335 -7c-176 0 -256 117 -256 265c0 236 162 446 389 446c176 0 257 -117 257 -266c0 -236 -163 -445 -390 -445zM339 42c201 0 335 189 335 393c0 126 -65 220 -211 220c-201 0 -333 -190 -333 -395
c0 -125 65 -218 209 -218zM301 -176c-26 0 -44 21 -38 49c5 25 29 45 54 45c28 0 44 -20 39 -47c-5 -26 -29 -47 -55 -47z" />
    <glyph glyph-name="Odieresis.ss03" horiz-adv-x="764" 
d="M394 813c-25 0 -43 21 -37 49c5 25 29 45 54 45c27 0 44 -20 39 -47c-5 -26 -29 -47 -56 -47zM590 813c-25 0 -43 21 -37 49c5 25 29 45 54 45c27 0 44 -20 39 -47c-5 -26 -29 -47 -56 -47zM335 -7c-176 0 -256 117 -256 265c0 236 162 446 389 446
c176 0 257 -117 257 -266c0 -236 -163 -445 -390 -445zM339 42c201 0 335 189 335 393c0 126 -65 220 -211 220c-201 0 -333 -190 -333 -395c0 -125 65 -218 209 -218z" />
    <glyph glyph-name="uni1ECC.ss03" horiz-adv-x="764" 
d="M335 -7c-176 0 -256 117 -256 265c0 236 162 446 389 446c176 0 257 -117 257 -266c0 -236 -163 -445 -390 -445zM339 42c201 0 335 189 335 393c0 126 -65 220 -211 220c-201 0 -333 -190 -333 -395c0 -125 65 -218 209 -218zM301 -176c-26 0 -44 21 -38 49
c5 25 29 45 54 45c28 0 44 -20 39 -47c-5 -26 -29 -47 -55 -47z" />
    <glyph glyph-name="uni1EE2.ss03" horiz-adv-x="764" 
d="M821 697h39l-11 -53c-16 -81 -56 -133 -129 -144c3 -20 5 -41 5 -62c0 -236 -163 -445 -390 -445c-176 0 -256 117 -256 265c0 236 162 446 389 446c136 0 215 -70 244 -170c55 7 85 49 98 110zM339 42c201 0 335 189 335 393c0 126 -65 220 -211 220
c-201 0 -333 -190 -333 -395c0 -125 65 -218 209 -218zM317 -82c28 0 44 -20 39 -47c-5 -26 -29 -47 -55 -47s-44 21 -38 49c5 25 29 45 54 45z" />
    <glyph glyph-name="Udieresis.ss03" horiz-adv-x="688" 
d="M356 813c-25 0 -43 21 -37 49c5 25 29 45 54 45c27 0 44 -20 39 -47c-5 -26 -29 -47 -56 -47zM552 813c-25 0 -43 21 -37 49c5 25 29 45 54 45c27 0 44 -20 39 -47c-5 -26 -29 -47 -56 -47zM296 -7c-133 0 -203 66 -203 186c0 22 3 49 8 75l86 443h51l-86 -442
c-5 -25 -8 -52 -8 -70c0 -93 52 -142 157 -142c134 0 212 78 240 219l84 435h52l-87 -442c-34 -171 -137 -262 -294 -262z" />
    <glyph glyph-name="uni01D7.ss03" horiz-adv-x="688" 
d="M465 971l133 140h55l-148 -140h-40zM356 813c-25 0 -43 21 -37 49c5 25 29 45 54 45c27 0 44 -20 39 -47c-5 -26 -29 -47 -56 -47zM552 813c-25 0 -43 21 -37 49c5 25 29 45 54 45c27 0 44 -20 39 -47c-5 -26 -29 -47 -56 -47zM296 -7c-133 0 -203 66 -203 186
c0 22 3 49 8 75l86 443h51l-86 -442c-5 -25 -8 -52 -8 -70c0 -93 52 -142 157 -142c134 0 212 78 240 219l84 435h52l-87 -442c-34 -171 -137 -262 -294 -262z" />
    <glyph glyph-name="uni01D9.ss03" horiz-adv-x="688" 
d="M481 959l-117 152h40l81 -107l125 107h47zM356 813c-25 0 -43 21 -37 49c5 25 29 45 54 45c27 0 44 -20 39 -47c-5 -26 -29 -47 -56 -47zM552 813c-25 0 -43 21 -37 49c5 25 29 45 54 45c27 0 44 -20 39 -47c-5 -26 -29 -47 -56 -47zM296 -7c-133 0 -203 66 -203 186
c0 22 3 49 8 75l86 443h51l-86 -442c-5 -25 -8 -52 -8 -70c0 -93 52 -142 157 -142c134 0 212 78 240 219l84 435h52l-87 -442c-34 -171 -137 -262 -294 -262z" />
    <glyph glyph-name="uni01DB.ss03" horiz-adv-x="688" 
d="M464 971l-148 140h55l134 -140h-41zM356 813c-25 0 -43 21 -37 49c5 25 29 45 54 45c27 0 44 -20 39 -47c-5 -26 -29 -47 -56 -47zM552 813c-25 0 -43 21 -37 49c5 25 29 45 54 45c27 0 44 -20 39 -47c-5 -26 -29 -47 -56 -47zM296 -7c-133 0 -203 66 -203 186
c0 22 3 49 8 75l86 443h51l-86 -442c-5 -25 -8 -52 -8 -70c0 -93 52 -142 157 -142c134 0 212 78 240 219l84 435h52l-87 -442c-34 -171 -137 -262 -294 -262z" />
    <glyph glyph-name="uni01D5.ss03" horiz-adv-x="688" 
d="M361 1026l6 31h269l-7 -31h-268zM356 813c-25 0 -43 21 -37 49c5 25 29 45 54 45c27 0 44 -20 39 -47c-5 -26 -29 -47 -56 -47zM552 813c-25 0 -43 21 -37 49c5 25 29 45 54 45c27 0 44 -20 39 -47c-5 -26 -29 -47 -56 -47zM296 -7c-133 0 -203 66 -203 186
c0 22 3 49 8 75l86 443h51l-86 -442c-5 -25 -8 -52 -8 -70c0 -93 52 -142 157 -142c134 0 212 78 240 219l84 435h52l-87 -442c-34 -171 -137 -262 -294 -262z" />
    <glyph glyph-name="uni1EE4.ss03" horiz-adv-x="688" 
d="M296 -7c-133 0 -203 66 -203 186c0 22 3 49 8 75l86 443h51l-86 -442c-5 -25 -8 -52 -8 -70c0 -93 52 -142 157 -142c134 0 212 78 240 219l84 435h52l-87 -442c-34 -171 -137 -262 -294 -262zM262 -176c-26 0 -44 21 -38 49c5 25 29 45 54 45c28 0 44 -20 39 -47
c-5 -26 -29 -47 -55 -47z" />
    <glyph glyph-name="uni1EF0.ss03" horiz-adv-x="688" 
d="M763 697h39l-11 -53c-18 -90 -65 -144 -153 -146l-48 -243c-34 -171 -137 -262 -294 -262c-133 0 -203 66 -203 186c0 22 3 49 8 75l86 443h51l-86 -442c-5 -25 -8 -52 -8 -70c0 -93 52 -142 157 -142c134 0 212 78 240 219l84 435h52l-32 -164c61 4 94 47 107 111z
M278 -82c28 0 44 -20 39 -47c-5 -26 -29 -47 -55 -47s-44 21 -38 49c5 25 29 45 54 45z" />
    <glyph glyph-name="Wdieresis.ss03" horiz-adv-x="967" 
d="M497 813c-25 0 -43 21 -37 49c5 25 29 45 54 45c27 0 44 -20 39 -47c-5 -26 -29 -47 -56 -47zM693 813c-25 0 -43 21 -37 49c5 25 29 45 54 45c27 0 44 -20 39 -47c-5 -26 -29 -47 -56 -47zM955 697h56l-334 -697h-54l-75 576l-300 -576h-53l-63 697h50l53 -620l304 584
h46l75 -586z" />
    <glyph glyph-name="Ydieresis.ss03" horiz-adv-x="650" 
d="M338 813c-25 0 -43 21 -37 49c5 25 29 45 54 45c27 0 44 -20 39 -47c-5 -26 -29 -47 -56 -47zM534 813c-25 0 -43 21 -37 49c5 25 29 45 54 45c27 0 44 -20 39 -47c-5 -26 -29 -47 -56 -47zM251 0l52 265l-183 432h59l157 -382l308 382h62l-352 -432l-52 -265h-51z" />
    <glyph glyph-name="uni1EF4.ss03" horiz-adv-x="650" 
d="M251 0l52 265l-183 432h59l157 -382l308 382h62l-352 -432l-52 -265h-51zM244 -176c-26 0 -44 21 -38 49c5 25 29 45 54 45c28 0 44 -20 39 -47c-5 -26 -29 -47 -55 -47z" />
    <glyph glyph-name="Zdotaccent.ss03" horiz-adv-x="641" 
d="M432 813c-25 0 -43 21 -37 49c5 25 29 45 54 45c27 0 44 -20 39 -47c-5 -26 -29 -47 -56 -47zM679 697l-8 -42l-596 -608h475l-9 -47h-543l7 41l598 609h-455l9 47h522z" />
    <glyph glyph-name="a" unicode="a" horiz-adv-x="597" 
d="M505 493h50l-96 -493h-49l18 95c-45 -64 -120 -102 -198 -102c-118 0 -186 80 -186 196c0 157 120 311 276 311c81 0 142 -41 166 -104zM464 264c16 111 -38 191 -140 191c-134 0 -231 -135 -231 -261c0 -94 54 -155 144 -155c115 0 209 101 227 225z" />
    <glyph glyph-name="aacute" unicode="&#xe1;" horiz-adv-x="597" 
d="M520 697l-148 -140h-40l133 140h55zM505 493h50l-96 -493h-49l18 95c-45 -64 -120 -102 -198 -102c-118 0 -186 80 -186 196c0 157 120 311 276 311c81 0 142 -41 166 -104zM464 264c16 111 -38 191 -140 191c-134 0 -231 -135 -231 -261c0 -94 54 -155 144 -155
c115 0 209 101 227 225z" />
    <glyph glyph-name="abreve" unicode="&#x103;" horiz-adv-x="597" 
d="M345 567c-93 0 -141 48 -125 130h36c-12 -65 22 -97 94 -97c79 0 118 35 130 97h37c-17 -86 -75 -130 -172 -130zM505 493h50l-96 -493h-49l18 95c-45 -64 -120 -102 -198 -102c-118 0 -186 80 -186 196c0 157 120 311 276 311c81 0 142 -41 166 -104zM464 264
c16 111 -38 191 -140 191c-134 0 -231 -135 -231 -261c0 -94 54 -155 144 -155c115 0 209 101 227 225z" />
    <glyph glyph-name="uni1EAF" unicode="&#x1eaf;" horiz-adv-x="597" 
d="M559 901l-148 -140h-40l133 140h55zM345 567c-93 0 -141 48 -125 130h36c-12 -65 22 -97 94 -97c79 0 118 35 130 97h37c-17 -86 -75 -130 -172 -130zM486 396l19 97h50l-96 -493h-49l18 95c-45 -64 -120 -102 -198 -102c-118 0 -186 80 -186 196c0 157 120 311 276 311
c81 0 142 -41 166 -104zM464 264c16 111 -38 191 -140 191c-134 0 -231 -135 -231 -261c0 -94 54 -155 144 -155c115 0 209 101 227 225z" />
    <glyph glyph-name="uni1EB7" unicode="&#x1eb7;" horiz-adv-x="597" 
d="M345 567c-93 0 -141 48 -125 130h36c-12 -65 22 -97 94 -97c79 0 118 35 130 97h37c-17 -86 -75 -130 -172 -130zM505 493h50l-96 -493h-49l18 95c-45 -64 -120 -102 -198 -102c-118 0 -186 80 -186 196c0 157 120 311 276 311c81 0 142 -41 166 -104zM464 264
c16 111 -38 191 -140 191c-134 0 -231 -135 -231 -261c0 -94 54 -155 144 -155c115 0 209 101 227 225zM191 -173l19 97h52l-20 -97h-51z" />
    <glyph glyph-name="uni1EB1" unicode="&#x1eb1;" horiz-adv-x="597" 
d="M412 761h-41l-148 140h55zM345 567c-93 0 -141 48 -125 130h36c-12 -65 22 -97 94 -97c79 0 118 35 130 97h37c-17 -86 -75 -130 -172 -130zM505 493h50l-96 -493h-49l18 95c-45 -64 -120 -102 -198 -102c-118 0 -186 80 -186 196c0 157 120 311 276 311
c81 0 142 -41 166 -104zM464 264c16 111 -38 191 -140 191c-134 0 -231 -135 -231 -261c0 -94 54 -155 144 -155c115 0 209 101 227 225z" />
    <glyph glyph-name="uni1EB3" unicode="&#x1eb3;" horiz-adv-x="597" 
d="M478 839c0 38 -41 53 -88 53h-16l6 30h13c68 0 118 -29 118 -81c0 -73 -60 -92 -129 -105l-5 31c51 10 101 21 101 72zM345 567c-93 0 -141 48 -125 130h36c-12 -65 22 -97 94 -97c79 0 118 35 130 97h37c-17 -86 -75 -130 -172 -130zM505 493h50l-96 -493h-49l18 95
c-45 -64 -120 -102 -198 -102c-118 0 -186 80 -186 196c0 157 120 311 276 311c81 0 142 -41 166 -104zM464 264c16 111 -38 191 -140 191c-134 0 -231 -135 -231 -261c0 -94 54 -155 144 -155c115 0 209 101 227 225z" />
    <glyph glyph-name="uni1EB5" unicode="&#x1eb5;" horiz-adv-x="597" 
d="M345 873c-37 0 -60 -35 -69 -83h-35c14 75 55 115 108 115c79 0 60 -92 120 -92c32 0 60 36 69 88h35c-14 -75 -55 -121 -105 -121c-85 0 -64 93 -123 93zM345 567c-93 0 -141 48 -125 130h36c-12 -65 22 -97 94 -97c79 0 118 35 130 97h37c-17 -86 -75 -130 -172 -130z
M486 396l19 97h50l-96 -493h-49l18 95c-45 -64 -120 -102 -198 -102c-118 0 -186 80 -186 196c0 157 120 311 276 311c81 0 142 -41 166 -104zM464 264c16 111 -38 191 -140 191c-134 0 -231 -135 -231 -261c0 -94 54 -155 144 -155c115 0 209 101 227 225z" />
    <glyph glyph-name="uni01CE" unicode="&#x1ce;" horiz-adv-x="597" 
d="M524 697l-176 -152l-117 152h40l81 -107l125 107h47zM505 493h50l-96 -493h-49l18 95c-45 -64 -120 -102 -198 -102c-118 0 -186 80 -186 196c0 157 120 311 276 311c81 0 142 -41 166 -104zM464 264c16 111 -38 191 -140 191c-134 0 -231 -135 -231 -261
c0 -94 54 -155 144 -155c115 0 209 101 227 225z" />
    <glyph glyph-name="acircumflex" unicode="&#xe2;" horiz-adv-x="597" 
d="M373 658l-124 -107h-48l178 153l115 -153h-39zM505 493h50l-96 -493h-49l18 95c-45 -64 -120 -102 -198 -102c-118 0 -186 80 -186 196c0 157 120 311 276 311c81 0 142 -41 166 -104zM464 264c16 111 -38 191 -140 191c-134 0 -231 -135 -231 -261
c0 -94 54 -155 144 -155c115 0 209 101 227 225z" />
    <glyph glyph-name="uni1EA5" unicode="&#x1ea5;" horiz-adv-x="597" 
d="M559 896l-148 -140h-40l133 140h55zM373 658l-124 -107h-48l178 153l115 -153h-39zM486 396l19 97h50l-96 -493h-49l18 95c-45 -64 -120 -102 -198 -102c-118 0 -186 80 -186 196c0 157 120 311 276 311c81 0 142 -41 166 -104zM464 264c16 111 -38 191 -140 191
c-134 0 -231 -135 -231 -261c0 -94 54 -155 144 -155c115 0 209 101 227 225z" />
    <glyph glyph-name="uni1EAD" unicode="&#x1ead;" horiz-adv-x="597" 
d="M373 658l-124 -107h-48l178 153l115 -153h-39zM505 493h50l-96 -493h-49l18 95c-45 -64 -120 -102 -198 -102c-118 0 -186 80 -186 196c0 157 120 311 276 311c81 0 142 -41 166 -104zM464 264c16 111 -38 191 -140 191c-134 0 -231 -135 -231 -261
c0 -94 54 -155 144 -155c115 0 209 101 227 225zM191 -173l19 97h52l-20 -97h-51z" />
    <glyph glyph-name="uni1EA7" unicode="&#x1ea7;" horiz-adv-x="597" 
d="M412 756h-41l-148 140h55zM373 658l-124 -107h-48l178 153l115 -153h-39zM505 493h50l-96 -493h-49l18 95c-45 -64 -120 -102 -198 -102c-118 0 -186 80 -186 196c0 157 120 311 276 311c81 0 142 -41 166 -104zM464 264c16 111 -38 191 -140 191
c-134 0 -231 -135 -231 -261c0 -94 54 -155 144 -155c115 0 209 101 227 225z" />
    <glyph glyph-name="uni1EA9" unicode="&#x1ea9;" horiz-adv-x="597" 
d="M478 834c0 38 -41 53 -88 53h-16l6 30h13c68 0 118 -29 118 -81c0 -73 -60 -92 -129 -105l-5 31c51 10 101 21 101 72zM373 658l-124 -107h-48l178 153l115 -153h-39zM505 493h50l-96 -493h-49l18 95c-45 -64 -120 -102 -198 -102c-118 0 -186 80 -186 196
c0 157 120 311 276 311c81 0 142 -41 166 -104zM464 264c16 111 -38 191 -140 191c-134 0 -231 -135 -231 -261c0 -94 54 -155 144 -155c115 0 209 101 227 225z" />
    <glyph glyph-name="uni1EAB" unicode="&#x1eab;" horiz-adv-x="597" 
d="M345 868c-37 0 -60 -35 -69 -83h-35c14 75 55 115 108 115c79 0 60 -92 120 -92c32 0 60 36 69 88h35c-14 -75 -55 -121 -105 -121c-85 0 -64 93 -123 93zM373 658l-124 -107h-48l178 153l115 -153h-39zM486 396l19 97h50l-96 -493h-49l18 95
c-45 -64 -120 -102 -198 -102c-118 0 -186 80 -186 196c0 157 120 311 276 311c81 0 142 -41 166 -104zM464 264c16 111 -38 191 -140 191c-134 0 -231 -135 -231 -261c0 -94 54 -155 144 -155c115 0 209 101 227 225z" />
    <glyph glyph-name="adieresis" unicode="&#xe4;" horiz-adv-x="597" 
d="M314 697l-20 -98h-42l19 98h43zM488 697l-19 -98h-42l19 98h42zM505 493h50l-96 -493h-49l18 95c-45 -64 -120 -102 -198 -102c-118 0 -186 80 -186 196c0 157 120 311 276 311c81 0 142 -41 166 -104zM464 264c16 111 -38 191 -140 191c-134 0 -231 -135 -231 -261
c0 -94 54 -155 144 -155c115 0 209 101 227 225z" />
    <glyph glyph-name="uni1EA1" unicode="&#x1ea1;" horiz-adv-x="597" 
d="M505 493h50l-96 -493h-49l18 95c-45 -64 -120 -102 -198 -102c-118 0 -186 80 -186 196c0 157 120 311 276 311c81 0 142 -41 166 -104zM464 264c16 111 -38 191 -140 191c-134 0 -231 -135 -231 -261c0 -94 54 -155 144 -155c115 0 209 101 227 225zM191 -173l19 97h52
l-20 -97h-51z" />
    <glyph glyph-name="agrave" unicode="&#xe0;" horiz-adv-x="597" 
d="M373 557h-41l-148 140h55zM505 493h50l-96 -493h-49l18 95c-45 -64 -120 -102 -198 -102c-118 0 -186 80 -186 196c0 157 120 311 276 311c81 0 142 -41 166 -104zM464 264c16 111 -38 191 -140 191c-134 0 -231 -135 -231 -261c0 -94 54 -155 144 -155
c115 0 209 101 227 225z" />
    <glyph glyph-name="uni1EA3" unicode="&#x1ea3;" horiz-adv-x="597" 
d="M439 635c0 38 -41 53 -88 53h-16l6 30h13c68 0 118 -29 118 -81c0 -73 -60 -92 -129 -105l-5 31c51 10 101 21 101 72zM505 493h50l-96 -493h-49l18 95c-45 -64 -120 -102 -198 -102c-118 0 -186 80 -186 196c0 157 120 311 276 311c81 0 142 -41 166 -104zM464 264
c16 111 -38 191 -140 191c-134 0 -231 -135 -231 -261c0 -94 54 -155 144 -155c115 0 209 101 227 225z" />
    <glyph glyph-name="amacron" unicode="&#x101;" horiz-adv-x="597" 
d="M503 643l-7 -31h-268l6 31h269zM505 493h50l-96 -493h-49l18 95c-45 -64 -120 -102 -198 -102c-118 0 -186 80 -186 196c0 157 120 311 276 311c81 0 142 -41 166 -104zM464 264c16 111 -38 191 -140 191c-134 0 -231 -135 -231 -261c0 -94 54 -155 144 -155
c115 0 209 101 227 225z" />
    <glyph glyph-name="aogonek" unicode="&#x105;" horiz-adv-x="597" 
d="M377 -174c18 0 43 9 64 26l21 -24c-29 -25 -62 -38 -93 -38c-45 0 -75 26 -70 73c7 56 58 108 111 137l18 95c-45 -64 -120 -102 -198 -102c-118 0 -186 80 -186 196c0 157 120 311 276 311c81 0 142 -41 166 -104l19 97h50l-96 -493h-1c-77 -38 -117 -86 -123 -128
c-4 -30 14 -46 42 -46zM237 39c115 0 209 101 227 225c16 111 -38 191 -140 191c-134 0 -231 -135 -231 -261c0 -94 54 -155 144 -155z" />
    <glyph glyph-name="aring" unicode="&#xe5;" horiz-adv-x="597" 
d="M352 544c-52 0 -85 42 -75 94c10 49 56 87 106 87c49 0 84 -43 74 -95c-10 -50 -58 -86 -105 -86zM308 636c-6 -34 13 -61 48 -61c32 0 64 26 70 59c7 33 -15 59 -47 59c-33 0 -64 -25 -71 -57zM505 493h50l-96 -493h-49l18 95c-45 -64 -120 -102 -198 -102
c-118 0 -186 80 -186 196c0 157 120 311 276 311c81 0 142 -41 166 -104zM464 264c16 111 -38 191 -140 191c-134 0 -231 -135 -231 -261c0 -94 54 -155 144 -155c115 0 209 101 227 225z" />
    <glyph glyph-name="atilde" unicode="&#xe3;" horiz-adv-x="597" 
d="M306 669c-37 0 -60 -35 -69 -83h-35c14 75 55 115 108 115c79 0 60 -92 120 -92c32 0 60 36 69 88h35c-14 -75 -55 -121 -105 -121c-85 0 -64 93 -123 93zM505 493h50l-96 -493h-49l18 95c-45 -64 -120 -102 -198 -102c-118 0 -186 80 -186 196c0 157 120 311 276 311
c81 0 142 -41 166 -104zM464 264c16 111 -38 191 -140 191c-134 0 -231 -135 -231 -261c0 -94 54 -155 144 -155c115 0 209 101 227 225z" />
    <glyph glyph-name="ae" unicode="&#xe6;" horiz-adv-x="862" 
d="M808 234h-360c-3 -19 -6 -40 -6 -56c0 -88 40 -139 126 -139c68 0 112 18 168 66l30 -33c-68 -58 -125 -78 -201 -78c-99 0 -158 57 -166 144c-64 -119 -156 -145 -229 -145c-93 0 -149 44 -149 118c0 132 116 170 250 170h132c6 27 9 49 9 69c0 66 -34 106 -114 106
c-72 0 -124 -27 -174 -82l-32 32c63 67 125 94 204 94c102 0 154 -50 157 -121c48 77 118 120 200 120c120 0 172 -78 172 -170c0 -31 -6 -63 -17 -95zM647 456c-96 0 -167 -79 -192 -185h314c6 21 10 43 10 63c0 67 -40 122 -132 122zM176 36c111 0 180 76 220 207h-128
c-112 0 -197 -39 -197 -128c0 -49 37 -79 105 -79z" />
    <glyph glyph-name="b" unicode="b" horiz-adv-x="592" 
d="M367 500c118 0 180 -78 180 -192c0 -158 -113 -315 -270 -315c-77 0 -137 38 -163 98l-17 -91h-54l136 697h54l-58 -290c45 58 118 93 192 93zM274 38c134 0 224 137 224 266c0 91 -49 150 -137 150c-125 0 -221 -117 -229 -244c-8 -102 47 -172 142 -172z" />
    <glyph glyph-name="c" unicode="c" horiz-adv-x="499" 
d="M222 -7c-115 0 -176 80 -176 190c0 162 113 317 269 317c89 0 150 -48 170 -134l-50 -16c-12 67 -59 106 -124 106c-129 0 -216 -139 -216 -274c0 -81 39 -145 130 -145c70 0 132 40 166 108l43 -21c-47 -84 -125 -131 -212 -131z" />
    <glyph glyph-name="cacute" unicode="&#x107;" horiz-adv-x="499" 
d="M290 557l133 140h55l-148 -140h-40zM222 -7c-115 0 -176 80 -176 190c0 162 113 317 269 317c89 0 150 -48 170 -134l-50 -16c-12 67 -59 106 -124 106c-129 0 -216 -139 -216 -274c0 -81 39 -145 130 -145c70 0 132 40 166 108l43 -21c-47 -84 -125 -131 -212 -131z" />
    <glyph glyph-name="ccaron" unicode="&#x10d;" horiz-adv-x="499" 
d="M306 545l-117 152h40l81 -107l125 107h47zM222 -7c-115 0 -176 80 -176 190c0 162 113 317 269 317c89 0 150 -48 170 -134l-50 -16c-12 67 -59 106 -124 106c-129 0 -216 -139 -216 -274c0 -81 39 -145 130 -145c70 0 132 40 166 108l43 -21
c-47 -84 -125 -131 -212 -131z" />
    <glyph glyph-name="ccedilla" unicode="&#xe7;" horiz-adv-x="499" 
d="M311 456c-129 0 -216 -139 -216 -274c0 -81 39 -145 130 -145c70 0 132 40 166 108l43 -21c-47 -84 -125 -131 -212 -131h-9l-48 -64c59 -7 101 -35 101 -88c0 -59 -42 -94 -97 -94c-45 0 -81 21 -96 52l22 22c9 -27 37 -44 71 -44c40 0 67 24 67 61c0 52 -57 69 -118 69
l67 90c-89 16 -136 90 -136 186c0 162 113 317 269 317c89 0 150 -48 170 -134l-50 -16c-12 67 -59 106 -124 106z" />
    <glyph glyph-name="cdotaccent" unicode="&#x10b;" horiz-adv-x="499" 
d="M293 599l19 98h51l-19 -98h-51zM222 -7c-115 0 -176 80 -176 190c0 162 113 317 269 317c89 0 150 -48 170 -134l-50 -16c-12 67 -59 106 -124 106c-129 0 -216 -139 -216 -274c0 -81 39 -145 130 -145c70 0 132 40 166 108l43 -21c-47 -84 -125 -131 -212 -131z" />
    <glyph glyph-name="d" unicode="d" horiz-adv-x="597" 
d="M545 697h50l-136 -697h-49l18 95c-45 -64 -120 -102 -198 -102c-118 0 -186 80 -186 196c0 157 120 311 276 311c81 0 142 -41 166 -104zM466 283c7 102 -47 172 -142 172c-134 0 -231 -135 -231 -261c0 -94 54 -155 144 -155c125 0 220 117 229 244z" />
    <glyph glyph-name="eth" unicode="&#xf0;" horiz-adv-x="604" 
d="M648 650l-108 -33c27 -35 40 -81 40 -139c0 -35 -4 -73 -13 -116c-37 -193 -161 -368 -353 -368c-112 0 -175 68 -175 170c0 179 154 341 331 341c95 0 148 -61 153 -138c11 42 16 79 16 111c0 54 -14 95 -42 125l-169 -52l-3 32l143 45c-48 33 -120 48 -214 54l7 35
c121 -10 203 -32 254 -75l131 41zM487 249c9 22 13 52 13 77c0 71 -34 138 -128 138c-164 0 -287 -149 -287 -297c0 -81 53 -129 135 -129c133 0 227 100 267 211z" />
    <glyph glyph-name="dcaron" unicode="&#x10f;" horiz-adv-x="597" 
d="M486 396l59 301h50l-136 -697h-49l18 95c-45 -64 -120 -102 -198 -102c-118 0 -186 80 -186 196c0 157 120 311 276 311c81 0 142 -41 166 -104zM705 697h53l-118 -202h-33zM466 283c7 102 -47 172 -142 172c-134 0 -231 -135 -231 -261c0 -94 54 -155 144 -155
c125 0 220 117 229 244z" />
    <glyph glyph-name="dcroat" unicode="&#x111;" horiz-adv-x="597" 
d="M633 623l-7 -34h-52l-115 -589h-49l18 95c-45 -64 -120 -102 -198 -102c-118 0 -186 80 -186 196c0 157 120 311 276 311c81 0 142 -41 166 -104l38 193h-148l7 34h147l15 74h50l-14 -74h52zM466 283c7 102 -47 172 -142 172c-134 0 -231 -135 -231 -261
c0 -94 54 -155 144 -155c125 0 220 117 229 244z" />
    <glyph glyph-name="e" unicode="e" horiz-adv-x="523" 
d="M469 234h-370c-4 -20 -6 -37 -6 -55c0 -89 50 -141 137 -141c65 0 110 18 167 68l30 -34c-67 -57 -124 -79 -200 -79c-121 0 -182 76 -182 187c0 163 111 320 267 320c127 0 173 -84 173 -173c0 -29 -6 -66 -16 -93zM309 455c-99 0 -175 -77 -202 -181h324
c6 19 9 41 9 59c0 63 -36 122 -131 122z" />
    <glyph glyph-name="eacute" unicode="&#xe9;" horiz-adv-x="523" 
d="M494 697l-148 -140h-40l133 140h55zM312 500c127 0 173 -84 173 -173c0 -29 -6 -66 -16 -93h-370c-4 -20 -6 -37 -6 -55c0 -89 50 -141 137 -141c65 0 110 18 167 68l30 -34c-67 -57 -124 -79 -200 -79c-121 0 -182 76 -182 187c0 163 111 320 267 320zM431 274
c6 19 9 41 9 59c0 63 -36 122 -131 122c-99 0 -175 -77 -202 -181h324z" />
    <glyph glyph-name="ecaron" unicode="&#x11b;" horiz-adv-x="523" 
d="M498 697l-176 -152l-117 152h40l81 -107l125 107h47zM312 500c127 0 173 -84 173 -173c0 -29 -6 -66 -16 -93h-370c-4 -20 -6 -37 -6 -55c0 -89 50 -141 137 -141c65 0 110 18 167 68l30 -34c-67 -57 -124 -79 -200 -79c-121 0 -182 76 -182 187c0 163 111 320 267 320z
M431 274c6 19 9 41 9 59c0 63 -36 122 -131 122c-99 0 -175 -77 -202 -181h324z" />
    <glyph glyph-name="ecircumflex" unicode="&#xea;" horiz-adv-x="523" 
d="M347 658l-124 -107h-48l178 153l115 -153h-39zM469 234h-370c-4 -20 -6 -37 -6 -55c0 -89 50 -141 137 -141c65 0 110 18 167 68l30 -34c-67 -57 -124 -79 -200 -79c-121 0 -182 76 -182 187c0 163 111 320 267 320c127 0 173 -84 173 -173c0 -29 -6 -66 -16 -93z
M309 455c-99 0 -175 -77 -202 -181h324c6 19 9 41 9 59c0 63 -36 122 -131 122z" />
    <glyph glyph-name="uni1EBF" unicode="&#x1ebf;" horiz-adv-x="523" 
d="M533 896l-148 -140h-40l133 140h55zM347 658l-124 -107h-48l178 153l115 -153h-39zM312 500c127 0 173 -84 173 -173c0 -29 -6 -66 -16 -93h-370c-4 -20 -6 -37 -6 -55c0 -89 50 -141 137 -141c65 0 110 18 167 68l30 -34c-67 -57 -124 -79 -200 -79
c-121 0 -182 76 -182 187c0 163 111 320 267 320zM431 274c6 19 9 41 9 59c0 63 -36 122 -131 122c-99 0 -175 -77 -202 -181h324z" />
    <glyph glyph-name="uni1EC7" unicode="&#x1ec7;" horiz-adv-x="523" 
d="M347 658l-124 -107h-48l178 153l115 -153h-39zM469 234h-370c-4 -20 -6 -37 -6 -55c0 -89 50 -141 137 -141c65 0 110 18 167 68l30 -34c-67 -57 -124 -79 -200 -79c-121 0 -182 76 -182 187c0 163 111 320 267 320c127 0 173 -84 173 -173c0 -29 -6 -66 -16 -93z
M309 455c-99 0 -175 -77 -202 -181h324c6 19 9 41 9 59c0 63 -36 122 -131 122zM165 -173l19 97h52l-20 -97h-51z" />
    <glyph glyph-name="uni1EC1" unicode="&#x1ec1;" horiz-adv-x="523" 
d="M385 756h-41l-148 140h55zM347 658l-124 -107h-48l178 153l115 -153h-39zM469 234h-370c-4 -20 -6 -37 -6 -55c0 -89 50 -141 137 -141c65 0 110 18 167 68l30 -34c-67 -57 -124 -79 -200 -79c-121 0 -182 76 -182 187c0 163 111 320 267 320c127 0 173 -84 173 -173
c0 -29 -6 -66 -16 -93zM309 455c-99 0 -175 -77 -202 -181h324c6 19 9 41 9 59c0 63 -36 122 -131 122z" />
    <glyph glyph-name="uni1EC3" unicode="&#x1ec3;" horiz-adv-x="523" 
d="M452 834c0 38 -41 53 -88 53h-16l6 30h13c68 0 118 -29 118 -81c0 -73 -60 -92 -129 -105l-5 31c51 10 101 21 101 72zM347 658l-124 -107h-48l178 153l115 -153h-39zM312 500c127 0 173 -84 173 -173c0 -29 -6 -66 -16 -93h-370c-4 -20 -6 -37 -6 -55
c0 -89 50 -141 137 -141c65 0 110 18 167 68l30 -34c-67 -57 -124 -79 -200 -79c-121 0 -182 76 -182 187c0 163 111 320 267 320zM431 274c6 19 9 41 9 59c0 63 -36 122 -131 122c-99 0 -175 -77 -202 -181h324z" />
    <glyph glyph-name="uni1EC5" unicode="&#x1ec5;" horiz-adv-x="523" 
d="M512 896h35c-14 -75 -55 -121 -105 -121c-85 0 -64 93 -123 93c-37 0 -60 -35 -69 -83h-35c14 75 55 115 108 115c79 0 60 -92 120 -92c32 0 60 36 69 88zM429 551l-82 107l-124 -107h-48l178 153l115 -153h-39zM312 500c127 0 173 -84 173 -173c0 -29 -6 -66 -16 -93
h-370c-4 -20 -6 -37 -6 -55c0 -89 50 -141 137 -141c65 0 110 18 167 68l30 -34c-67 -57 -124 -79 -200 -79c-121 0 -182 76 -182 187c0 163 111 320 267 320zM431 274c6 19 9 41 9 59c0 63 -36 122 -131 122c-99 0 -175 -77 -202 -181h324z" />
    <glyph glyph-name="edieresis" unicode="&#xeb;" horiz-adv-x="523" 
d="M288 697l-20 -98h-42l19 98h43zM462 697l-19 -98h-42l19 98h42zM469 234h-370c-4 -20 -6 -37 -6 -55c0 -89 50 -141 137 -141c65 0 110 18 167 68l30 -34c-67 -57 -124 -79 -200 -79c-121 0 -182 76 -182 187c0 163 111 320 267 320c127 0 173 -84 173 -173
c0 -29 -6 -66 -16 -93zM309 455c-99 0 -175 -77 -202 -181h324c6 19 9 41 9 59c0 63 -36 122 -131 122z" />
    <glyph glyph-name="edotaccent" unicode="&#x117;" horiz-adv-x="523" 
d="M379 697l-19 -98h-51l19 98h51zM469 234h-370c-4 -20 -6 -37 -6 -55c0 -89 50 -141 137 -141c65 0 110 18 167 68l30 -34c-67 -57 -124 -79 -200 -79c-121 0 -182 76 -182 187c0 163 111 320 267 320c127 0 173 -84 173 -173c0 -29 -6 -66 -16 -93zM309 455
c-99 0 -175 -77 -202 -181h324c6 19 9 41 9 59c0 63 -36 122 -131 122z" />
    <glyph glyph-name="uni1EB9" unicode="&#x1eb9;" horiz-adv-x="523" 
d="M469 234h-370c-4 -20 -6 -37 -6 -55c0 -89 50 -141 137 -141c65 0 110 18 167 68l30 -34c-67 -57 -124 -79 -200 -79c-121 0 -182 76 -182 187c0 163 111 320 267 320c127 0 173 -84 173 -173c0 -29 -6 -66 -16 -93zM309 455c-99 0 -175 -77 -202 -181h324
c6 19 9 41 9 59c0 63 -36 122 -131 122zM165 -173l19 97h52l-20 -97h-51z" />
    <glyph glyph-name="egrave" unicode="&#xe8;" horiz-adv-x="523" 
d="M346 557h-41l-148 140h55zM469 234h-370c-4 -20 -6 -37 -6 -55c0 -89 50 -141 137 -141c65 0 110 18 167 68l30 -34c-67 -57 -124 -79 -200 -79c-121 0 -182 76 -182 187c0 163 111 320 267 320c127 0 173 -84 173 -173c0 -29 -6 -66 -16 -93zM309 455
c-99 0 -175 -77 -202 -181h324c6 19 9 41 9 59c0 63 -36 122 -131 122z" />
    <glyph glyph-name="uni1EBB" unicode="&#x1ebb;" horiz-adv-x="523" 
d="M413 635c0 38 -41 53 -88 53h-16l6 30h13c68 0 118 -29 118 -81c0 -73 -60 -92 -129 -105l-5 31c51 10 101 21 101 72zM469 234h-370c-4 -20 -6 -37 -6 -55c0 -89 50 -141 137 -141c65 0 110 18 167 68l30 -34c-67 -57 -124 -79 -200 -79c-121 0 -182 76 -182 187
c0 163 111 320 267 320c127 0 173 -84 173 -173c0 -29 -6 -66 -16 -93zM309 455c-99 0 -175 -77 -202 -181h324c6 19 9 41 9 59c0 63 -36 122 -131 122z" />
    <glyph glyph-name="emacron" unicode="&#x113;" horiz-adv-x="523" 
d="M477 643l-7 -31h-268l6 31h269zM469 234h-370c-4 -20 -6 -37 -6 -55c0 -89 50 -141 137 -141c65 0 110 18 167 68l30 -34c-67 -57 -124 -79 -200 -79c-121 0 -182 76 -182 187c0 163 111 320 267 320c127 0 173 -84 173 -173c0 -29 -6 -66 -16 -93zM309 455
c-99 0 -175 -77 -202 -181h324c6 19 9 41 9 59c0 63 -36 122 -131 122z" />
    <glyph glyph-name="eogonek" unicode="&#x119;" horiz-adv-x="523" 
d="M469 234h-370c-4 -20 -6 -37 -6 -55c0 -89 50 -141 137 -141c65 0 110 18 167 68l30 -34c-41 -35 -78 -57 -119 -68c-72 -38 -110 -84 -116 -125c-4 -30 14 -46 42 -46c18 0 43 9 64 26l21 -24c-29 -25 -62 -38 -93 -38c-45 0 -75 26 -70 73c6 48 44 93 88 123h-17
c-121 0 -182 76 -182 187c0 163 111 320 267 320c127 0 173 -84 173 -173c0 -29 -6 -66 -16 -93zM309 455c-99 0 -175 -77 -202 -181h324c6 19 9 41 9 59c0 63 -36 122 -131 122z" />
    <glyph glyph-name="uni1EBD" unicode="&#x1ebd;" horiz-adv-x="523" 
d="M280 669c-37 0 -60 -35 -69 -83h-35c14 75 55 115 108 115c79 0 60 -92 120 -92c32 0 60 36 69 88h35c-14 -75 -55 -121 -105 -121c-85 0 -64 93 -123 93zM312 500c127 0 173 -84 173 -173c0 -29 -6 -66 -16 -93h-370c-4 -20 -6 -37 -6 -55c0 -89 50 -141 137 -141
c65 0 110 18 167 68l30 -34c-67 -57 -124 -79 -200 -79c-121 0 -182 76 -182 187c0 163 111 320 267 320zM431 274c6 19 9 41 9 59c0 63 -36 122 -131 122c-99 0 -175 -77 -202 -181h324z" />
    <glyph glyph-name="f" unicode="f" horiz-adv-x="342" 
d="M77 0l88 454h-108l8 39h108l15 78c19 92 71 133 155 133c27 0 49 -8 68 -19l-22 -37c-15 10 -30 14 -45 14c-68 0 -97 -42 -108 -95l-15 -74h153l-8 -39h-152l-89 -454h-48z" />
    <glyph glyph-name="g" unicode="g" horiz-adv-x="507" 
d="M144 194c-35 -16 -59 -39 -59 -72c0 -111 319 -27 319 -186c0 -99 -106 -147 -231 -147c-116 0 -190 41 -190 122c0 16 3 35 8 52l104 74c-35 14 -59 38 -59 78c0 49 33 84 77 108c-17 22 -26 50 -26 81c0 107 97 196 215 196c51 0 92 -16 119 -45l77 59l21 -33l-77 -57
c9 -18 14 -40 14 -63c0 -111 -97 -194 -211 -194c-40 0 -75 10 -101 27zM301 458c-92 0 -165 -73 -165 -153c0 -58 41 -97 109 -97c91 0 163 68 163 152c0 60 -41 98 -107 98zM355 -71c0 77 -131 71 -225 96l-93 -76c-3 -11 -5 -27 -5 -34c0 -61 60 -84 143 -84
c97 0 180 31 180 98z" />
    <glyph glyph-name="gbreve" unicode="&#x11f;" horiz-adv-x="507" 
d="M306 567c-93 0 -141 48 -125 130h36c-12 -65 22 -97 94 -97c79 0 118 35 130 97h37c-17 -86 -75 -130 -172 -130zM144 194c-35 -16 -59 -39 -59 -72c0 -111 319 -27 319 -186c0 -99 -106 -147 -231 -147c-116 0 -190 41 -190 122c0 16 3 35 8 52l104 74
c-35 14 -59 38 -59 78c0 49 33 84 77 108c-17 22 -26 50 -26 81c0 107 97 196 215 196c51 0 92 -16 119 -45l77 59l21 -33l-77 -57c9 -18 14 -40 14 -63c0 -111 -97 -194 -211 -194c-40 0 -75 10 -101 27zM301 458c-92 0 -165 -73 -165 -153c0 -58 41 -97 109 -97
c91 0 163 68 163 152c0 60 -41 98 -107 98zM355 -71c0 77 -131 71 -225 96l-93 -76c-3 -11 -5 -27 -5 -34c0 -61 60 -84 143 -84c97 0 180 31 180 98z" />
    <glyph glyph-name="uni0123" unicode="&#x123;" horiz-adv-x="507" 
d="M416 700l-124 -144h-54l143 144h35zM144 194c-35 -16 -59 -39 -59 -72c0 -111 319 -27 319 -186c0 -99 -106 -147 -231 -147c-116 0 -190 41 -190 122c0 16 3 35 8 52l104 74c-35 14 -59 38 -59 78c0 49 33 84 77 108c-17 22 -26 50 -26 81c0 107 97 196 215 196
c51 0 92 -16 119 -45l77 59l21 -33l-77 -57c9 -18 14 -40 14 -63c0 -111 -97 -194 -211 -194c-40 0 -75 10 -101 27zM301 458c-92 0 -165 -73 -165 -153c0 -58 41 -97 109 -97c91 0 163 68 163 152c0 60 -41 98 -107 98zM355 -71c0 77 -131 71 -225 96l-93 -76
c-3 -11 -5 -27 -5 -34c0 -61 60 -84 143 -84c97 0 180 31 180 98z" />
    <glyph glyph-name="gdotaccent" unicode="&#x121;" horiz-adv-x="507" 
d="M367 697l-19 -98h-51l19 98h51zM144 194c-35 -16 -59 -39 -59 -72c0 -111 319 -27 319 -186c0 -99 -106 -147 -231 -147c-116 0 -190 41 -190 122c0 16 3 35 8 52l104 74c-35 14 -59 38 -59 78c0 49 33 84 77 108c-17 22 -26 50 -26 81c0 107 97 196 215 196
c51 0 92 -16 119 -45l77 59l21 -33l-77 -57c9 -18 14 -40 14 -63c0 -111 -97 -194 -211 -194c-40 0 -75 10 -101 27zM301 458c-92 0 -165 -73 -165 -153c0 -58 41 -97 109 -97c91 0 163 68 163 152c0 60 -41 98 -107 98zM355 -71c0 77 -131 71 -225 96l-93 -76
c-3 -11 -5 -27 -5 -34c0 -61 60 -84 143 -84c97 0 180 31 180 98z" />
    <glyph glyph-name="h" unicode="h" horiz-adv-x="543" 
d="M342 500c109 0 158 -73 133 -202l-58 -298h-49l57 293c14 75 13 163 -94 163s-168 -86 -193 -218l-46 -238h-49l136 697h49l-55 -280c44 59 108 83 169 83z" />
    <glyph glyph-name="hbar" unicode="&#x127;" horiz-adv-x="543" 
d="M342 500c109 0 158 -73 133 -202l-58 -298h-49l57 293c14 75 13 163 -94 163s-168 -86 -193 -218l-46 -238h-49l115 591h-39l7 34h39l14 72h49l-14 -72h162l-7 -34h-162l-34 -174c44 59 108 83 169 83z" />
    <glyph glyph-name="i" unicode="i" horiz-adv-x="231" 
d="M159 599l19 98h51l-19 -98h-51zM43 0l96 493h49l-96 -493h-49z" />
    <glyph glyph-name="dotlessi" unicode="&#x131;" horiz-adv-x="231" 
d="M43 0l96 493h49l-96 -493h-49z" />
    <glyph glyph-name="iacute" unicode="&#xed;" horiz-adv-x="231" 
d="M156 557l133 140h55l-148 -140h-40zM43 0l96 493h49l-96 -493h-49z" />
    <glyph glyph-name="uni01D0" unicode="&#x1d0;" horiz-adv-x="231" 
d="M172 545l-117 152h40l81 -107l125 107h47zM43 0l96 493h49l-96 -493h-49z" />
    <glyph glyph-name="icircumflex" unicode="&#xee;" horiz-adv-x="231" 
d="M24 551l178 153l115 -153h-39l-82 107l-124 -107h-48zM43 0l96 493h49l-96 -493h-49z" />
    <glyph glyph-name="idieresis" unicode="&#xef;" horiz-adv-x="231" 
d="M75 599l19 98h43l-20 -98h-42zM250 599l19 98h42l-19 -98h-42zM43 0l96 493h49l-96 -493h-49z" />
    <glyph glyph-name="i.loclTRK" horiz-adv-x="231" 
d="M159 599l19 98h51l-19 -98h-51zM43 0l96 493h49l-96 -493h-49z" />
    <glyph glyph-name="uni1ECB" unicode="&#x1ecb;" horiz-adv-x="231" 
d="M159 599l19 98h51l-19 -98h-51zM43 0l96 493h49l-96 -493h-49zM8 -173l19 97h52l-20 -97h-51z" />
    <glyph glyph-name="igrave" unicode="&#xec;" horiz-adv-x="231" 
d="M155 557l-148 140h55l134 -140h-41zM43 0l96 493h49l-96 -493h-49z" />
    <glyph glyph-name="uni1EC9" unicode="&#x1ec9;" horiz-adv-x="231" 
d="M167 532l-5 31c51 10 101 21 101 72c0 38 -41 53 -88 53h-16l6 30h13c68 0 118 -29 118 -81c0 -73 -60 -92 -129 -105zM43 0l96 493h49l-96 -493h-49z" />
    <glyph glyph-name="imacron" unicode="&#x12b;" horiz-adv-x="231" 
d="M52 612l6 31h269l-7 -31h-268zM43 0l96 493h49l-96 -493h-49z" />
    <glyph glyph-name="iogonek" unicode="&#x12f;" horiz-adv-x="231" 
d="M178 697h51l-19 -98h-51zM92 0c-77 -38 -117 -86 -123 -128c-4 -30 14 -46 42 -46c18 0 43 9 64 26l21 -24c-29 -25 -62 -38 -93 -38c-45 0 -75 26 -70 73c7 55 57 108 110 137l96 493h49z" />
    <glyph glyph-name="itilde" unicode="&#x129;" horiz-adv-x="231" 
d="M253 576c-85 0 -64 93 -123 93c-37 0 -60 -35 -69 -83h-35c14 75 55 115 108 115c79 0 60 -92 120 -92c32 0 60 36 69 88h35c-14 -75 -55 -121 -105 -121zM43 0l96 493h49l-96 -493h-49z" />
    <glyph glyph-name="j" unicode="j" horiz-adv-x="231" 
d="M159 599l19 98h51l-19 -98h-51zM-33 -211c-19 0 -40 5 -63 14l6 39c18 -7 34 -9 46 -9c35 0 58 21 68 68l114 592h50l-117 -599c-14 -73 -52 -105 -104 -105z" />
    <glyph glyph-name="uni0237" unicode="&#x237;" horiz-adv-x="231" 
d="M-33 -211c-19 0 -40 5 -63 14l6 39c18 -7 34 -9 46 -9c35 0 58 21 68 68l114 592h50l-117 -599c-14 -73 -52 -105 -104 -105z" />
    <glyph glyph-name="k" unicode="k" horiz-adv-x="529" 
d="M43 0l136 697h49l-96 -488l327 284h67l-212 -183l147 -310h-58l-128 279l-154 -133l-29 -146h-49z" />
    <glyph glyph-name="uni0137" unicode="&#x137;" horiz-adv-x="529" 
d="M43 0l136 697h49l-96 -488l327 284h67l-212 -183l147 -310h-58l-128 279l-154 -133l-29 -146h-49zM81 -219l128 162h54l-147 -162h-35z" />
    <glyph glyph-name="kgreenlandic" unicode="&#x138;" horiz-adv-x="529" 
d="M43 0l96 493h49l-57 -286l330 286h65l-212 -183l147 -310h-58l-128 279l-154 -133l-29 -146h-49z" />
    <glyph glyph-name="l" unicode="l" horiz-adv-x="256" 
d="M126 -7c-55 0 -81 35 -67 109l116 595h49l-116 -596c-9 -46 3 -64 36 -64c15 0 32 3 52 10l-4 -42c-26 -8 -49 -12 -66 -12z" />
    <glyph glyph-name="lacute" unicode="&#x13a;" horiz-adv-x="256" 
d="M192 761l133 140h55l-148 -140h-40zM126 -7c-55 0 -81 35 -67 109l116 595h49l-116 -596c-9 -46 3 -64 36 -64c15 0 32 3 52 10l-4 -42c-26 -8 -49 -12 -66 -12z" />
    <glyph glyph-name="lcaron" unicode="&#x13e;" horiz-adv-x="256" 
d="M126 -7c-55 0 -81 35 -67 109l116 595h49l-116 -596c-9 -46 3 -64 36 -64c15 0 32 3 52 10l-4 -42c-26 -8 -49 -12 -66 -12zM244 495l98 202h53l-118 -202h-33z" />
    <glyph glyph-name="uni013C" unicode="&#x13c;" horiz-adv-x="256" 
d="M126 -7c-55 0 -81 35 -67 109l116 595h49l-116 -596c-9 -46 3 -64 36 -64c15 0 32 3 52 10l-4 -42c-26 -8 -49 -12 -66 -12zM-52 -219l128 162h54l-147 -162h-35z" />
    <glyph glyph-name="lslash" unicode="&#x142;" horiz-adv-x="256" 
d="M162 378l-54 -277c-9 -46 3 -64 36 -64c15 0 32 3 52 10l-4 -42c-26 -8 -49 -12 -66 -12c-55 0 -81 35 -67 109l46 237l-81 -56l9 52l82 56l60 306h49l-52 -267l107 73l-9 -50z" />
    <glyph glyph-name="m" unicode="m" horiz-adv-x="828" 
d="M633 500c96 0 133 -56 133 -137c0 -28 -4 -46 -8 -72l-56 -291h-50l55 281c5 23 8 50 8 74c0 57 -23 101 -93 101c-95 0 -153 -87 -176 -202l-49 -254h-50l56 290c5 22 8 45 8 65c0 64 -29 101 -93 101c-96 0 -153 -87 -176 -202l-49 -254h-50l95 493h48l-16 -77
c40 57 102 84 161 84c66 0 115 -32 123 -107c42 71 109 107 179 107z" />
    <glyph glyph-name="n" unicode="n" horiz-adv-x="543" 
d="M343 500c90 0 139 -49 139 -136c0 -27 -4 -51 -7 -66l-58 -298h-49l57 293c4 21 7 42 7 62c0 65 -31 101 -101 101c-106 0 -168 -86 -193 -218l-46 -238h-49l96 493h49l-15 -76c44 59 108 83 170 83z" />
    <glyph glyph-name="nacute" unicode="&#x144;" horiz-adv-x="543" 
d="M501 697l-148 -140h-40l133 140h55zM343 500c90 0 139 -49 139 -136c0 -27 -4 -51 -7 -66l-58 -298h-49l57 293c4 21 7 42 7 62c0 65 -31 101 -101 101c-106 0 -168 -86 -193 -218l-46 -238h-49l96 493h49l-15 -76c44 59 108 83 170 83z" />
    <glyph glyph-name="napostrophe" unicode="&#x149;" horiz-adv-x="665" 
d="M220 697h57l-190 -286h-36zM465 500c90 0 139 -49 139 -136c0 -27 -4 -51 -7 -66l-58 -298h-49l57 293c4 21 7 42 7 62c0 65 -31 101 -101 101c-106 0 -168 -86 -193 -218l-46 -238h-49l96 493h49l-15 -76c44 59 108 83 170 83z" />
    <glyph glyph-name="ncaron" unicode="&#x148;" horiz-adv-x="543" 
d="M505 697l-176 -152l-117 152h40l81 -107l125 107h47zM343 500c90 0 139 -49 139 -136c0 -27 -4 -51 -7 -66l-58 -298h-49l57 293c4 21 7 42 7 62c0 65 -31 101 -101 101c-106 0 -168 -86 -193 -218l-46 -238h-49l96 493h49l-15 -76c44 59 108 83 170 83z" />
    <glyph glyph-name="uni0146" unicode="&#x146;" horiz-adv-x="543" 
d="M343 500c90 0 139 -49 139 -136c0 -27 -4 -51 -7 -66l-58 -298h-49l57 293c4 21 7 42 7 62c0 65 -31 101 -101 101c-106 0 -168 -86 -193 -218l-46 -238h-49l96 493h49l-15 -76c44 59 108 83 170 83zM61 -219l128 162h54l-147 -162h-35z" />
    <glyph glyph-name="eng" unicode="&#x14b;" horiz-adv-x="545" 
d="M343 500c91 0 140 -50 140 -133c0 -26 -4 -46 -6 -58l-81 -415c-14 -73 -51 -105 -103 -105c-20 0 -41 5 -64 14l7 39c18 -7 33 -9 46 -9c34 0 57 21 66 68l78 399c3 17 7 38 7 56c0 63 -32 100 -103 100c-106 0 -166 -86 -189 -202l-49 -254h-49l96 493h49l-15 -75
c43 56 107 82 170 82z" />
    <glyph glyph-name="ntilde" unicode="&#xf1;" horiz-adv-x="543" 
d="M287 669c-37 0 -60 -35 -69 -83h-35c14 75 55 115 108 115c79 0 60 -92 120 -92c32 0 60 36 69 88h35c-14 -75 -55 -121 -105 -121c-85 0 -64 93 -123 93zM343 500c90 0 139 -49 139 -136c0 -27 -4 -51 -7 -66l-58 -298h-49l57 293c4 21 7 42 7 62c0 65 -31 101 -101 101
c-106 0 -168 -86 -193 -218l-46 -238h-49l96 493h49l-15 -76c44 59 108 83 170 83z" />
    <glyph glyph-name="o" unicode="o" horiz-adv-x="564" 
d="M235 -7c-118 0 -191 78 -191 196c0 162 122 311 284 311c118 0 192 -79 192 -195c0 -164 -124 -312 -285 -312zM238 37c139 0 234 131 234 268c0 91 -55 151 -147 151c-138 0 -232 -131 -232 -268c0 -92 54 -151 145 -151z" />
    <glyph glyph-name="oacute" unicode="&#xf3;" horiz-adv-x="564" 
d="M323 557l133 140h55l-148 -140h-40zM235 -7c-118 0 -191 78 -191 196c0 162 122 311 284 311c118 0 192 -79 192 -195c0 -164 -124 -312 -285 -312zM238 37c139 0 234 131 234 268c0 91 -55 151 -147 151c-138 0 -232 -131 -232 -268c0 -92 54 -151 145 -151z" />
    <glyph glyph-name="uni01D2" unicode="&#x1d2;" horiz-adv-x="564" 
d="M339 545l-117 152h40l81 -107l125 107h47zM235 -7c-118 0 -191 78 -191 196c0 162 122 311 284 311c118 0 192 -79 192 -195c0 -164 -124 -312 -285 -312zM238 37c139 0 234 131 234 268c0 91 -55 151 -147 151c-138 0 -232 -131 -232 -268c0 -92 54 -151 145 -151z" />
    <glyph glyph-name="ocircumflex" unicode="&#xf4;" horiz-adv-x="564" 
d="M191 551l178 153l115 -153h-39l-82 107l-124 -107h-48zM235 -7c-118 0 -191 78 -191 196c0 162 122 311 284 311c118 0 192 -79 192 -195c0 -164 -124 -312 -285 -312zM238 37c139 0 234 131 234 268c0 91 -55 151 -147 151c-138 0 -232 -131 -232 -268
c0 -92 54 -151 145 -151z" />
    <glyph glyph-name="uni1ED1" unicode="&#x1ed1;" horiz-adv-x="564" 
d="M362 756l133 140h55l-148 -140h-40zM191 551l178 153l115 -153h-39l-82 107l-124 -107h-48zM235 -7c-118 0 -191 78 -191 196c0 162 122 311 284 311c118 0 192 -79 192 -195c0 -164 -124 -312 -285 -312zM238 37c139 0 234 131 234 268c0 91 -55 151 -147 151
c-138 0 -232 -131 -232 -268c0 -92 54 -151 145 -151z" />
    <glyph glyph-name="uni1ED9" unicode="&#x1ed9;" horiz-adv-x="564" 
d="M191 551l178 153l115 -153h-39l-82 107l-124 -107h-48zM235 -7c-118 0 -191 78 -191 196c0 162 122 311 284 311c118 0 192 -79 192 -195c0 -164 -124 -312 -285 -312zM238 37c139 0 234 131 234 268c0 91 -55 151 -147 151c-138 0 -232 -131 -232 -268
c0 -92 54 -151 145 -151zM175 -173l19 97h52l-20 -97h-51z" />
    <glyph glyph-name="uni1ED3" unicode="&#x1ed3;" horiz-adv-x="564" 
d="M361 756l-148 140h55l134 -140h-41zM191 551l178 153l115 -153h-39l-82 107l-124 -107h-48zM235 -7c-118 0 -191 78 -191 196c0 162 122 311 284 311c118 0 192 -79 192 -195c0 -164 -124 -312 -285 -312zM238 37c139 0 234 131 234 268c0 91 -55 151 -147 151
c-138 0 -232 -131 -232 -268c0 -92 54 -151 145 -151z" />
    <glyph glyph-name="uni1ED5" unicode="&#x1ed5;" horiz-adv-x="564" 
d="M373 731l-5 31c51 10 101 21 101 72c0 38 -41 53 -88 53h-16l6 30h13c68 0 118 -29 118 -81c0 -73 -60 -92 -129 -105zM191 551l178 153l115 -153h-39l-82 107l-124 -107h-48zM235 -7c-118 0 -191 78 -191 196c0 162 122 311 284 311c118 0 192 -79 192 -195
c0 -164 -124 -312 -285 -312zM238 37c139 0 234 131 234 268c0 91 -55 151 -147 151c-138 0 -232 -131 -232 -268c0 -92 54 -151 145 -151z" />
    <glyph glyph-name="uni1ED7" unicode="&#x1ed7;" horiz-adv-x="564" 
d="M459 775c-85 0 -64 93 -123 93c-37 0 -60 -35 -69 -83h-35c14 75 55 115 108 115c79 0 60 -92 120 -92c32 0 60 36 69 88h35c-14 -75 -55 -121 -105 -121zM191 551l178 153l115 -153h-39l-82 107l-124 -107h-48zM235 -7c-118 0 -191 78 -191 196c0 162 122 311 284 311
c118 0 192 -79 192 -195c0 -164 -124 -312 -285 -312zM238 37c139 0 234 131 234 268c0 91 -55 151 -147 151c-138 0 -232 -131 -232 -268c0 -92 54 -151 145 -151z" />
    <glyph glyph-name="odieresis" unicode="&#xf6;" horiz-adv-x="564" 
d="M242 599l19 98h43l-20 -98h-42zM417 599l19 98h42l-19 -98h-42zM235 -7c-118 0 -191 78 -191 196c0 162 122 311 284 311c118 0 192 -79 192 -195c0 -164 -124 -312 -285 -312zM238 37c139 0 234 131 234 268c0 91 -55 151 -147 151c-138 0 -232 -131 -232 -268
c0 -92 54 -151 145 -151z" />
    <glyph glyph-name="uni1ECD" unicode="&#x1ecd;" horiz-adv-x="564" 
d="M235 -7c-118 0 -191 78 -191 196c0 162 122 311 284 311c118 0 192 -79 192 -195c0 -164 -124 -312 -285 -312zM238 37c139 0 234 131 234 268c0 91 -55 151 -147 151c-138 0 -232 -131 -232 -268c0 -92 54 -151 145 -151zM175 -173l19 97h52l-20 -97h-51z" />
    <glyph glyph-name="ograve" unicode="&#xf2;" horiz-adv-x="564" 
d="M322 557l-148 140h55l134 -140h-41zM235 -7c-118 0 -191 78 -191 196c0 162 122 311 284 311c118 0 192 -79 192 -195c0 -164 -124 -312 -285 -312zM238 37c139 0 234 131 234 268c0 91 -55 151 -147 151c-138 0 -232 -131 -232 -268c0 -92 54 -151 145 -151z" />
    <glyph glyph-name="uni1ECF" unicode="&#x1ecf;" horiz-adv-x="564" 
d="M334 532l-5 31c51 10 101 21 101 72c0 38 -41 53 -88 53h-16l6 30h13c68 0 118 -29 118 -81c0 -73 -60 -92 -129 -105zM235 -7c-118 0 -191 78 -191 196c0 162 122 311 284 311c118 0 192 -79 192 -195c0 -164 -124 -312 -285 -312zM238 37c139 0 234 131 234 268
c0 91 -55 151 -147 151c-138 0 -232 -131 -232 -268c0 -92 54 -151 145 -151z" />
    <glyph glyph-name="ohorn" unicode="&#x1a1;" horiz-adv-x="564" 
d="M612 576h39l-11 -53c-16 -82 -57 -134 -131 -144c7 -23 11 -47 11 -74c0 -164 -124 -312 -285 -312c-118 0 -191 78 -191 196c0 162 122 311 284 311c76 0 134 -33 166 -88c61 3 94 47 107 111zM238 37c139 0 234 131 234 268c0 91 -55 151 -147 151
c-138 0 -232 -131 -232 -268c0 -92 54 -151 145 -151z" />
    <glyph glyph-name="uni1EDB" unicode="&#x1edb;" horiz-adv-x="564" 
d="M511 697l-148 -140h-40l133 140h55zM612 576h39l-11 -53c-16 -82 -57 -134 -131 -144c7 -23 11 -47 11 -74c0 -164 -124 -312 -285 -312c-118 0 -191 78 -191 196c0 162 122 311 284 311c76 0 134 -33 166 -88c61 3 94 47 107 111zM238 37c139 0 234 131 234 268
c0 91 -55 151 -147 151c-138 0 -232 -131 -232 -268c0 -92 54 -151 145 -151z" />
    <glyph glyph-name="uni1EE3" unicode="&#x1ee3;" horiz-adv-x="564" 
d="M612 576h39l-11 -53c-16 -82 -57 -134 -131 -144c7 -23 11 -47 11 -74c0 -164 -124 -312 -285 -312c-118 0 -191 78 -191 196c0 162 122 311 284 311c76 0 134 -33 166 -88c61 3 94 47 107 111zM238 37c139 0 234 131 234 268c0 91 -55 151 -147 151
c-138 0 -232 -131 -232 -268c0 -92 54 -151 145 -151zM175 -173l19 97h52l-20 -97h-51z" />
    <glyph glyph-name="uni1EDD" unicode="&#x1edd;" horiz-adv-x="564" 
d="M363 557h-41l-148 140h55zM612 576h39l-11 -53c-16 -82 -57 -134 -131 -144c7 -23 11 -47 11 -74c0 -164 -124 -312 -285 -312c-118 0 -191 78 -191 196c0 162 122 311 284 311c76 0 134 -33 166 -88c61 3 94 47 107 111zM238 37c139 0 234 131 234 268
c0 91 -55 151 -147 151c-138 0 -232 -131 -232 -268c0 -92 54 -151 145 -151z" />
    <glyph glyph-name="uni1EDF" unicode="&#x1edf;" horiz-adv-x="564" 
d="M430 635c0 38 -41 53 -88 53h-16l6 30h13c68 0 118 -29 118 -81c0 -73 -60 -92 -129 -105l-5 31c51 10 101 21 101 72zM612 576h39l-11 -53c-16 -82 -57 -134 -131 -144c7 -23 11 -47 11 -74c0 -164 -124 -312 -285 -312c-118 0 -191 78 -191 196c0 162 122 311 284 311
c76 0 134 -33 166 -88c61 3 94 47 107 111zM238 37c139 0 234 131 234 268c0 91 -55 151 -147 151c-138 0 -232 -131 -232 -268c0 -92 54 -151 145 -151z" />
    <glyph glyph-name="uni1EE1" unicode="&#x1ee1;" horiz-adv-x="564" 
d="M297 669c-37 0 -60 -35 -69 -83h-35c14 75 55 115 108 115c79 0 60 -92 120 -92c32 0 60 36 69 88h35c-14 -75 -55 -121 -105 -121c-85 0 -64 93 -123 93zM612 576h39l-11 -53c-16 -82 -57 -134 -131 -144c7 -23 11 -47 11 -74c0 -164 -124 -312 -285 -312
c-118 0 -191 78 -191 196c0 162 122 311 284 311c76 0 134 -33 166 -88c61 3 94 47 107 111zM238 37c139 0 234 131 234 268c0 91 -55 151 -147 151c-138 0 -232 -131 -232 -268c0 -92 54 -151 145 -151z" />
    <glyph glyph-name="ohungarumlaut" unicode="&#x151;" horiz-adv-x="564" 
d="M240 549l135 148h55l-150 -148h-40zM402 549l135 148h55l-150 -148h-40zM235 -7c-118 0 -191 78 -191 196c0 162 122 311 284 311c118 0 192 -79 192 -195c0 -164 -124 -312 -285 -312zM238 37c139 0 234 131 234 268c0 91 -55 151 -147 151c-138 0 -232 -131 -232 -268
c0 -92 54 -151 145 -151z" />
    <glyph glyph-name="omacron" unicode="&#x14d;" horiz-adv-x="564" 
d="M219 612l6 31h269l-7 -31h-268zM235 -7c-118 0 -191 78 -191 196c0 162 122 311 284 311c118 0 192 -79 192 -195c0 -164 -124 -312 -285 -312zM238 37c139 0 234 131 234 268c0 91 -55 151 -147 151c-138 0 -232 -131 -232 -268c0 -92 54 -151 145 -151z" />
    <glyph glyph-name="oslash" unicode="&#xf8;" horiz-adv-x="564" 
d="M547 545l-80 -98c34 -34 53 -83 53 -142c0 -164 -124 -312 -285 -312c-46 0 -84 12 -115 33l-63 -77h-40l79 97c-33 34 -52 83 -52 143c0 162 122 311 284 311c45 0 84 -12 115 -33l64 78h40zM93 188c0 -43 12 -79 34 -105l286 348c-23 16 -53 25 -88 25
c-138 0 -232 -131 -232 -268zM472 305c0 43 -12 80 -35 106l-287 -349c23 -16 53 -25 88 -25c139 0 234 131 234 268z" />
    <glyph glyph-name="otilde" unicode="&#xf5;" horiz-adv-x="564" 
d="M420 576c-85 0 -64 93 -123 93c-37 0 -60 -35 -69 -83h-35c14 75 55 115 108 115c79 0 60 -92 120 -92c32 0 60 36 69 88h35c-14 -75 -55 -121 -105 -121zM235 -7c-118 0 -191 78 -191 196c0 162 122 311 284 311c118 0 192 -79 192 -195c0 -164 -124 -312 -285 -312z
M238 37c139 0 234 131 234 268c0 91 -55 151 -147 151c-138 0 -232 -131 -232 -268c0 -92 54 -151 145 -151z" />
    <glyph glyph-name="oe" unicode="&#x153;" horiz-adv-x="939" 
d="M235 -7c-118 0 -191 78 -191 196c0 162 122 311 284 311c101 0 167 -58 179 -156c43 88 121 156 222 156c126 0 172 -84 172 -173c0 -29 -6 -67 -15 -93h-371c-4 -21 -5 -40 -5 -55c0 -89 47 -141 137 -141c66 0 110 18 167 68l30 -34c-68 -57 -124 -79 -201 -79
c-103 0 -160 55 -171 155c-45 -90 -131 -155 -237 -155zM523 271h323c6 19 10 43 10 62c0 63 -35 125 -131 125c-99 0 -176 -81 -202 -187zM238 37c139 0 234 131 234 268c0 91 -55 151 -147 151c-137 0 -232 -131 -232 -268c0 -92 54 -151 145 -151z" />
    <glyph glyph-name="p" unicode="p" horiz-adv-x="592" 
d="M367 500c117 0 180 -78 180 -192c0 -159 -114 -315 -270 -315c-77 0 -137 39 -163 98l-58 -295h-54l137 697h53l-17 -85c46 58 118 92 192 92zM274 38c133 0 224 137 224 265c0 92 -49 151 -138 151c-125 0 -220 -117 -229 -245c-7 -101 47 -171 143 -171z" />
    <glyph glyph-name="thorn" unicode="&#xfe;" horiz-adv-x="592" 
d="M367 500c118 0 180 -78 180 -192c0 -159 -113 -315 -270 -315c-77 0 -137 39 -163 98l-58 -295h-54l176 901h54l-57 -290c45 58 118 93 192 93zM274 38c134 0 224 137 224 265c0 92 -49 151 -137 151c-125 0 -221 -117 -229 -245c-8 -101 47 -171 142 -171z" />
    <glyph glyph-name="q" unicode="q" horiz-adv-x="592" 
d="M495 493h54l-136 -697h-54l57 289c-46 -58 -118 -92 -192 -92c-117 0 -179 78 -179 191c0 159 113 316 269 316c78 0 138 -38 163 -98zM460 283c7 102 -47 172 -142 172c-134 0 -225 -137 -225 -266c0 -91 49 -150 138 -150c125 0 220 117 229 244z" />
    <glyph glyph-name="r" unicode="r" horiz-adv-x="386" 
d="M342 500c27 0 52 -5 76 -19l-31 -41c-13 7 -34 12 -57 12c-73 0 -161 -50 -187 -189l-51 -263h-49l96 493h49l-16 -83c45 68 117 90 170 90z" />
    <glyph glyph-name="racute" unicode="&#x155;" horiz-adv-x="386" 
d="M422 697l-148 -140h-40l133 140h55zM172 410c45 68 117 90 170 90c27 0 52 -5 76 -19l-31 -41c-13 7 -34 12 -57 12c-73 0 -161 -50 -187 -189l-51 -263h-49l96 493h49z" />
    <glyph glyph-name="rcaron" unicode="&#x159;" horiz-adv-x="386" 
d="M426 697l-176 -152l-117 152h40l81 -107l125 107h47zM172 410c45 68 117 90 170 90c27 0 52 -5 76 -19l-31 -41c-13 7 -34 12 -57 12c-73 0 -161 -50 -187 -189l-51 -263h-49l96 493h49z" />
    <glyph glyph-name="uni0157" unicode="&#x157;" horiz-adv-x="386" 
d="M342 500c27 0 52 -5 76 -19l-31 -41c-13 7 -34 12 -57 12c-73 0 -161 -50 -187 -189l-51 -263h-49l96 493h49l-16 -83c45 68 117 90 170 90zM-21 -219l128 162h54l-147 -162h-35z" />
    <glyph glyph-name="s" unicode="s" horiz-adv-x="457" 
d="M203 -7c-104 0 -175 54 -190 128l47 16c10 -57 57 -99 144 -99c76 0 138 32 138 108c0 110 -256 70 -256 212c0 86 76 142 175 142c84 0 143 -38 167 -102l-43 -20c-21 53 -62 77 -126 77c-71 0 -125 -34 -125 -92c0 -107 257 -67 257 -212c0 -105 -86 -158 -188 -158z
" />
    <glyph glyph-name="sacute" unicode="&#x15b;" horiz-adv-x="457" 
d="M270 557l133 140h55l-148 -140h-40zM203 -7c-104 0 -175 54 -190 128l47 16c10 -57 57 -99 144 -99c76 0 138 32 138 108c0 110 -256 70 -256 212c0 86 76 142 175 142c84 0 143 -38 167 -102l-43 -20c-21 53 -62 77 -126 77c-71 0 -125 -34 -125 -92
c0 -107 257 -67 257 -212c0 -105 -86 -158 -188 -158z" />
    <glyph glyph-name="scaron" unicode="&#x161;" horiz-adv-x="457" 
d="M286 545l-117 152h40l81 -107l125 107h47zM203 -7c-104 0 -175 54 -190 128l47 16c10 -57 57 -99 144 -99c76 0 138 32 138 108c0 110 -256 70 -256 212c0 86 76 142 175 142c84 0 143 -38 167 -102l-43 -20c-21 53 -62 77 -126 77c-71 0 -125 -34 -125 -92
c0 -107 257 -67 257 -212c0 -105 -86 -158 -188 -158z" />
    <glyph glyph-name="scedilla" unicode="&#x15f;" horiz-adv-x="457" 
d="M134 363c0 -107 257 -67 257 -212c0 -105 -86 -158 -188 -158h-10l-48 -64c59 -7 101 -35 101 -88c0 -59 -42 -94 -97 -94c-45 0 -81 21 -96 52l22 22c9 -27 37 -44 71 -44c40 0 67 24 67 61c0 52 -57 69 -118 69l66 89c-81 13 -135 61 -148 125l47 16
c10 -57 57 -99 144 -99c76 0 138 32 138 108c0 110 -256 70 -256 212c0 86 76 142 175 142c84 0 143 -38 167 -102l-43 -20c-21 53 -62 77 -126 77c-71 0 -125 -34 -125 -92z" />
    <glyph glyph-name="uni0219" unicode="&#x219;" horiz-adv-x="457" 
d="M203 -7c-104 0 -175 54 -190 128l47 16c10 -57 57 -99 144 -99c76 0 138 32 138 108c0 110 -256 70 -256 212c0 86 76 142 175 142c84 0 143 -38 167 -102l-43 -20c-21 53 -62 77 -126 77c-71 0 -125 -34 -125 -92c0 -107 257 -67 257 -212c0 -105 -86 -158 -188 -158z
M15 -219l128 162h54l-147 -162h-35z" />
    <glyph glyph-name="germandbls" unicode="&#xdf;" horiz-adv-x="617" 
d="M371 -7c-95 0 -169 54 -179 129l42 15c9 -57 61 -102 138 -102c87 0 144 52 144 119c0 118 -256 55 -256 198c0 182 260 110 260 231c0 46 -55 78 -129 78c-158 0 -191 -119 -208 -208l-89 -454h-51l89 458c22 113 72 250 262 250c106 0 175 -49 175 -117
c0 -162 -261 -94 -261 -236c0 -105 257 -42 257 -198c0 -96 -83 -163 -194 -163z" />
    <glyph glyph-name="t" unicode="t" horiz-adv-x="309" 
d="M194 454l-67 -345c-2 -12 -3 -22 -3 -30c0 -31 16 -44 47 -44c16 0 37 4 61 12l-4 -42c-26 -7 -51 -12 -71 -12c-50 0 -82 25 -82 78c0 12 1 26 4 38l67 345h-83l8 39h82l28 142l56 38l-35 -180h118l-8 -39h-118z" />
    <glyph glyph-name="tbar" unicode="&#x167;" horiz-adv-x="309" 
d="M312 454h-118l-37 -190h123l-7 -34h-122l-24 -121c-2 -12 -3 -22 -3 -30c0 -31 16 -44 47 -44c16 0 37 4 61 12l-4 -42c-26 -7 -51 -12 -71 -12c-50 0 -82 25 -82 78c0 12 1 26 4 38l23 121h-79l7 34h79l37 190h-83l8 39h82l28 142l56 38l-35 -180h118z" />
    <glyph glyph-name="tcaron" unicode="&#x165;" horiz-adv-x="309" 
d="M398 784h53l-118 -202h-33zM237 673l-35 -180h118l-8 -39h-118l-67 -345c-2 -12 -3 -22 -3 -30c0 -31 16 -44 47 -44c16 0 37 4 61 12l-4 -42c-26 -7 -51 -12 -71 -12c-50 0 -82 25 -82 78c0 12 1 26 4 38l67 345h-83l8 39h82l28 142z" />
    <glyph glyph-name="uni0163" unicode="&#x163;" horiz-adv-x="309" 
d="M194 454l-67 -345c-2 -12 -3 -22 -3 -30c0 -31 16 -44 47 -44c16 0 37 4 61 12l-4 -42c-26 -7 -51 -12 -71 -12h-8l-48 -64c59 -7 101 -35 101 -88c0 -59 -42 -94 -97 -94c-45 0 -81 21 -96 52l22 22c9 -27 37 -44 71 -44c40 0 67 24 67 61c0 52 -57 69 -118 69l68 92
c-28 10 -44 34 -44 72c0 12 1 26 4 38l67 345h-83l8 39h82l28 142l56 38l-35 -180h118l-8 -39h-118z" />
    <glyph glyph-name="uni021B" unicode="&#x21b;" horiz-adv-x="309" 
d="M194 454l-67 -345c-2 -12 -3 -22 -3 -30c0 -31 16 -44 47 -44c16 0 37 4 61 12l-4 -42c-26 -7 -51 -12 -71 -12c-50 0 -82 25 -82 78c0 12 1 26 4 38l67 345h-83l8 39h82l28 142l56 38l-35 -180h118l-8 -39h-118zM-29 -219l128 162h54l-147 -162h-35z" />
    <glyph glyph-name="u" unicode="u" horiz-adv-x="543" 
d="M451 493h49l-96 -493h-49l15 76c-44 -59 -108 -83 -170 -83c-90 0 -139 49 -139 136c0 27 5 51 8 66l57 298h50l-57 -293c-4 -21 -8 -42 -8 -62c0 -65 31 -101 102 -101c106 0 167 86 192 218z" />
    <glyph glyph-name="uacute" unicode="&#xfa;" horiz-adv-x="543" 
d="M493 697l-148 -140h-40l133 140h55zM451 493h49l-96 -493h-49l15 76c-44 -59 -108 -83 -170 -83c-90 0 -139 49 -139 136c0 27 5 51 8 66l57 298h50l-57 -293c-4 -21 -8 -42 -8 -62c0 -65 31 -101 102 -101c106 0 167 86 192 218z" />
    <glyph glyph-name="uni01D4" unicode="&#x1d4;" horiz-adv-x="543" 
d="M497 697l-176 -152l-117 152h40l81 -107l125 107h47zM451 493h49l-96 -493h-49l15 76c-44 -59 -108 -83 -170 -83c-90 0 -139 49 -139 136c0 27 5 51 8 66l57 298h50l-57 -293c-4 -21 -8 -42 -8 -62c0 -65 31 -101 102 -101c106 0 167 86 192 218z" />
    <glyph glyph-name="ucircumflex" unicode="&#xfb;" horiz-adv-x="543" 
d="M346 658l-124 -107h-48l178 153l115 -153h-39zM451 493h49l-96 -493h-49l15 76c-44 -59 -108 -83 -170 -83c-90 0 -139 49 -139 136c0 27 5 51 8 66l57 298h50l-57 -293c-4 -21 -8 -42 -8 -62c0 -65 31 -101 102 -101c106 0 167 86 192 218z" />
    <glyph glyph-name="udieresis" unicode="&#xfc;" horiz-adv-x="543" 
d="M287 697l-20 -98h-42l19 98h43zM461 697l-19 -98h-42l19 98h42zM451 493h49l-96 -493h-49l15 76c-44 -59 -108 -83 -170 -83c-90 0 -139 49 -139 136c0 27 5 51 8 66l57 298h50l-57 -293c-4 -21 -8 -42 -8 -62c0 -65 31 -101 102 -101c106 0 167 86 192 218z" />
    <glyph glyph-name="uni01D8" unicode="&#x1d8;" horiz-adv-x="543" 
d="M533 901l-148 -140h-40l133 140h55zM287 697l-20 -98h-42l19 98h43zM442 599h-42l19 98h42zM405 255l46 238h49l-96 -493h-49l15 76c-44 -59 -108 -83 -170 -83c-90 0 -139 49 -139 136c0 27 5 51 8 66l57 298h50l-57 -293c-4 -21 -8 -42 -8 -62c0 -65 31 -101 102 -101
c106 0 167 86 192 218z" />
    <glyph glyph-name="uni01DA" unicode="&#x1da;" horiz-adv-x="543" 
d="M537 901l-176 -152l-117 152h40l81 -107l125 107h47zM287 697l-20 -98h-42l19 98h43zM442 599h-42l19 98h42zM405 255l46 238h49l-96 -493h-49l15 76c-44 -59 -108 -83 -170 -83c-90 0 -139 49 -139 136c0 27 5 51 8 66l57 298h50l-57 -293c-4 -21 -8 -42 -8 -62
c0 -65 31 -101 102 -101c106 0 167 86 192 218z" />
    <glyph glyph-name="uni01DC" unicode="&#x1dc;" horiz-adv-x="543" 
d="M386 761h-41l-148 140h55zM267 599h-42l19 98h43zM461 697l-19 -98h-42l19 98h42zM451 493h49l-96 -493h-49l15 76c-44 -59 -108 -83 -170 -83c-90 0 -139 49 -139 136c0 27 5 51 8 66l57 298h50l-57 -293c-4 -21 -8 -42 -8 -62c0 -65 31 -101 102 -101
c106 0 167 86 192 218z" />
    <glyph glyph-name="uni01D6" unicode="&#x1d6;" horiz-adv-x="543" 
d="M247 847h269l-7 -31h-268zM244 697h43l-20 -98h-42zM461 697l-19 -98h-42l19 98h42zM405 255l46 238h49l-96 -493h-49l15 76c-44 -59 -108 -83 -170 -83c-90 0 -139 49 -139 136c0 27 5 51 8 66l57 298h50l-57 -293c-4 -21 -8 -42 -8 -62c0 -65 31 -101 102 -101
c106 0 167 86 192 218z" />
    <glyph glyph-name="uni1EE5" unicode="&#x1ee5;" horiz-adv-x="543" 
d="M451 493h49l-96 -493h-49l15 76c-44 -59 -108 -83 -170 -83c-90 0 -139 49 -139 136c0 27 5 51 8 66l57 298h50l-57 -293c-4 -21 -8 -42 -8 -62c0 -65 31 -101 102 -101c106 0 167 86 192 218zM163 -173l19 97h52l-20 -97h-51z" />
    <glyph glyph-name="ugrave" unicode="&#xf9;" horiz-adv-x="543" 
d="M346 557h-41l-148 140h55zM451 493h49l-96 -493h-49l15 76c-44 -59 -108 -83 -170 -83c-90 0 -139 49 -139 136c0 27 5 51 8 66l57 298h50l-57 -293c-4 -21 -8 -42 -8 -62c0 -65 31 -101 102 -101c106 0 167 86 192 218z" />
    <glyph glyph-name="uni1EE7" unicode="&#x1ee7;" horiz-adv-x="543" 
d="M412 635c0 38 -41 53 -88 53h-16l6 30h13c68 0 118 -29 118 -81c0 -73 -60 -92 -129 -105l-5 31c51 10 101 21 101 72zM451 493h49l-96 -493h-49l15 76c-44 -59 -108 -83 -170 -83c-90 0 -139 49 -139 136c0 27 5 51 8 66l57 298h50l-57 -293c-4 -21 -8 -42 -8 -62
c0 -65 31 -101 102 -101c106 0 167 86 192 218z" />
    <glyph glyph-name="uhorn" unicode="&#x1b0;" horiz-adv-x="543" 
d="M590 657h39l-11 -53c-16 -80 -54 -131 -124 -143l-90 -461h-49l15 76c-44 -59 -108 -83 -170 -83c-90 0 -139 49 -139 136c0 27 5 51 8 66l57 298h50l-57 -293c-4 -21 -8 -42 -8 -62c0 -65 31 -101 102 -101c106 0 167 86 192 218l46 238h13c66 0 101 44 115 111z" />
    <glyph glyph-name="uni1EE9" unicode="&#x1ee9;" horiz-adv-x="543" 
d="M493 697l-148 -140h-40l133 140h55zM590 657h39l-11 -53c-16 -80 -54 -131 -124 -143l-90 -461h-49l15 76c-44 -59 -108 -83 -170 -83c-90 0 -139 49 -139 136c0 27 5 51 8 66l57 298h50l-57 -293c-4 -21 -8 -42 -8 -62c0 -65 31 -101 102 -101c106 0 167 86 192 218
l46 238h13c66 0 101 44 115 111z" />
    <glyph glyph-name="uni1EF1" unicode="&#x1ef1;" horiz-adv-x="543" 
d="M590 657h39l-11 -53c-16 -80 -54 -131 -124 -143l-90 -461h-49l15 76c-44 -59 -108 -83 -170 -83c-90 0 -139 49 -139 136c0 27 5 51 8 66l57 298h50l-57 -293c-4 -21 -8 -42 -8 -62c0 -65 31 -101 102 -101c106 0 167 86 192 218l46 238h13c66 0 101 44 115 111z
M163 -173l19 97h52l-20 -97h-51z" />
    <glyph glyph-name="uni1EEB" unicode="&#x1eeb;" horiz-adv-x="543" 
d="M346 557h-41l-148 140h55zM590 657h39l-11 -53c-16 -80 -54 -131 -124 -143l-90 -461h-49l15 76c-44 -59 -108 -83 -170 -83c-90 0 -139 49 -139 136c0 27 5 51 8 66l57 298h50l-57 -293c-4 -21 -8 -42 -8 -62c0 -65 31 -101 102 -101c106 0 167 86 192 218l46 238h13
c66 0 101 44 115 111z" />
    <glyph glyph-name="uni1EED" unicode="&#x1eed;" horiz-adv-x="543" 
d="M412 635c0 38 -41 53 -88 53h-16l6 30h13c68 0 118 -29 118 -81c0 -73 -60 -92 -129 -105l-5 31c51 10 101 21 101 72zM590 657h39l-11 -53c-16 -80 -54 -131 -124 -143l-90 -461h-49l15 76c-44 -59 -108 -83 -170 -83c-90 0 -139 49 -139 136c0 27 5 51 8 66l57 298h50
l-57 -293c-4 -21 -8 -42 -8 -62c0 -65 31 -101 102 -101c106 0 167 86 192 218l46 238h13c66 0 101 44 115 111z" />
    <glyph glyph-name="uni1EEF" unicode="&#x1eef;" horiz-adv-x="543" 
d="M279 669c-37 0 -60 -35 -69 -83h-35c14 75 55 115 108 115c79 0 60 -92 120 -92c32 0 60 36 69 88h35c-14 -75 -55 -121 -105 -121c-85 0 -64 93 -123 93zM590 657h39l-11 -53c-16 -80 -54 -131 -124 -143l-90 -461h-49l15 76c-44 -59 -108 -83 -170 -83
c-90 0 -139 49 -139 136c0 27 5 51 8 66l57 298h50l-57 -293c-4 -21 -8 -42 -8 -62c0 -65 31 -101 102 -101c106 0 167 86 192 218l46 238h13c66 0 101 44 115 111z" />
    <glyph glyph-name="uhungarumlaut" unicode="&#x171;" horiz-adv-x="543" 
d="M413 697l-150 -148h-40l135 148h55zM425 549h-40l135 148h55zM405 255l46 238h49l-96 -493h-49l15 76c-44 -59 -108 -83 -170 -83c-90 0 -139 49 -139 136c0 27 5 51 8 66l57 298h50l-57 -293c-4 -21 -8 -42 -8 -62c0 -65 31 -101 102 -101c106 0 167 86 192 218z" />
    <glyph glyph-name="umacron" unicode="&#x16b;" horiz-adv-x="543" 
d="M476 643l-7 -31h-268l6 31h269zM451 493h49l-96 -493h-49l15 76c-44 -59 -108 -83 -170 -83c-90 0 -139 49 -139 136c0 27 5 51 8 66l57 298h50l-57 -293c-4 -21 -8 -42 -8 -62c0 -65 31 -101 102 -101c106 0 167 86 192 218z" />
    <glyph glyph-name="uogonek" unicode="&#x173;" horiz-adv-x="543" 
d="M323 -174c18 0 43 9 64 26l21 -24c-29 -25 -62 -38 -93 -38c-45 0 -75 26 -70 73c7 55 57 108 110 137l15 76c-44 -59 -108 -83 -170 -83c-90 0 -139 49 -139 136c0 27 5 51 8 66l57 298h50l-57 -293c-4 -21 -8 -42 -8 -62c0 -65 31 -101 102 -101c106 0 167 86 192 218
l46 238h49l-96 -493c-77 -38 -117 -86 -123 -128c-4 -30 14 -46 42 -46z" />
    <glyph glyph-name="uring" unicode="&#x16f;" horiz-adv-x="543" 
d="M325 544c-52 0 -85 42 -75 94c10 49 56 87 106 87c49 0 84 -43 74 -95c-10 -50 -58 -86 -105 -86zM281 636c-6 -34 13 -61 48 -61c32 0 64 26 70 59c7 33 -15 59 -47 59c-33 0 -64 -25 -71 -57zM451 493h49l-96 -493h-49l15 76c-44 -59 -108 -83 -170 -83
c-90 0 -139 49 -139 136c0 27 5 51 8 66l57 298h50l-57 -293c-4 -21 -8 -42 -8 -62c0 -65 31 -101 102 -101c106 0 167 86 192 218z" />
    <glyph glyph-name="utilde" unicode="&#x169;" horiz-adv-x="543" 
d="M279 669c-37 0 -60 -35 -69 -83h-35c14 75 55 115 108 115c79 0 60 -92 120 -92c32 0 60 36 69 88h35c-14 -75 -55 -121 -105 -121c-85 0 -64 93 -123 93zM405 255l46 238h49l-96 -493h-49l15 76c-44 -59 -108 -83 -170 -83c-90 0 -139 49 -139 136c0 27 5 51 8 66
l57 298h50l-57 -293c-4 -21 -8 -42 -8 -62c0 -65 31 -101 102 -101c106 0 167 86 192 218z" />
    <glyph glyph-name="v" unicode="v" horiz-adv-x="490" 
d="M175 0l-105 493h53l85 -431l253 431h56l-298 -493h-44z" />
    <glyph glyph-name="w" unicode="w" horiz-adv-x="731" 
d="M695 493h53l-237 -493h-49l-61 426l-229 -426h-48l-46 493h53l32 -421l226 421h47l62 -419z" />
    <glyph glyph-name="wacute" unicode="&#x1e83;" horiz-adv-x="731" 
d="M593 697l-148 -140h-40l133 140h55zM695 493h53l-237 -493h-49l-61 426l-229 -426h-48l-46 493h53l32 -421l226 421h47l62 -419z" />
    <glyph glyph-name="wcircumflex" unicode="&#x175;" horiz-adv-x="731" 
d="M446 658l-124 -107h-48l178 153l115 -153h-39zM695 493h53l-237 -493h-49l-61 426l-229 -426h-48l-46 493h53l32 -421l226 421h47l62 -419z" />
    <glyph glyph-name="wdieresis" unicode="&#x1e85;" horiz-adv-x="731" 
d="M387 697l-20 -98h-42l19 98h43zM561 697l-19 -98h-42l19 98h42zM695 493h53l-237 -493h-49l-61 426l-229 -426h-48l-46 493h53l32 -421l226 421h47l62 -419z" />
    <glyph glyph-name="wgrave" unicode="&#x1e81;" horiz-adv-x="731" 
d="M446 557h-41l-148 140h55zM695 493h53l-237 -493h-49l-61 426l-229 -426h-48l-46 493h53l32 -421l226 421h47l62 -419z" />
    <glyph glyph-name="x" unicode="x" horiz-adv-x="487" 
d="M-22 0l233 248l-135 245h58l114 -211l199 211h61l-234 -248l136 -245h-58l-115 213l-197 -213h-62z" />
    <glyph glyph-name="y" unicode="y" horiz-adv-x="497" 
d="M467 493h55l-400 -697h-55l120 209l-119 488h53l101 -426z" />
    <glyph glyph-name="yacute" unicode="&#xfd;" horiz-adv-x="497" 
d="M476 697l-148 -140h-40l133 140h55zM467 493h55l-400 -697h-55l120 209l-119 488h53l101 -426z" />
    <glyph glyph-name="ycircumflex" unicode="&#x177;" horiz-adv-x="497" 
d="M329 658l-124 -107h-48l178 153l115 -153h-39zM467 493h55l-400 -697h-55l120 209l-119 488h53l101 -426z" />
    <glyph glyph-name="ydieresis" unicode="&#xff;" horiz-adv-x="497" 
d="M270 697l-20 -98h-42l19 98h43zM444 697l-19 -98h-42l19 98h42zM467 493h55l-400 -697h-55l120 209l-119 488h53l101 -426z" />
    <glyph glyph-name="uni1EF5" unicode="&#x1ef5;" horiz-adv-x="497" 
d="M467 493h55l-400 -697h-55l120 209l-119 488h53l101 -426zM286 -204l19 97h52l-20 -97h-51z" />
    <glyph glyph-name="ygrave" unicode="&#x1ef3;" horiz-adv-x="497" 
d="M328 557h-41l-148 140h55zM467 493h55l-400 -697h-55l120 209l-119 488h53l101 -426z" />
    <glyph glyph-name="uni1EF7" unicode="&#x1ef7;" horiz-adv-x="497" 
d="M395 635c0 38 -41 53 -88 53h-16l6 30h13c68 0 118 -29 118 -81c0 -73 -60 -92 -129 -105l-5 31c51 10 101 21 101 72zM467 493h55l-400 -697h-55l120 209l-119 488h53l101 -426z" />
    <glyph glyph-name="uni1EF9" unicode="&#x1ef9;" horiz-adv-x="497" 
d="M262 669c-37 0 -60 -35 -69 -83h-35c14 75 55 115 108 115c79 0 60 -92 120 -92c32 0 60 36 69 88h35c-14 -75 -55 -121 -105 -121c-85 0 -64 93 -123 93zM467 493h55l-400 -697h-55l120 209l-119 488h53l101 -426z" />
    <glyph glyph-name="z" unicode="z" horiz-adv-x="473" 
d="M484 493l-8 -43l-417 -407h334l-8 -43h-400l7 39l423 411h-325l9 43h385z" />
    <glyph glyph-name="zacute" unicode="&#x17a;" horiz-adv-x="473" 
d="M465 697l-148 -140h-40l133 140h55zM484 493l-8 -43l-417 -407h334l-8 -43h-400l7 39l423 411h-325l9 43h385z" />
    <glyph glyph-name="zcaron" unicode="&#x17e;" horiz-adv-x="473" 
d="M469 697l-176 -152l-117 152h40l81 -107l125 107h47zM484 493l-8 -43l-417 -407h334l-8 -43h-400l7 39l423 411h-325l9 43h385z" />
    <glyph glyph-name="zdotaccent" unicode="&#x17c;" horiz-adv-x="473" 
d="M350 697l-19 -98h-51l19 98h51zM484 493l-8 -43l-417 -407h334l-8 -43h-400l7 39l423 411h-325l9 43h385z" />
    <glyph glyph-name="g.ss01" horiz-adv-x="597" 
d="M204 -213c-113 0 -177 53 -200 130l43 24c15 -67 70 -110 160 -110c120 0 185 84 206 188l17 85c-45 -67 -121 -108 -200 -108c-118 0 -186 80 -186 196c0 156 121 308 276 308c82 0 143 -45 164 -112l21 105h49l-91 -470c-30 -154 -124 -236 -259 -236zM237 42
c123 0 220 114 228 242c8 101 -47 171 -142 171c-132 0 -230 -132 -230 -259c0 -92 54 -154 144 -154z" />
    <glyph glyph-name="gbreve.ss01" horiz-adv-x="597" 
d="M350 567c-93 0 -141 48 -125 130h36c-12 -65 22 -97 94 -97c79 0 118 35 130 97h37c-17 -86 -75 -130 -172 -130zM204 -213c-113 0 -177 53 -200 130l43 24c15 -67 70 -110 160 -110c120 0 185 84 206 188l17 85c-45 -67 -121 -108 -200 -108c-118 0 -186 80 -186 196
c0 156 121 308 276 308c82 0 143 -45 164 -112l21 105h49l-91 -470c-30 -154 -124 -236 -259 -236zM237 42c123 0 220 114 228 242c8 101 -47 171 -142 171c-132 0 -230 -132 -230 -259c0 -92 54 -154 144 -154z" />
    <glyph glyph-name="uni0123.ss01" horiz-adv-x="597" 
d="M282 556l143 144h35l-124 -144h-54zM204 -213c-113 0 -177 53 -200 130l43 24c15 -67 70 -110 160 -110c120 0 185 84 206 188l17 85c-45 -67 -121 -108 -200 -108c-118 0 -186 80 -186 196c0 156 121 308 276 308c82 0 143 -45 164 -112l21 105h49l-91 -470
c-30 -154 -124 -236 -259 -236zM237 42c123 0 220 114 228 242c8 101 -47 171 -142 171c-132 0 -230 -132 -230 -259c0 -92 54 -154 144 -154z" />
    <glyph glyph-name="gdotaccent.ss01" horiz-adv-x="597" 
d="M341 599l19 98h51l-19 -98h-51zM204 -213c-113 0 -177 53 -200 130l43 24c15 -67 70 -110 160 -110c120 0 185 84 206 188l17 85c-45 -67 -121 -108 -200 -108c-118 0 -186 80 -186 196c0 156 121 308 276 308c82 0 143 -45 164 -112l21 105h49l-91 -470
c-30 -154 -124 -236 -259 -236zM237 42c123 0 220 114 228 242c8 101 -47 171 -142 171c-132 0 -230 -132 -230 -259c0 -92 54 -154 144 -154z" />
    <glyph glyph-name="g.ss02" horiz-adv-x="517" 
d="M139 199c-32 -23 -53 -51 -53 -83c0 -39 45 -50 101 -50h108c82 0 126 -39 126 -102c0 -116 -104 -177 -246 -177c-118 0 -191 44 -191 129c0 15 6 47 13 60l84 64c-25 14 -42 37 -42 70c0 45 28 86 73 116c-14 21 -22 47 -22 76c0 111 98 198 213 198
c53 0 94 -18 120 -49l89 68l20 -32l-90 -69c6 -16 10 -35 10 -55c0 -114 -97 -195 -209 -195c-43 0 -78 11 -104 31zM301 459c-91 0 -163 -74 -163 -157c0 -55 40 -93 108 -93c89 0 158 69 158 155c0 57 -39 95 -103 95zM279 24h-128c-11 0 -22 1 -33 3l-81 -66
c-4 -18 -6 -28 -6 -39c0 -62 50 -93 145 -93c115 0 198 43 198 132c0 40 -31 63 -95 63z" />
    <glyph glyph-name="gbreve.ss02" horiz-adv-x="517" 
d="M312 567c-93 0 -141 48 -125 130h36c-12 -65 22 -97 94 -97c79 0 118 35 130 97h37c-17 -86 -75 -130 -172 -130zM139 199c-32 -23 -53 -51 -53 -83c0 -39 45 -50 101 -50h108c82 0 126 -39 126 -102c0 -116 -104 -177 -246 -177c-118 0 -191 44 -191 129
c0 15 6 47 13 60l84 64c-25 14 -42 37 -42 70c0 45 28 86 73 116c-14 21 -22 47 -22 76c0 111 98 198 213 198c53 0 94 -18 120 -49l89 68l20 -32l-90 -69c6 -16 10 -35 10 -55c0 -114 -97 -195 -209 -195c-43 0 -78 11 -104 31zM301 459c-91 0 -163 -74 -163 -157
c0 -55 40 -93 108 -93c89 0 158 69 158 155c0 57 -39 95 -103 95zM279 24h-128c-11 0 -22 1 -33 3l-81 -66c-4 -18 -6 -28 -6 -39c0 -62 50 -93 145 -93c115 0 198 43 198 132c0 40 -31 63 -95 63z" />
    <glyph glyph-name="uni0123.ss02" horiz-adv-x="517" 
d="M422 700l-124 -144h-54l143 144h35zM139 199c-32 -23 -53 -51 -53 -83c0 -39 45 -50 101 -50h108c82 0 126 -39 126 -102c0 -116 -104 -177 -246 -177c-118 0 -191 44 -191 129c0 15 6 47 13 60l84 64c-25 14 -42 37 -42 70c0 45 28 86 73 116c-14 21 -22 47 -22 76
c0 111 98 198 213 198c53 0 94 -18 120 -49l89 68l20 -32l-90 -69c6 -16 10 -35 10 -55c0 -114 -97 -195 -209 -195c-43 0 -78 11 -104 31zM301 459c-91 0 -163 -74 -163 -157c0 -55 40 -93 108 -93c89 0 158 69 158 155c0 57 -39 95 -103 95zM279 24h-128
c-11 0 -22 1 -33 3l-81 -66c-4 -18 -6 -28 -6 -39c0 -62 50 -93 145 -93c115 0 198 43 198 132c0 40 -31 63 -95 63z" />
    <glyph glyph-name="gdotaccent.ss02" horiz-adv-x="517" 
d="M372 697l-19 -98h-51l19 98h51zM139 199c-32 -23 -53 -51 -53 -83c0 -39 45 -50 101 -50h108c82 0 126 -39 126 -102c0 -116 -104 -177 -246 -177c-118 0 -191 44 -191 129c0 15 6 47 13 60l84 64c-25 14 -42 37 -42 70c0 45 28 86 73 116c-14 21 -22 47 -22 76
c0 111 98 198 213 198c53 0 94 -18 120 -49l89 68l20 -32l-90 -69c6 -16 10 -35 10 -55c0 -114 -97 -195 -209 -195c-43 0 -78 11 -104 31zM301 459c-91 0 -163 -74 -163 -157c0 -55 40 -93 108 -93c89 0 158 69 158 155c0 57 -39 95 -103 95zM279 24h-128
c-11 0 -22 1 -33 3l-81 -66c-4 -18 -6 -28 -6 -39c0 -62 50 -93 145 -93c115 0 198 43 198 132c0 40 -31 63 -95 63z" />
    <glyph glyph-name="uni1EB7.ss03" horiz-adv-x="597" 
d="M345 567c-93 0 -141 48 -125 130h36c-12 -65 22 -97 94 -97c79 0 118 35 130 97h37c-17 -86 -75 -130 -172 -130zM505 493h50l-96 -493h-49l18 95c-45 -64 -120 -102 -198 -102c-118 0 -186 80 -186 196c0 157 120 311 276 311c81 0 142 -41 166 -104zM464 264
c16 111 -38 191 -140 191c-134 0 -231 -135 -231 -261c0 -94 54 -155 144 -155c115 0 209 101 227 225zM233 -82c28 0 44 -20 39 -47c-5 -26 -29 -47 -55 -47s-44 21 -38 49c5 25 29 45 54 45z" />
    <glyph glyph-name="uni1EAD.ss03" horiz-adv-x="597" 
d="M373 658l-124 -107h-48l178 153l115 -153h-39zM505 493h50l-96 -493h-49l18 95c-45 -64 -120 -102 -198 -102c-118 0 -186 80 -186 196c0 157 120 311 276 311c81 0 142 -41 166 -104zM464 264c16 111 -38 191 -140 191c-134 0 -231 -135 -231 -261
c0 -94 54 -155 144 -155c115 0 209 101 227 225zM233 -82c28 0 44 -20 39 -47c-5 -26 -29 -47 -55 -47s-44 21 -38 49c5 25 29 45 54 45z" />
    <glyph glyph-name="adieresis.ss03" horiz-adv-x="597" 
d="M265 609c-25 0 -43 21 -37 49c5 25 29 45 54 45c27 0 44 -20 39 -47c-5 -26 -29 -47 -56 -47zM461 609c-25 0 -43 21 -37 49c5 25 29 45 54 45c27 0 44 -20 39 -47c-5 -26 -29 -47 -56 -47zM505 493h50l-96 -493h-49l18 95c-45 -64 -120 -102 -198 -102
c-118 0 -186 80 -186 196c0 157 120 311 276 311c81 0 142 -41 166 -104zM464 264c16 111 -38 191 -140 191c-134 0 -231 -135 -231 -261c0 -94 54 -155 144 -155c115 0 209 101 227 225z" />
    <glyph glyph-name="uni1EA1.ss03" horiz-adv-x="597" 
d="M505 493h50l-96 -493h-49l18 95c-45 -64 -120 -102 -198 -102c-118 0 -186 80 -186 196c0 157 120 311 276 311c81 0 142 -41 166 -104zM464 264c16 111 -38 191 -140 191c-134 0 -231 -135 -231 -261c0 -94 54 -155 144 -155c115 0 209 101 227 225zM233 -82
c28 0 44 -20 39 -47c-5 -26 -29 -47 -55 -47s-44 21 -38 49c5 25 29 45 54 45z" />
    <glyph glyph-name="cdotaccent.ss03" horiz-adv-x="499" 
d="M321 609c-25 0 -43 21 -37 49c5 25 29 45 54 45c27 0 44 -20 39 -47c-5 -26 -29 -47 -56 -47zM222 -7c-115 0 -176 80 -176 190c0 162 113 317 269 317c89 0 150 -48 170 -134l-50 -16c-12 67 -59 106 -124 106c-129 0 -216 -139 -216 -274c0 -81 39 -145 130 -145
c70 0 132 40 166 108l43 -21c-47 -84 -125 -131 -212 -131z" />
    <glyph glyph-name="uni1EC7.ss03" horiz-adv-x="523" 
d="M347 658l-124 -107h-48l178 153l115 -153h-39zM469 234h-370c-4 -20 -6 -37 -6 -55c0 -89 50 -141 137 -141c65 0 110 18 167 68l30 -34c-67 -57 -124 -79 -200 -79c-121 0 -182 76 -182 187c0 163 111 320 267 320c127 0 173 -84 173 -173c0 -29 -6 -66 -16 -93z
M309 455c-99 0 -175 -77 -202 -181h324c6 19 9 41 9 59c0 63 -36 122 -131 122zM208 -82c28 0 44 -20 39 -47c-5 -26 -29 -47 -55 -47s-44 21 -38 49c5 25 29 45 54 45z" />
    <glyph glyph-name="edieresis.ss03" horiz-adv-x="523" 
d="M238 609c-25 0 -43 21 -37 49c5 25 29 45 54 45c27 0 44 -20 39 -47c-5 -26 -29 -47 -56 -47zM451 703c27 0 44 -20 39 -47c-5 -26 -29 -47 -56 -47c-25 0 -43 21 -37 49c5 25 29 45 54 45zM312 500c127 0 173 -84 173 -173c0 -29 -6 -66 -16 -93h-370
c-4 -20 -6 -37 -6 -55c0 -89 50 -141 137 -141c65 0 110 18 167 68l30 -34c-67 -57 -124 -79 -200 -79c-121 0 -182 76 -182 187c0 163 111 320 267 320zM431 274c6 19 9 41 9 59c0 63 -36 122 -131 122c-99 0 -175 -77 -202 -181h324z" />
    <glyph glyph-name="edotaccent.ss03" horiz-adv-x="523" 
d="M336 609c-25 0 -43 21 -37 49c5 25 29 45 54 45c27 0 44 -20 39 -47c-5 -26 -29 -47 -56 -47zM469 234h-370c-4 -20 -6 -37 -6 -55c0 -89 50 -141 137 -141c65 0 110 18 167 68l30 -34c-67 -57 -124 -79 -200 -79c-121 0 -182 76 -182 187c0 163 111 320 267 320
c127 0 173 -84 173 -173c0 -29 -6 -66 -16 -93zM309 455c-99 0 -175 -77 -202 -181h324c6 19 9 41 9 59c0 63 -36 122 -131 122z" />
    <glyph glyph-name="gdotaccent.ss03" horiz-adv-x="507" 
d="M324 609c-25 0 -43 21 -37 49c5 25 29 45 54 45c27 0 44 -20 39 -47c-5 -26 -29 -47 -56 -47zM144 194c-35 -16 -59 -39 -59 -72c0 -111 319 -27 319 -186c0 -99 -106 -147 -231 -147c-116 0 -190 41 -190 122c0 16 3 35 8 52l104 74c-35 14 -59 38 -59 78
c0 49 33 84 77 108c-17 22 -26 50 -26 81c0 107 97 196 215 196c51 0 92 -16 119 -45l77 59l21 -33l-77 -57c9 -18 14 -40 14 -63c0 -111 -97 -194 -211 -194c-40 0 -75 10 -101 27zM301 458c-92 0 -165 -73 -165 -153c0 -58 41 -97 109 -97c91 0 163 68 163 152
c0 60 -41 98 -107 98zM355 -71c0 77 -131 71 -225 96l-93 -76c-3 -11 -5 -27 -5 -34c0 -61 60 -84 143 -84c97 0 180 31 180 98z" />
    <glyph glyph-name="i.ss03" horiz-adv-x="231" 
d="M186 609c-25 0 -43 21 -37 49c5 25 29 45 54 45c27 0 44 -20 39 -47c-5 -26 -29 -47 -56 -47zM43 0l96 493h49l-96 -493h-49z" />
    <glyph glyph-name="idieresis.ss03" horiz-adv-x="231" 
d="M88 609c-25 0 -43 21 -37 49c5 25 29 45 54 45c27 0 44 -20 39 -47c-5 -26 -29 -47 -56 -47zM284 609c-25 0 -43 21 -37 49c5 25 29 45 54 45c27 0 44 -20 39 -47c-5 -26 -29 -47 -56 -47zM43 0l96 493h49l-96 -493h-49z" />
    <glyph glyph-name="i.loclTRK.ss03" horiz-adv-x="231" 
d="M186 609c-25 0 -43 21 -37 49c5 25 29 45 54 45c27 0 44 -20 39 -47c-5 -26 -29 -47 -56 -47zM43 0l96 493h49l-96 -493h-49z" />
    <glyph glyph-name="uni1ECB.ss03" horiz-adv-x="231" 
d="M186 609c-25 0 -43 21 -37 49c5 25 29 45 54 45c27 0 44 -20 39 -47c-5 -26 -29 -47 -56 -47zM43 0l96 493h49l-96 -493h-49zM34 -176c-26 0 -44 21 -38 49c5 25 29 45 54 45c28 0 44 -20 39 -47c-5 -26 -29 -47 -55 -47z" />
    <glyph glyph-name="iogonek.ss03" horiz-adv-x="231" 
d="M203 703c27 0 44 -20 39 -47c-5 -26 -29 -47 -56 -47c-25 0 -43 21 -37 49c5 25 29 45 54 45zM92 0c-77 -38 -117 -86 -123 -128c-4 -30 14 -46 42 -46c18 0 43 9 64 26l21 -24c-29 -25 -62 -38 -93 -38c-45 0 -75 26 -70 73c7 55 57 108 110 137l96 493h49z" />
    <glyph glyph-name="j.ss03" horiz-adv-x="231" 
d="M186 609c-25 0 -43 21 -37 49c5 25 29 45 54 45c27 0 44 -20 39 -47c-5 -26 -29 -47 -56 -47zM-33 -211c-19 0 -40 5 -63 14l6 39c18 -7 34 -9 46 -9c35 0 58 21 68 68l114 592h50l-117 -599c-14 -73 -52 -105 -104 -105z" />
    <glyph glyph-name="uni1ED9.ss03" horiz-adv-x="564" 
d="M191 551l178 153l115 -153h-39l-82 107l-124 -107h-48zM235 -7c-118 0 -191 78 -191 196c0 162 122 311 284 311c118 0 192 -79 192 -195c0 -164 -124 -312 -285 -312zM238 37c139 0 234 131 234 268c0 91 -55 151 -147 151c-138 0 -232 -131 -232 -268
c0 -92 54 -151 145 -151zM201 -176c-26 0 -44 21 -38 49c5 25 29 45 54 45c28 0 44 -20 39 -47c-5 -26 -29 -47 -55 -47z" />
    <glyph glyph-name="odieresis.ss03" horiz-adv-x="564" 
d="M255 609c-25 0 -43 21 -37 49c5 25 29 45 54 45c27 0 44 -20 39 -47c-5 -26 -29 -47 -56 -47zM451 609c-25 0 -43 21 -37 49c5 25 29 45 54 45c27 0 44 -20 39 -47c-5 -26 -29 -47 -56 -47zM235 -7c-118 0 -191 78 -191 196c0 162 122 311 284 311
c118 0 192 -79 192 -195c0 -164 -124 -312 -285 -312zM238 37c139 0 234 131 234 268c0 91 -55 151 -147 151c-138 0 -232 -131 -232 -268c0 -92 54 -151 145 -151z" />
    <glyph glyph-name="uni1EE3.ss03" horiz-adv-x="564" 
d="M612 576h39l-11 -53c-16 -82 -57 -134 -131 -144c7 -23 11 -47 11 -74c0 -164 -124 -312 -285 -312c-118 0 -191 78 -191 196c0 162 122 311 284 311c76 0 134 -33 166 -88c61 3 94 47 107 111zM238 37c139 0 234 131 234 268c0 91 -55 151 -147 151
c-138 0 -232 -131 -232 -268c0 -92 54 -151 145 -151zM217 -82c28 0 44 -20 39 -47c-5 -26 -29 -47 -55 -47s-44 21 -38 49c5 25 29 45 54 45z" />
    <glyph glyph-name="gdotaccent.ss01.ss03" horiz-adv-x="597" 
d="M368 609c-25 0 -43 21 -37 49c5 25 29 45 54 45c27 0 44 -20 39 -47c-5 -26 -29 -47 -56 -47zM204 -213c-113 0 -177 53 -200 130l43 24c15 -67 70 -110 160 -110c120 0 185 84 206 188l17 85c-45 -67 -121 -108 -200 -108c-118 0 -186 80 -186 196
c0 156 121 308 276 308c82 0 143 -45 164 -112l21 105h49l-91 -470c-30 -154 -124 -236 -259 -236zM237 42c123 0 220 114 228 242c8 101 -47 171 -142 171c-132 0 -230 -132 -230 -259c0 -92 54 -154 144 -154z" />
    <glyph glyph-name="gdotaccent.ss02.ss03" horiz-adv-x="517" 
d="M330 609c-25 0 -43 21 -37 49c5 25 29 45 54 45c27 0 44 -20 39 -47c-5 -26 -29 -47 -56 -47zM139 199c-32 -23 -53 -51 -53 -83c0 -39 45 -50 101 -50h108c82 0 126 -39 126 -102c0 -116 -104 -177 -246 -177c-118 0 -191 44 -191 129c0 15 6 47 13 60l84 64
c-25 14 -42 37 -42 70c0 45 28 86 73 116c-14 21 -22 47 -22 76c0 111 98 198 213 198c53 0 94 -18 120 -49l89 68l20 -32l-90 -69c6 -16 10 -35 10 -55c0 -114 -97 -195 -209 -195c-43 0 -78 11 -104 31zM301 459c-91 0 -163 -74 -163 -157c0 -55 40 -93 108 -93
c89 0 158 69 158 155c0 57 -39 95 -103 95zM279 24h-128c-11 0 -22 1 -33 3l-81 -66c-4 -18 -6 -28 -6 -39c0 -62 50 -93 145 -93c115 0 198 43 198 132c0 40 -31 63 -95 63z" />
    <glyph glyph-name="udieresis.ss03" horiz-adv-x="543" 
d="M238 609c-25 0 -43 21 -37 49c5 25 29 45 54 45c27 0 44 -20 39 -47c-5 -26 -29 -47 -56 -47zM434 609c-25 0 -43 21 -37 49c5 25 29 45 54 45c27 0 44 -20 39 -47c-5 -26 -29 -47 -56 -47zM451 493h49l-96 -493h-49l15 76c-44 -59 -108 -83 -170 -83
c-90 0 -139 49 -139 136c0 27 5 51 8 66l57 298h50l-57 -293c-4 -21 -8 -42 -8 -62c0 -65 31 -101 102 -101c106 0 167 86 192 218z" />
    <glyph glyph-name="uni01D8.ss03" horiz-adv-x="543" 
d="M534 907l-148 -140h-40l133 140h55zM238 609c-25 0 -43 21 -37 49c5 25 29 45 54 45c27 0 44 -20 39 -47c-5 -26 -29 -47 -56 -47zM397 658c5 25 29 45 54 45c27 0 44 -20 39 -47c-5 -26 -29 -47 -56 -47c-25 0 -43 21 -37 49zM405 255l46 238h49l-96 -493h-49l15 76
c-44 -59 -108 -83 -170 -83c-90 0 -139 49 -139 136c0 27 5 51 8 66l57 298h50l-57 -293c-4 -21 -8 -42 -8 -62c0 -65 31 -101 102 -101c106 0 167 86 192 218z" />
    <glyph glyph-name="uni01DA.ss03" horiz-adv-x="543" 
d="M538 907l-176 -152l-117 152h40l81 -107l125 107h47zM238 609c-25 0 -43 21 -37 49c5 25 29 45 54 45c27 0 44 -20 39 -47c-5 -26 -29 -47 -56 -47zM397 658c5 25 29 45 54 45c27 0 44 -20 39 -47c-5 -26 -29 -47 -56 -47c-25 0 -43 21 -37 49zM405 255l46 238h49
l-96 -493h-49l15 76c-44 -59 -108 -83 -170 -83c-90 0 -139 49 -139 136c0 27 5 51 8 66l57 298h50l-57 -293c-4 -21 -8 -42 -8 -62c0 -65 31 -101 102 -101c106 0 167 86 192 218z" />
    <glyph glyph-name="uni01DC.ss03" horiz-adv-x="543" 
d="M387 767h-41l-148 140h55zM201 658c5 25 29 45 54 45c27 0 44 -20 39 -47c-5 -26 -29 -47 -56 -47c-25 0 -43 21 -37 49zM434 609c-25 0 -43 21 -37 49c5 25 29 45 54 45c27 0 44 -20 39 -47c-5 -26 -29 -47 -56 -47zM451 493h49l-96 -493h-49l15 76
c-44 -59 -108 -83 -170 -83c-90 0 -139 49 -139 136c0 27 5 51 8 66l57 298h50l-57 -293c-4 -21 -8 -42 -8 -62c0 -65 31 -101 102 -101c106 0 167 86 192 218z" />
    <glyph glyph-name="uni01D6.ss03" horiz-adv-x="543" 
d="M248 853h269l-7 -31h-268zM238 609c-25 0 -43 21 -37 49c5 25 29 45 54 45c27 0 44 -20 39 -47c-5 -26 -29 -47 -56 -47zM434 609c-25 0 -43 21 -37 49c5 25 29 45 54 45c27 0 44 -20 39 -47c-5 -26 -29 -47 -56 -47zM405 255l46 238h49l-96 -493h-49l15 76
c-44 -59 -108 -83 -170 -83c-90 0 -139 49 -139 136c0 27 5 51 8 66l57 298h50l-57 -293c-4 -21 -8 -42 -8 -62c0 -65 31 -101 102 -101c106 0 167 86 192 218z" />
    <glyph glyph-name="uni1EE5.ss03" horiz-adv-x="543" 
d="M451 493h49l-96 -493h-49l15 76c-44 -59 -108 -83 -170 -83c-90 0 -139 49 -139 136c0 27 5 51 8 66l57 298h50l-57 -293c-4 -21 -8 -42 -8 -62c0 -65 31 -101 102 -101c106 0 167 86 192 218zM206 -82c28 0 44 -20 39 -47c-5 -26 -29 -47 -55 -47s-44 21 -38 49
c5 25 29 45 54 45z" />
    <glyph glyph-name="uni1EF1.ss03" horiz-adv-x="543" 
d="M590 657h39l-11 -53c-16 -80 -54 -131 -124 -143l-90 -461h-49l15 76c-44 -59 -108 -83 -170 -83c-90 0 -139 49 -139 136c0 27 5 51 8 66l57 298h50l-57 -293c-4 -21 -8 -42 -8 -62c0 -65 31 -101 102 -101c106 0 167 86 192 218l46 238h13c66 0 101 44 115 111z
M206 -82c28 0 44 -20 39 -47c-5 -26 -29 -47 -55 -47s-44 21 -38 49c5 25 29 45 54 45z" />
    <glyph glyph-name="wdieresis.ss03" horiz-adv-x="731" 
d="M338 609c-25 0 -43 21 -37 49c5 25 29 45 54 45c27 0 44 -20 39 -47c-5 -26 -29 -47 -56 -47zM534 609c-25 0 -43 21 -37 49c5 25 29 45 54 45c27 0 44 -20 39 -47c-5 -26 -29 -47 -56 -47zM695 493h53l-237 -493h-49l-61 426l-229 -426h-48l-46 493h53l32 -421l226 421
h47l62 -419z" />
    <glyph glyph-name="ydieresis.ss03" horiz-adv-x="497" 
d="M220 609c-25 0 -43 21 -37 49c5 25 29 45 54 45c27 0 44 -20 39 -47c-5 -26 -29 -47 -56 -47zM416 609c-25 0 -43 21 -37 49c5 25 29 45 54 45c27 0 44 -20 39 -47c-5 -26 -29 -47 -56 -47zM467 493h55l-400 -697h-55l120 209l-119 488h53l101 -426z" />
    <glyph glyph-name="uni1EF5.ss03" horiz-adv-x="497" 
d="M467 493h55l-400 -697h-55l120 209l-119 488h53l101 -426zM328 -113c28 0 44 -20 39 -47c-5 -26 -29 -47 -55 -47s-44 21 -38 49c5 25 29 45 54 45z" />
    <glyph glyph-name="zdotaccent.ss03" horiz-adv-x="473" 
d="M308 609c-25 0 -43 21 -37 49c5 25 29 45 54 45c27 0 44 -20 39 -47c-5 -26 -29 -47 -56 -47zM484 493l-8 -43l-417 -407h334l-8 -43h-400l7 39l423 411h-325l9 43h385z" />
    <glyph glyph-name="T_h" horiz-adv-x="1026" 
d="M237 0l126 650h-250l9 47h589l-59 -294c39 63 104 97 173 97c114 0 154 -79 136 -185l-61 -315h-50l59 304c18 93 -7 151 -98 151c-90 0 -160 -67 -180 -167l-56 -288h-50l126 650h-237l-127 -650h-50z" />
    <glyph glyph-name="ordfeminine" unicode="&#xaa;" horiz-adv-x="413" 
d="M190 346c-67 0 -109 41 -97 103c14 70 75 102 168 102h103c1 9 1 13 3 23c10 69 -18 102 -84 102c-49 0 -85 -22 -120 -61l-22 17c48 53 92 72 148 72c86 0 124 -50 107 -138l-41 -214h-29l14 74c-42 -53 -93 -80 -150 -80zM201 377c56 0 105 30 141 86c6 21 11 41 16 60
h-101c-77 0 -122 -25 -132 -74c-8 -44 24 -72 76 -72z" />
    <glyph glyph-name="ordmasculine" unicode="&#xba;" horiz-adv-x="486" 
d="M282 354c-96 0 -151 77 -132 175c19 97 104 175 201 175c95 0 150 -78 131 -175c-19 -98 -104 -175 -200 -175zM289 386c78 0 141 62 157 143s-23 143 -102 143s-143 -62 -158 -143c-16 -81 23 -143 103 -143z" />
    <glyph glyph-name="uni0394" unicode="&#x394;" horiz-adv-x="635" 
d="M-10 0l408 697h15l136 -697h-559zM60 43h437l-107 568z" />
    <glyph glyph-name="uni03A9" unicode="&#x3a9;" horiz-adv-x="763" 
d="M6 0l8 41h208l6 26c-74 45 -119 134 -119 235c0 194 157 361 353 361c150 0 238 -96 238 -234c0 -151 -101 -311 -233 -364l-5 -24h207l-8 -41h-261l14 78c144 47 244 204 244 349c0 117 -74 194 -201 194c-179 0 -305 -153 -305 -328c0 -99 47 -175 129 -217l-14 -76
h-261z" />
    <glyph glyph-name="uni03BC" unicode="&#x3bc;" horiz-adv-x="555" 
d="M9 -175l130 668h49l-59 -304c-19 -97 15 -150 99 -150c90 0 159 59 179 158l57 296h49l-96 -493h-49l18 90c-40 -64 -106 -97 -174 -97c-62 0 -101 25 -114 74l-48 -242h-41z" />
    <glyph glyph-name="pi" unicode="&#x3c0;" horiz-adv-x="532" 
d="M408 -7c-91 0 -101 60 -85 143l62 314h-203l-88 -450h-42l87 450h-55l9 43h416l-8 -43h-74l-61 -312c-16 -81 2 -107 48 -107c12 0 27 4 42 10l9 -37c-19 -8 -41 -11 -57 -11z" />
    <glyph glyph-name="zero" unicode="0" horiz-adv-x="560" 
d="M237 -7c-177 0 -181 189 -148 358c33 168 106 354 276 354c155 0 185 -163 146 -362c-38 -194 -125 -350 -274 -350zM241 40c116 0 184 137 218 312c35 174 20 306 -98 306c-130 0 -190 -151 -222 -314c-30 -157 -29 -304 102 -304z" />
    <glyph glyph-name="one" unicode="1" horiz-adv-x="560" 
d="M394 697h48l-135 -697h-49l104 540h-178l8 44h124c37 0 60 15 67 50z" />
    <glyph glyph-name="two" unicode="2" horiz-adv-x="560" 
d="M-9 0l9 51c197 112 488 281 488 488c0 75 -47 117 -129 117c-113 0 -181 -77 -204 -189l-47 6c26 138 118 230 255 230c107 0 174 -59 174 -158c0 -214 -263 -386 -464 -498h407l-10 -47h-479z" />
    <glyph glyph-name="three" unicode="3" horiz-adv-x="560" 
d="M232 -7c-129 0 -210 65 -210 169c0 15 2 30 5 44l48 -2c-3 -10 -4 -23 -4 -34c0 -82 64 -130 165 -130c123 0 222 79 222 186c0 101 -110 120 -198 120l7 44c116 -1 216 49 216 158c0 68 -56 109 -131 109c-95 0 -167 -59 -184 -145l-47 6c22 114 119 186 234 186
c102 0 178 -58 178 -148c0 -103 -79 -168 -185 -186c80 -14 158 -55 158 -143c0 -139 -125 -234 -274 -234z" />
    <glyph glyph-name="four" unicode="4" horiz-adv-x="560" 
d="M421 214h114l-9 -47h-115l-31 -167h-49l32 167h-358l6 35l455 495h49zM372 214l80 412l-374 -412h294z" />
    <glyph glyph-name="five" unicode="5" horiz-adv-x="560" 
d="M561 650h-310l-95 -262c56 50 119 73 178 73c113 0 183 -76 183 -182c0 -152 -135 -286 -285 -286c-118 0 -194 82 -194 198l48 5c1 -91 56 -156 150 -156c127 0 231 118 231 237c0 80 -53 138 -143 138c-70 0 -134 -35 -184 -92l-52 17l132 357h350z" />
    <glyph glyph-name="six" unicode="6" horiz-adv-x="545" 
d="M301 445c116 0 194 -79 194 -186c0 -139 -135 -266 -277 -266c-113 0 -193 81 -193 187c0 59 26 116 63 164l280 353h58l-225 -281c31 17 64 29 100 29zM223 40c113 0 222 106 222 217c0 81 -60 143 -147 143c-115 0 -223 -105 -223 -217c0 -81 61 -143 148 -143z" />
    <glyph glyph-name="seven" unicode="7" horiz-adv-x="560" 
d="M117 697h497l-7 -35l-479 -662h-57l475 650h-438z" />
    <glyph glyph-name="eight" unicode="8" horiz-adv-x="560" 
d="M233 -7c-104 0 -195 55 -195 164c0 105 77 196 181 224c-43 18 -73 60 -73 120c0 116 106 203 221 203c93 0 158 -55 158 -141c0 -84 -56 -158 -134 -186c65 -18 107 -69 107 -145c0 -137 -119 -239 -265 -239zM308 394c94 0 168 78 168 160c0 62 -44 103 -114 103
c-92 0 -168 -70 -168 -158c0 -64 43 -105 114 -105zM238 40c118 0 212 85 212 191c0 76 -58 127 -147 127c-119 0 -215 -86 -215 -193c0 -82 67 -125 150 -125z" />
    <glyph glyph-name="nine" unicode="9" horiz-adv-x="560" 
d="M366 704c113 0 193 -81 193 -187c0 -59 -26 -116 -63 -164l-280 -353h-58l225 281c-31 -17 -64 -29 -100 -29c-116 0 -194 79 -194 186c0 139 135 266 277 266zM286 297c115 0 223 105 223 217c0 81 -61 143 -148 143c-113 0 -222 -106 -222 -217c0 -81 60 -143 147 -143
z" />
    <glyph glyph-name="zero.lf" horiz-adv-x="574" 
d="M244 -7c-177 0 -181 189 -148 358c32 168 105 354 276 354c155 0 185 -163 146 -362c-38 -194 -126 -350 -274 -350zM248 40c116 0 184 137 218 312c34 174 19 306 -99 306c-130 0 -189 -151 -221 -314c-31 -157 -29 -304 102 -304z" />
    <glyph glyph-name="one.lf" horiz-adv-x="370" 
d="M300 697h47l-135 -697h-48l104 540h-179l9 44h124c36 0 60 15 66 50z" />
    <glyph glyph-name="two.lf" horiz-adv-x="575" 
d="M-1 0l9 51c197 112 488 281 488 488c0 75 -47 117 -129 117c-113 0 -181 -77 -204 -189l-47 6c26 138 118 230 255 230c107 0 174 -59 174 -158c0 -214 -263 -386 -464 -498h407l-10 -47h-479z" />
    <glyph glyph-name="three.lf" horiz-adv-x="584" 
d="M244 -7c-129 0 -209 65 -209 169c0 15 1 30 4 44l48 -2c-2 -10 -3 -23 -3 -34c0 -82 64 -130 165 -130c123 0 221 79 221 186c0 101 -110 120 -198 120l7 44c116 -1 216 49 216 158c0 68 -55 109 -130 109c-96 0 -167 -59 -185 -145l-47 6c22 114 119 186 235 186
c101 0 178 -58 178 -148c0 -103 -80 -168 -186 -186c80 -14 158 -55 158 -143c0 -139 -125 -234 -274 -234z" />
    <glyph glyph-name="four.lf" horiz-adv-x="588" 
d="M435 214h114l-9 -47h-115l-31 -167h-50l32 167h-358l7 35l454 495h50zM386 214l80 412l-374 -412h294z" />
    <glyph glyph-name="five.lf" horiz-adv-x="583" 
d="M571 650h-310l-95 -262c56 50 119 73 178 73c113 0 183 -76 183 -182c0 -152 -135 -286 -285 -286c-118 0 -194 82 -194 198l48 5c1 -91 56 -156 150 -156c127 0 231 118 231 237c0 80 -53 138 -143 138c-70 0 -134 -35 -184 -92l-52 17l132 357h350z" />
    <glyph glyph-name="six.lf" horiz-adv-x="559" 
d="M317 445c115 0 193 -79 193 -186c0 -139 -135 -266 -277 -266c-112 0 -192 81 -192 187c0 59 25 116 63 164l279 353h58l-223 -280c30 17 64 28 99 28zM238 40c113 0 222 106 222 217c0 81 -60 143 -147 143c-115 0 -222 -105 -222 -217c0 -81 60 -143 147 -143z" />
    <glyph glyph-name="seven.lf" horiz-adv-x="561" 
d="M118 697h497l-7 -35l-479 -662h-57l475 650h-438z" />
    <glyph glyph-name="eight.lf" horiz-adv-x="572" 
d="M240 -7c-104 0 -195 55 -195 164c0 105 76 196 180 224c-43 18 -73 60 -73 120c0 116 106 203 221 203c94 0 159 -55 159 -141c0 -84 -57 -158 -134 -186c65 -18 107 -69 107 -145c0 -137 -120 -239 -265 -239zM315 394c93 0 167 78 167 160c0 62 -44 103 -114 103
c-92 0 -168 -70 -168 -158c0 -64 44 -105 115 -105zM244 40c118 0 213 85 213 191c0 76 -58 127 -147 127c-119 0 -215 -86 -215 -193c0 -82 66 -125 149 -125z" />
    <glyph glyph-name="nine.lf" horiz-adv-x="559" 
d="M366 704c112 0 192 -81 192 -187c0 -59 -25 -116 -63 -164l-279 -353h-58l223 280c-30 -17 -64 -28 -99 -28c-115 0 -193 79 -193 186c0 139 135 266 277 266zM286 297c115 0 222 105 222 217c0 81 -60 143 -147 143c-113 0 -222 -106 -222 -217c0 -81 60 -143 147 -143z
" />
    <glyph glyph-name="fraction" unicode="&#x2044;" horiz-adv-x="135" 
d="M-143 0l383 697h37l-383 -697h-37z" />
    <glyph glyph-name="period" unicode="." horiz-adv-x="299" 
d="M76 0l20 102h50l-19 -102h-51z" />
    <glyph glyph-name="comma" unicode="," horiz-adv-x="316" 
d="M-3 -157l169 286h57l-190 -286h-36z" />
    <glyph glyph-name="colon" unicode=":" horiz-adv-x="307" 
d="M150 369l21 102h53l-20 -102h-54zM79 0l19 102h54l-20 -102h-53z" />
    <glyph glyph-name="semicolon" unicode=";" horiz-adv-x="320" 
d="M181 369l21 102h53l-20 -102h-54zM-24 -157l170 286h57l-190 -286h-37z" />
    <glyph glyph-name="ellipsis" unicode="&#x2026;" horiz-adv-x="707" 
d="M76 0l20 102h50l-19 -102h-51zM280 0l20 102h50l-19 -102h-51zM485 0l20 102h49l-19 -102h-50z" />
    <glyph glyph-name="exclam" unicode="!" horiz-adv-x="301" 
d="M120 192l93 505h50l-104 -505h-39zM75 0l20 102h54l-20 -102h-54z" />
    <glyph glyph-name="exclamdown" unicode="&#xa1;" horiz-adv-x="301" 
d="M152 391l20 102h54l-20 -102h-54zM38 -204l104 505h39l-93 -505h-50z" />
    <glyph glyph-name="question" unicode="?" horiz-adv-x="521" 
d="M225 190l16 83c17 85 77 108 125 134c64 35 108 70 108 145c0 59 -50 110 -139 110c-97 0 -166 -58 -184 -147l-43 4c23 115 114 185 228 185c112 0 180 -62 180 -151c0 -95 -51 -139 -123 -177c-48 -27 -99 -49 -111 -113l-14 -73h-43zM183 0l20 102h53l-19 -102h-54z
" />
    <glyph glyph-name="questiondown" unicode="&#xbf;" horiz-adv-x="521" 
d="M338 493l-20 -102h-53l20 102h53zM296 303l-16 -83c-16 -85 -76 -108 -125 -134c-64 -35 -107 -70 -107 -145c0 -59 49 -110 138 -110c97 0 166 58 184 147l43 -4c-23 -115 -114 -185 -228 -185c-111 0 -180 62 -180 151c0 95 51 139 123 177c49 27 100 49 112 113l14 73
h42z" />
    <glyph glyph-name="periodcentered" unicode="&#xb7;" horiz-adv-x="341" 
d="M182 297c-35 0 -60 28 -53 67c7 35 38 60 73 60c38 0 60 -29 53 -67c-7 -34 -38 -60 -73 -60z" />
    <glyph glyph-name="bullet" unicode="&#x2022;" horiz-adv-x="428" 
d="M191 120c-64 0 -109 53 -96 120c12 61 72 115 137 115c66 0 110 -54 96 -123c-11 -60 -72 -112 -137 -112z" />
    <glyph glyph-name="asterisk" unicode="*" horiz-adv-x="452" 
d="M200 418l-43 36l105 96l-120 18l32 60l102 -51l7 120h61l-42 -120l123 51l8 -60l-127 -18l68 -96l-57 -36l-35 118z" />
    <glyph glyph-name="numbersign" unicode="#" horiz-adv-x="696" 
d="M90 0l86 214h-125l7 36h133l84 210h-134l8 38h141l81 199h42l-82 -201h189l81 201h42l-83 -201h128l-7 -36h-136l-83 -210h136l-6 -36h-145l-87 -214h-41l87 214h-190l-85 -214h-41zM232 250h189l84 210h-189z" />
    <glyph glyph-name="slash" unicode="/" horiz-adv-x="424" 
d="M-78 -210l531 907h48l-530 -907h-49z" />
    <glyph glyph-name="backslash" unicode="\" horiz-adv-x="385" 
d="M242 -211l-136 939h42l135 -939h-41z" />
    <glyph glyph-name="uni2023" unicode="&#x2023;" horiz-adv-x="431" 
d="M99 108l54 275l214 -138z" />
    <glyph glyph-name="twodotenleader" unicode="&#x2025;" horiz-adv-x="503" 
d="M76 0l20 102h50l-19 -102h-51zM280 0l20 102h50l-19 -102h-51z" />
    <glyph glyph-name="period.ss03" horiz-adv-x="313" 
d="M108 -7c-26 0 -43 21 -38 48c5 26 29 46 55 46s44 -20 38 -48c-5 -25 -29 -46 -55 -46z" />
    <glyph glyph-name="colon.ss03" horiz-adv-x="309" 
d="M179 366c-26 0 -44 21 -38 49c5 25 28 45 54 45c27 0 44 -20 39 -47c-5 -26 -29 -47 -55 -47zM106 -7c-26 0 -43 21 -38 48c5 26 29 46 55 46s44 -20 38 -48c-5 -25 -29 -46 -55 -46z" />
    <glyph glyph-name="semicolon.ss03" horiz-adv-x="323" 
d="M212 366c-26 0 -43 21 -38 49c6 25 29 45 55 45c27 0 44 -20 39 -47c-6 -26 -30 -47 -56 -47zM-19 -157l162 286h63l-190 -286h-35z" />
    <glyph glyph-name="ellipsis.ss03" horiz-adv-x="689" 
d="M108 -7c-26 0 -43 21 -38 48c5 26 29 46 55 46s44 -20 38 -48c-5 -25 -29 -46 -55 -46zM296 -7c-26 0 -43 21 -38 48c5 26 29 46 55 46s44 -20 38 -48c-5 -25 -29 -46 -55 -46zM484 -7c-26 0 -43 21 -38 48c5 26 29 46 55 46s44 -20 38 -48c-5 -25 -29 -46 -55 -46z" />
    <glyph glyph-name="exclam.ss03" horiz-adv-x="304" 
d="M121 192l94 505h50l-105 -505h-39zM103 -7c-26 0 -43 21 -38 48c5 26 28 46 55 46c26 0 43 -20 38 -48c-5 -25 -29 -46 -55 -46z" />
    <glyph glyph-name="exclamdown.ss03" horiz-adv-x="304" 
d="M184 406c-26 0 -44 20 -38 48c5 25 29 46 55 46s43 -21 38 -48c-5 -26 -29 -46 -55 -46zM39 -204l104 505h39l-93 -505h-50z" />
    <glyph glyph-name="question.ss03" horiz-adv-x="521" 
d="M224 190l17 85c28 146 200 106 228 251c17 88 -34 136 -134 136c-98 0 -166 -56 -185 -145h-43c23 115 116 187 233 187c124 0 194 -65 172 -181c-33 -172 -208 -143 -228 -248l-17 -85h-43zM211 -7c-26 0 -43 21 -38 48c5 26 29 46 55 46s44 -20 38 -48
c-5 -25 -29 -46 -55 -46z" />
    <glyph glyph-name="questiondown.ss03" horiz-adv-x="521" 
d="M292 406c-26 0 -43 20 -38 48c5 25 29 46 55 46s43 -21 38 -48c-5 -26 -28 -46 -55 -46zM180 -211c-123 0 -194 65 -172 181c34 172 209 143 229 248l16 85h43l-17 -85c-28 -146 -199 -106 -228 -251c-17 -88 34 -136 134 -136c98 0 166 56 185 145h44
c-23 -115 -116 -187 -234 -187z" />
    <glyph glyph-name="twodotenleader.ss03" horiz-adv-x="501" 
d="M108 -7c-26 0 -43 21 -38 48c5 26 29 46 55 46s44 -20 38 -48c-5 -25 -29 -46 -55 -46zM296 -7c-26 0 -43 21 -38 48c5 26 29 46 55 46s44 -20 38 -48c-5 -25 -29 -46 -55 -46z" />
    <glyph glyph-name="parenleft" unicode="(" horiz-adv-x="273" 
d="M135 -21c-56 84 -67 251 -43 373c26 134 90 273 185 368l48 -3c-106 -105 -169 -246 -194 -373c-25 -129 -12 -271 48 -367z" />
    <glyph glyph-name="parenright" unicode=")" horiz-adv-x="272" 
d="M-13 -21c97 95 168 237 194 372c24 125 15 264 -49 369l44 -3c59 -93 71 -232 43 -375c-22 -115 -96 -281 -185 -365z" />
    <glyph glyph-name="braceleft" unicode="{" horiz-adv-x="299" 
d="M151 -66c-63 0 -91 49 -77 122l36 183c6 35 -10 52 -44 65l4 41c45 10 67 33 75 77l39 201c14 72 51 115 128 115h45l-6 -34h-29c-51 0 -84 -26 -96 -85l-39 -201c-10 -48 -30 -79 -76 -93l-4 -5c34 -15 53 -41 45 -84l-36 -183c-10 -52 7 -84 54 -84h38l-7 -35h-50z" />
    <glyph glyph-name="braceright" unicode="}" horiz-adv-x="300" 
d="M-23 -66l7 35h35c46 0 80 34 90 87l36 183c9 43 34 68 74 83l4 4c-38 13 -53 41 -43 95l40 202c11 55 -6 81 -61 81h-32l6 34h44c66 0 101 -36 85 -119l-39 -201c-9 -47 4 -65 41 -75l-5 -41c-37 -11 -65 -29 -72 -67l-36 -183c-14 -72 -57 -118 -121 -118h-53z" />
    <glyph glyph-name="bracketleft" unicode="[" horiz-adv-x="323" 
d="M51 -56l157 807h176l-8 -34h-134l-143 -738h134l-7 -35h-175z" />
    <glyph glyph-name="bracketright" unicode="]" horiz-adv-x="323" 
d="M-21 -56l6 35h135l144 738h-135l7 34h176l-158 -807h-175z" />
    <glyph glyph-name="hyphen" unicode="-" horiz-adv-x="430" 
d="M94 291l8 39h259l-7 -39h-260z" />
    <glyph glyph-name="uni00AD" unicode="&#xad;" horiz-adv-x="501" 
d="M94 291l8 39h330l-7 -39h-331z" />
    <glyph glyph-name="endash" unicode="&#x2013;" horiz-adv-x="521" 
d="M94 291l8 39h350l-7 -39h-351z" />
    <glyph glyph-name="emdash" unicode="&#x2014;" horiz-adv-x="1010" 
d="M9 291l7 39h1010l-7 -39h-1010z" />
    <glyph glyph-name="uni2015" unicode="&#x2015;" horiz-adv-x="593" 
d="M9 291l7 39h594l-8 -39h-593z" />
    <glyph glyph-name="underscore" unicode="_" horiz-adv-x="562" 
d="M30 -39l8 39h391l-8 -39h-391z" />
    <glyph glyph-name="quotesinglbase" unicode="&#x201a;" horiz-adv-x="279" 
d="M-21 -157l169 286h57l-190 -286h-36z" />
    <glyph glyph-name="quotedblbase" unicode="&#x201e;" horiz-adv-x="442" 
d="M-21 -157l169 286h57l-190 -286h-36zM142 -157l169 286h57l-190 -286h-36z" />
    <glyph glyph-name="quotedblleft" unicode="&#x201c;" horiz-adv-x="438" 
d="M83 410l190 287h36l-169 -287h-57zM242 410l189 287h37l-169 -287h-57z" />
    <glyph glyph-name="quotedblright" unicode="&#x201d;" horiz-adv-x="437" 
d="M89 411l169 286h57l-190 -286h-36zM248 411l169 286h57l-190 -286h-36z" />
    <glyph glyph-name="quoteleft" unicode="&#x2018;" horiz-adv-x="278" 
d="M83 410l190 287h36l-169 -287h-57z" />
    <glyph glyph-name="quoteright" unicode="&#x2019;" horiz-adv-x="278" 
d="M89 411l169 286h57l-190 -286h-36z" />
    <glyph glyph-name="guillemotleft" unicode="&#xab;" horiz-adv-x="477" 
d="M198 86l-158 166l222 166l-8 -45l-162 -121l114 -121zM375 86l-159 166l222 166l-7 -45l-162 -121l113 -121z" />
    <glyph glyph-name="guillemotright" unicode="&#xbb;" horiz-adv-x="478" 
d="M40 86l8 45l161 121l-113 121l7 45l159 -166zM217 86l7 45l162 121l-113 121l7 45l159 -166z" />
    <glyph glyph-name="guilsinglleft" unicode="&#x2039;" horiz-adv-x="301" 
d="M198 86l-158 166l222 166l-8 -45l-161 -121l113 -121z" />
    <glyph glyph-name="guilsinglright" unicode="&#x203a;" horiz-adv-x="301" 
d="M40 86l8 45l161 121l-113 121l7 45l159 -166z" />
    <glyph glyph-name="quotedbl" unicode="&#x22;" horiz-adv-x="412" 
d="M152 474l44 223h43l-44 -223h-43zM305 474l45 223h42l-44 -223h-43z" />
    <glyph glyph-name="quotesingle" unicode="'" horiz-adv-x="260" 
d="M155 488l41 209h43l-41 -209h-43z" />
    <glyph glyph-name="uni00A0" unicode="&#xa0;" horiz-adv-x="278" 
 />
    <glyph glyph-name="uni20B3" unicode="&#x20b3;" horiz-adv-x="768" 
d="M61 0l92 166h-77l7 36h91l61 111h-130l7 35h144l194 349h45l59 -349h142l-7 -35h-128l19 -111h88l-8 -36h-74l27 -166h-53l-27 166h-321l-92 -166h-59zM313 348h190l-42 272zM232 202h296l-19 111h-216z" />
    <glyph glyph-name="cent" unicode="&#xa2;" horiz-adv-x="499" 
d="M311 456c-129 0 -216 -139 -216 -274c0 -81 39 -145 130 -145c70 0 132 40 166 108l43 -21c-43 -77 -113 -123 -192 -130l-21 -106l-45 -1l21 107c-99 11 -151 87 -151 189c0 155 103 304 249 316l20 102h45l-20 -102c75 -9 127 -55 145 -133l-50 -16
c-12 67 -59 106 -124 106z" />
    <glyph glyph-name="currency" unicode="&#xa4;" horiz-adv-x="724" 
d="M163 75l-27 29l66 67c-36 42 -53 93 -53 143c0 51 19 102 53 144l-65 65l26 28l67 -66c40 35 92 53 145 53c49 0 102 -17 143 -53l66 65l28 -27l-67 -65c36 -41 53 -93 53 -144c0 -50 -16 -102 -53 -144l67 -67l-27 -28l-67 68c-41 -35 -93 -54 -144 -54
c-52 0 -103 18 -144 54zM377 128c47 0 92 20 127 55c37 36 56 83 56 131c0 46 -17 93 -56 131c-36 37 -83 54 -130 54c-48 0 -95 -19 -132 -55c-36 -35 -54 -84 -54 -131c0 -48 18 -95 54 -130c37 -37 86 -55 135 -55z" />
    <glyph glyph-name="dollar" unicode="$" horiz-adv-x="610" 
d="M219 506c0 -138 303 -105 303 -285c0 -10 -1 -23 -4 -37c-21 -107 -119 -181 -233 -189l-21 -108l-46 -1l21 109c-106 9 -179 78 -175 188l51 9c-4 -99 58 -152 154 -152c101 0 183 63 199 147c2 11 3 18 3 27c0 151 -303 118 -303 287c0 11 1 22 3 33
c19 95 105 161 202 169l20 105h46l-21 -105c73 -6 123 -42 149 -110l-46 -24c-23 62 -66 89 -134 89c-81 0 -151 -55 -166 -130c-1 -7 -2 -15 -2 -22z" />
    <glyph glyph-name="Euro" unicode="&#x20ac;" horiz-adv-x="741" 
d="M540 655c-142 0 -244 -83 -297 -203h343l-8 -35h-348c-13 -38 -21 -79 -24 -121h349l-8 -36h-343v-5c0 -125 59 -213 206 -213c79 0 142 24 192 66l33 -35c-62 -51 -138 -80 -229 -80c-169 0 -253 102 -253 258v9h-69l7 36h64c3 42 10 83 22 121h-62l7 35h67
c59 149 185 252 356 252c79 0 138 -20 178 -57l-34 -39c-34 32 -83 47 -149 47z" />
    <glyph glyph-name="florin" unicode="&#x192;" horiz-adv-x="509" 
d="M427 706c38 0 72 -16 98 -41l-33 -30c-19 20 -42 29 -69 29c-50 0 -92 -40 -105 -108l-12 -63h139l-7 -39h-140l-97 -498c-24 -124 -97 -182 -226 -182l5 38c105 0 159 44 180 151l95 491h-84l7 39h85l13 67c17 90 79 146 151 146z" />
    <glyph glyph-name="uni20B4" unicode="&#x20b4;" horiz-adv-x="725" 
d="M126 414l6 34h368c36 26 63 62 63 112c0 58 -46 98 -115 98c-70 0 -125 -30 -172 -91l-38 29c59 76 129 108 212 108c97 0 163 -60 163 -140c0 -42 -17 -82 -52 -116h111l-8 -34h-538zM313 -6c-111 0 -186 64 -186 153c0 39 16 85 43 117h-75l6 35h540l-8 -35h-408
c-32 -31 -47 -72 -47 -109c0 -66 52 -115 139 -115c98 0 180 56 215 148l47 -17c-46 -113 -151 -177 -266 -177z" />
    <glyph glyph-name="uni20B1" unicode="&#x20b1;" horiz-adv-x="691" 
d="M675 522l-8 -35h-51c-27 -112 -121 -177 -260 -177h-138l-60 -310h-51l95 487h-68l6 35h69l34 175h186c130 0 195 -57 195 -151c0 -7 0 -15 -1 -24h52zM284 649l-25 -127h313c1 6 1 12 1 18c0 69 -51 109 -152 109h-137zM362 358c110 0 179 46 203 129h-313l-25 -129h135
z" />
    <glyph glyph-name="uni20BD" unicode="&#x20bd;" horiz-adv-x="674" 
d="M129 0l32 162h-91l8 42h91l21 109h-91l9 45h90l67 339h182c123 0 198 -57 198 -156c0 -12 -2 -32 -4 -43c-23 -118 -122 -185 -266 -185h-135l-21 -109h159l-9 -42h-158l-31 -162h-51zM249 358h132c118 0 192 53 210 146c2 12 3 23 3 34c0 71 -53 111 -153 111h-135z" />
    <glyph glyph-name="sterling" unicode="&#xa3;" horiz-adv-x="626" 
d="M433 703c96 0 157 -56 173 -147l-41 -11c-14 80 -66 115 -134 115c-114 0 -190 -94 -190 -215c0 -20 2 -40 6 -60h213l-7 -37h-200c6 -30 11 -59 11 -91c0 -110 -60 -181 -149 -214h384l-8 -43h-453l10 54c106 27 174 95 174 203c0 28 -5 59 -10 91h-103l8 37h89
c-4 22 -6 43 -6 64c0 146 101 254 233 254z" />
    <glyph glyph-name="uni20B8" unicode="&#x20b8;" horiz-adv-x="722" 
d="M164 653l9 44h551l-8 -44h-552zM288 0l98 503h-251l9 43h552l-9 -43h-250l-98 -503h-51z" />
    <glyph glyph-name="yen" unicode="&#xa5;" horiz-adv-x="720" 
d="M287 0l23 118h-192l6 34h193l21 109h-192l7 36h172l-169 400h59l157 -382l307 382h62l-326 -400h170l-8 -36h-188l-21 -109h188l-7 -34h-188l-23 -118h-51z" />
    <glyph glyph-name="plus" unicode="+" horiz-adv-x="635" 
d="M260 57l45 231h-231l9 42h230l45 231h42l-45 -231h230l-8 -42h-230l-45 -231h-42z" />
    <glyph glyph-name="minus" unicode="&#x2212;" horiz-adv-x="598" 
d="M139 290l8 42h336l-8 -42h-336z" />
    <glyph glyph-name="multiply" unicode="&#xd7;" horiz-adv-x="547" 
d="M87 124l-24 29l194 164l-131 164l34 29l131 -164l196 163l24 -29l-194 -163l131 -164l-34 -29l-132 163z" />
    <glyph glyph-name="divide" unicode="&#xf7;" horiz-adv-x="479" 
d="M249 442l19 102h54l-20 -102h-53zM75 290l8 42h341l-8 -42h-341zM177 71l20 101h53l-20 -101h-53z" />
    <glyph glyph-name="equal" unicode="=" horiz-adv-x="651" 
d="M166 403l8 42h381l-9 -42h-380zM129 218l8 43h381l-8 -43h-381z" />
    <glyph glyph-name="notequal" unicode="&#x2260;" horiz-adv-x="591" 
d="M36 0l161 218h-108l8 43h133l105 142h-211l9 42h236l187 252h37l-186 -252h129l-9 -42h-153l-106 -142h231l-8 -43h-256l-162 -218h-37z" />
    <glyph glyph-name="greater" unicode="&#x3e;" horiz-adv-x="629" 
d="M56 34l-19 37l467 237l-369 234l25 33l422 -270z" />
    <glyph glyph-name="less" unicode="&#x3c;" horiz-adv-x="629" 
d="M492 35l-422 270l526 271l19 -37l-467 -238l369 -233z" />
    <glyph glyph-name="greaterequal" unicode="&#x2265;" horiz-adv-x="658" 
d="M95 126l-13 33l461 237l-368 237l24 34l422 -271zM21 -39l8 39h483l-8 -39h-483z" />
    <glyph glyph-name="lessequal" unicode="&#x2264;" horiz-adv-x="657" 
d="M516 126l-422 270l526 271l13 -34l-461 -237l369 -237zM42 -39l8 39h483l-8 -39h-483z" />
    <glyph glyph-name="plusminus" unicode="&#xb1;" horiz-adv-x="664" 
d="M282 93l47 236h-238l8 40h238l44 235h40l-46 -235h238l-8 -40h-238l-45 -236h-40zM20 -39l8 39h505l-7 -39h-506z" />
    <glyph glyph-name="approxequal" unicode="&#x2248;" horiz-adv-x="621" 
d="M419 354c-101 0 -73 126 -151 126c-45 0 -81 -42 -93 -104h-38c16 87 68 139 133 139c105 0 78 -126 152 -126c44 0 83 47 98 115h38c-18 -90 -71 -150 -139 -150zM379 142c-102 0 -74 126 -151 126c-46 0 -82 -41 -95 -104h-37c17 86 68 140 133 140
c105 0 78 -127 151 -127c46 0 85 48 98 116h38c-18 -93 -71 -151 -137 -151z" />
    <glyph glyph-name="asciitilde" unicode="~" horiz-adv-x="620" 
d="M389 190c-102 0 -74 126 -153 126c-44 0 -80 -42 -92 -105h-39c16 85 68 140 134 140c105 0 78 -126 152 -126c44 0 83 48 97 115h38c-17 -91 -71 -150 -137 -150z" />
    <glyph glyph-name="logicalnot" unicode="&#xac;" horiz-adv-x="653" 
d="M451 143l40 205h-392l8 45h439l-48 -250h-47z" />
    <glyph glyph-name="asciicircum" unicode="^" horiz-adv-x="556" 
d="M63 230l306 487l119 -487h-52l-84 389l-235 -389h-54z" />
    <glyph glyph-name="infinity" unicode="&#x221e;" horiz-adv-x="1018" 
d="M272 176c-95 0 -157 63 -157 148c0 117 103 218 223 218c87 0 154 -64 195 -148c84 88 172 148 258 148c94 0 156 -63 156 -148c0 -119 -104 -218 -223 -218c-86 0 -153 64 -202 148c-76 -87 -166 -148 -250 -148zM281 217c65 0 144 47 224 146c-40 93 -101 138 -164 138
c-97 0 -181 -81 -181 -174c0 -64 48 -110 121 -110zM722 217c97 0 181 84 181 174c0 64 -49 110 -121 110c-75 0 -157 -60 -232 -145c42 -81 99 -139 172 -139z" />
    <glyph glyph-name="integral" unicode="&#x222b;" horiz-adv-x="509" 
d="M-39 -236l6 42c122 0 173 48 193 151l117 602c17 85 88 147 164 147c36 0 71 -14 98 -40l-31 -31c-22 20 -47 29 -71 29c-53 0 -105 -45 -118 -109l-117 -603c-24 -123 -101 -188 -241 -188z" />
    <glyph glyph-name="uni2126" unicode="&#x2126;" horiz-adv-x="812" 
d="M30 0l8 41h209l5 26c-74 45 -119 134 -119 235c0 194 157 361 353 361c151 0 238 -96 238 -234c0 -151 -101 -311 -232 -364l-6 -24h207l-8 -41h-261l15 78c143 47 243 204 243 349c0 117 -74 194 -201 194c-178 0 -305 -153 -305 -328c0 -99 47 -175 129 -217l-14 -76
h-261z" />
    <glyph glyph-name="uni2206" unicode="&#x2206;" horiz-adv-x="680" 
d="M12 0l408 697h16l136 -697h-560zM83 43h437l-108 568z" />
    <glyph glyph-name="product" unicode="&#x220f;" horiz-adv-x="659" 
d="M96 0l128 654h-56l8 43h483l-8 -43h-56l-127 -654h-43l128 654h-287l-127 -654h-43z" />
    <glyph glyph-name="summation" unicode="&#x2211;" horiz-adv-x="654" 
d="M671 697l-10 -47h-444l225 -302l-341 -301h443l-9 -47h-511l7 41l344 307l-224 308l9 41h511z" />
    <glyph glyph-name="radical" unicode="&#x221a;" horiz-adv-x="634" 
d="M205 -51l-67 329h-73l9 42h102l51 -262l388 639h48z" />
    <glyph glyph-name="uni00B5" unicode="&#xb5;" horiz-adv-x="627" 
d="M55 -175l129 668h49l-59 -304c-3 -14 -5 -31 -5 -47c0 -66 35 -103 105 -103c88 0 158 58 178 158l58 296h48l-96 -493h-48l18 90c-40 -64 -107 -97 -174 -97c-62 0 -102 25 -114 74l-49 -242h-40z" />
    <glyph glyph-name="partialdiff" unicode="&#x2202;" horiz-adv-x="674" 
d="M247 -6c-111 0 -175 68 -175 170c0 179 154 341 331 341c92 0 141 -67 142 -156c13 41 24 111 24 156c0 106 -48 160 -143 160c-71 0 -143 -33 -184 -105l-36 15c48 82 129 128 227 128c123 0 181 -77 181 -213c0 -249 -141 -496 -367 -496zM253 38
c150 0 281 151 281 288c0 71 -34 138 -129 138c-164 0 -287 -149 -287 -297c0 -81 53 -129 135 -129z" />
    <glyph glyph-name="percent" unicode="%" horiz-adv-x="774" 
d="M235 392c-77 0 -107 55 -107 117c0 100 66 194 160 194c67 0 106 -48 106 -118c0 -96 -67 -193 -159 -193zM126 0l519 697h45l-519 -697h-45zM239 427c69 0 120 77 120 152c0 49 -25 89 -77 89c-69 0 -119 -78 -119 -152c0 -46 21 -89 76 -89zM527 -7
c-78 0 -108 55 -108 117c0 101 66 195 160 195c67 0 107 -49 107 -119c0 -99 -69 -193 -159 -193zM531 28c68 0 119 77 119 152c0 49 -25 90 -77 90c-69 0 -118 -78 -118 -154c0 -46 21 -88 76 -88z" />
    <glyph glyph-name="uni2031" unicode="&#x2031;" horiz-adv-x="1403" 
d="M235 392c-77 0 -107 55 -107 117c0 100 66 194 160 194c67 0 106 -48 106 -118c0 -96 -67 -193 -159 -193zM128 0l519 697h38l-519 -697h-38zM239 427c69 0 120 77 120 152c0 49 -25 89 -77 89c-69 0 -119 -78 -119 -152c0 -46 21 -89 76 -89zM527 -7
c-78 0 -108 55 -108 117c0 101 66 195 160 195c67 0 107 -49 107 -119c0 -99 -69 -193 -159 -193zM841 -7c-77 0 -107 55 -107 117c0 101 66 195 159 195c67 0 108 -49 108 -119c0 -100 -70 -193 -160 -193zM1155 -7c-77 0 -107 55 -107 117c0 101 66 195 160 195
c67 0 107 -49 107 -120c0 -98 -71 -192 -160 -192zM531 28c68 0 119 77 119 152c0 49 -25 90 -77 90c-69 0 -118 -78 -118 -154c0 -46 21 -88 76 -88zM845 28c68 0 120 77 120 152c0 49 -25 90 -77 90c-70 0 -118 -78 -118 -154c0 -45 20 -88 75 -88zM1160 28
c68 0 119 77 119 152c0 49 -24 90 -76 90c-70 0 -119 -78 -119 -154c0 -46 21 -88 76 -88z" />
    <glyph glyph-name="perthousand" unicode="&#x2030;" horiz-adv-x="1088" 
d="M235 392c-77 0 -107 55 -107 117c0 100 66 194 160 194c67 0 106 -48 106 -118c0 -96 -67 -193 -159 -193zM128 0l519 697h38l-520 -697h-37zM239 427c69 0 120 77 120 152c0 49 -25 89 -77 89c-69 0 -119 -78 -119 -152c0 -46 21 -89 76 -89zM527 -7
c-78 0 -108 55 -108 117c0 101 66 195 160 195c67 0 107 -49 107 -119c0 -99 -69 -193 -159 -193zM841 -7c-77 0 -107 55 -107 117c0 101 66 195 159 195c67 0 108 -49 108 -119c0 -100 -70 -193 -160 -193zM531 28c68 0 119 77 119 152c0 49 -25 90 -77 90
c-69 0 -118 -78 -118 -154c0 -46 21 -88 76 -88zM845 28c68 0 120 77 120 152c0 49 -25 90 -77 90c-70 0 -118 -78 -118 -154c0 -45 20 -88 75 -88z" />
    <glyph glyph-name="notequal.001" horiz-adv-x="579" 
d="M30 0l161 218h-98l8 43h123l105 142h-200l9 42h225l187 252h37l-186 -252h118l-9 -42h-142l-106 -142h221l-9 -43h-245l-162 -218h-37z" />
    <glyph glyph-name="divide.ss03" horiz-adv-x="479" 
d="M276 447c-26 0 -44 21 -38 48c5 25 29 46 54 46c28 0 44 -21 39 -48c-5 -25 -29 -46 -55 -46zM74 290l8 42h340l-8 -42h-340zM204 73c-27 0 -44 21 -39 49c5 25 29 45 55 45c27 0 44 -20 38 -47c-5 -26 -29 -47 -54 -47z" />
    <glyph glyph-name="arrowright" unicode="&#x2192;" horiz-adv-x="1066" 
d="M595 573l423 -263l-514 -264l-11 39l410 207l-894 -1l7 39h898l-342 212z" />
    <glyph glyph-name="arrowleft" unicode="&#x2190;" horiz-adv-x="1065" 
d="M1081 330l-7 -39h-897l341 -213l-23 -31l-424 263l515 264l11 -39l-408 -206z" />
    <glyph glyph-name="lozenge" unicode="&#x25ca;" horiz-adv-x="577" 
d="M203 0l-117 348l251 349h77l117 -349l-252 -348h-76zM237 29h16l228 319l-102 320h-16l-227 -320z" />
    <glyph glyph-name="uniF8FF" unicode="&#xf8ff;" horiz-adv-x="944" 
d="M492 -30c-211 0 -382 170 -382 382c0 211 171 381 382 381s382 -170 382 -381c0 -212 -171 -382 -382 -382zM492 5c192 0 347 155 347 347c0 191 -155 346 -347 346s-346 -155 -346 -346c0 -192 154 -347 346 -347zM293 202c-9 0 -17 7 -17 17v265c0 10 8 18 17 18
c10 0 18 -8 18 -18v-265c0 -10 -8 -17 -18 -17zM492 202c-10 0 -17 7 -17 17v265c0 10 7 18 17 18s17 -8 17 -18v-265c0 -10 -7 -17 -17 -17zM690 202c-4 0 -8 1 -11 5l-133 132c-3 4 -4 8 -4 13c0 6 1 9 4 12l134 132c2 4 6 6 10 6c9 0 18 -9 18 -18c0 -4 -1 -8 -5 -12
l-120 -120l120 -121c4 -4 5 -9 5 -12c0 -9 -9 -17 -18 -17zM360 334c-10 0 -17 7 -17 18c0 10 7 17 17 17h66c9 0 18 -7 18 -17c0 -11 -9 -18 -18 -18h-66z" />
    <glyph glyph-name="at" unicode="@" horiz-adv-x="1049" 
d="M442 -175c-211 0 -366 124 -366 340c0 290 245 544 543 544c223 0 363 -141 363 -346c0 -193 -118 -394 -290 -394c-60 0 -94 31 -94 87c0 26 15 68 29 100c-55 -72 -129 -128 -215 -128c-82 0 -124 50 -124 128c0 163 153 360 310 360c79 0 120 -49 114 -124l39 99
l42 -4c-75 -179 -155 -351 -155 -419c0 -37 20 -58 61 -58c146 0 244 186 244 354c0 182 -126 306 -327 306c-276 0 -501 -238 -501 -502c0 -196 141 -302 330 -302c51 0 95 8 142 24l9 -40c-53 -18 -102 -25 -154 -25zM424 69c140 0 266 177 266 311c0 60 -30 95 -92 95
c-141 0 -266 -175 -266 -310c0 -60 31 -96 92 -96z" />
    <glyph glyph-name="ampersand" unicode="&#x26;" horiz-adv-x="696" 
d="M618 331c-24 -88 -65 -162 -118 -219l77 -116l-38 -26l-73 110c-65 -56 -145 -87 -233 -87c-109 0 -180 50 -180 138c0 112 90 176 190 225c10 5 20 9 30 14c-20 31 -65 94 -65 163c0 96 91 170 194 170c85 0 152 -55 152 -139c0 -107 -104 -162 -212 -212l133 -202
c43 50 76 115 96 189zM255 536c0 -59 42 -119 60 -148c95 42 194 89 194 175c0 62 -47 100 -108 100c-82 0 -146 -62 -146 -127zM235 36c80 0 150 29 207 80l-143 216c-12 -5 -24 -10 -35 -16c-83 -40 -163 -93 -163 -183c0 -63 51 -97 134 -97z" />
    <glyph glyph-name="paragraph" unicode="&#xb6;" horiz-adv-x="610" 
d="M221 -121l83 428c-103 0 -189 59 -189 161c0 133 126 229 263 229h38l-159 -818h-36zM366 -121l159 818h36l-159 -818h-36z" />
    <glyph glyph-name="section" unicode="&#xa7;" horiz-adv-x="610" 
d="M222 -185c-86 0 -144 34 -174 111l46 23c23 -61 65 -88 133 -88c90 0 169 70 169 151c0 64 -66 91 -137 121c-82 33 -166 69 -166 164c0 61 32 123 79 166c-3 10 -5 24 -5 36c0 116 106 205 225 205c85 0 145 -34 174 -111l-45 -24c-24 62 -66 89 -134 89
c-89 0 -168 -71 -168 -151c0 -65 67 -92 138 -121c78 -33 165 -68 165 -165c0 -61 -31 -122 -80 -166c3 -9 5 -21 5 -36c0 -116 -106 -204 -225 -204zM414 94c34 31 56 78 56 120c0 74 -72 103 -146 134c-53 22 -100 41 -124 77c-35 -32 -56 -81 -56 -121
c0 -73 72 -102 147 -133c51 -21 99 -41 123 -77z" />
    <glyph glyph-name="copyright" unicode="&#xa9;" horiz-adv-x="892" 
d="M466 -8c-197 0 -357 159 -357 356s160 357 357 357s357 -160 357 -357s-160 -356 -357 -356zM466 25c178 0 323 146 323 323c0 178 -145 324 -323 324c-180 0 -324 -145 -324 -324c0 -178 144 -323 324 -323zM476 111c-125 0 -202 103 -202 236c0 121 67 238 201 238
c82 0 148 -43 181 -123l-40 -15c-25 62 -77 100 -141 100c-106 0 -158 -96 -158 -200c0 -103 51 -197 159 -197c66 0 117 38 137 99l38 -14c-27 -79 -92 -124 -175 -124z" />
    <glyph glyph-name="registered" unicode="&#xae;" horiz-adv-x="892" 
d="M466 -8c-197 0 -357 159 -357 356s160 357 357 357s357 -160 357 -357s-160 -356 -357 -356zM466 25c178 0 323 146 323 323c0 178 -145 324 -323 324c-180 0 -324 -145 -324 -324c0 -178 144 -323 324 -323zM357 130v437h117c89 0 144 -47 144 -121
c0 -58 -33 -98 -92 -112l119 -204h-39l-115 200c-9 -1 -19 -2 -29 -2h-70v-198h-35zM392 358h84c70 0 108 32 108 88c0 57 -41 89 -110 89h-82v-177z" />
    <glyph glyph-name="trademark" unicode="&#x2122;" horiz-adv-x="718" 
d="M196 432l46 234h-78l6 31h190l-7 -31h-77l-46 -234h-34zM368 432l52 265h53l35 -193l110 193h53l-52 -265h-33l45 228l-121 -205h-22l-42 208l-45 -231h-33z" />
    <glyph glyph-name="degree" unicode="&#xb0;" horiz-adv-x="485" 
d="M279 421c-69 0 -119 51 -119 118c0 87 83 165 169 165c68 0 118 -51 118 -117c0 -89 -84 -166 -168 -166zM284 458c62 0 125 56 125 123c0 48 -35 86 -85 86c-64 0 -126 -58 -126 -123c0 -49 35 -86 86 -86z" />
    <glyph glyph-name="bar" unicode="|" horiz-adv-x="312" 
d="M40 -253l196 1010h38l-196 -1010h-38z" />
    <glyph glyph-name="brokenbar" unicode="&#xa6;" horiz-adv-x="314" 
d="M158 361l71 366h42l-71 -366h-42zM59 -152l69 359h42l-69 -359h-42z" />
    <glyph glyph-name="dagger" unicode="&#x2020;" horiz-adv-x="415" 
d="M117 -101l107 550h-127l9 45h127l40 203h45l-40 -203h128l-9 -45h-127l-108 -550h-45z" />
    <glyph glyph-name="daggerdbl" unicode="&#x2021;" horiz-adv-x="445" 
d="M132 -101l40 203h-127l8 45h127l60 302h-127l8 45h127l40 203h45l-39 -203h127l-9 -45h-127l-59 -302h127l-9 -45h-127l-40 -203h-45z" />
    <glyph glyph-name="uni2116" unicode="&#x2116;" horiz-adv-x="1202" 
d="M643 697h49l-136 -697h-56l-241 619l-121 -619h-50l136 697h55l244 -621zM981 583c100 0 165 -72 165 -170c0 -133 -110 -260 -244 -260c-101 0 -163 72 -163 171c0 134 108 259 242 259zM905 189c114 0 199 116 199 227c0 75 -46 131 -125 131
c-115 0 -199 -114 -199 -226c0 -76 45 -132 125 -132zM684 0l8 39h357l-8 -39h-357z" />
    <glyph glyph-name="uni02F6" unicode="&#x2f6;" horiz-adv-x="539" 
d="M103 348l142 145h54l-154 -145h-42zM313 348l138 145h54l-151 -145h-41z" />
    <glyph glyph-name="uni02F5" unicode="&#x2f5;" horiz-adv-x="537" 
d="M225 348l-95 145h52l82 -145h-39zM434 348l-98 145h53l84 -145h-39z" />
    <glyph glyph-name="uni0308" unicode="&#x308;" 
d="M-236 599l19 98h43l-20 -98h-42zM-61 599l19 98h42l-19 -98h-42z" />
    <glyph glyph-name="uni0307" unicode="&#x307;" 
d="M-70 599l19 98h51l-19 -98h-51z" />
    <glyph glyph-name="gravecomb" unicode="&#x300;" 
d="M-12 557l-148 140h55l134 -140h-41z" />
    <glyph glyph-name="acutecomb" unicode="&#x301;" 
d="M-138 557l133 140h55l-148 -140h-40z" />
    <glyph glyph-name="uni030B" unicode="&#x30b;" 
d="M-301 549l135 148h55l-150 -148h-40zM-139 549l135 148h55l-150 -148h-40z" />
    <glyph glyph-name="uni030C.alt" 
d="M-115 495l98 202h53l-118 -202h-33z" />
    <glyph glyph-name="uni0302" unicode="&#x302;" 
d="M-266 551l178 153l115 -153h-39l-82 107l-124 -107h-48z" />
    <glyph glyph-name="uni030C" unicode="&#x30c;" 
d="M-120 545l-117 152h40l81 -107l125 107h47z" />
    <glyph glyph-name="uni0306" unicode="&#x306;" 
d="M-149 567c-93 0 -141 48 -125 130h36c-12 -65 22 -97 94 -97c79 0 118 35 130 97h37c-17 -86 -75 -130 -172 -130z" />
    <glyph glyph-name="uni030A" unicode="&#x30a;" 
d="M-96 544c-52 0 -85 42 -75 94c10 49 56 87 106 87c49 0 84 -43 74 -95c-10 -50 -58 -86 -105 -86zM-92 575c32 0 64 26 70 59c7 33 -15 59 -47 59c-33 0 -64 -25 -71 -57c-6 -34 13 -61 48 -61z" />
    <glyph glyph-name="tildecomb" unicode="&#x303;" 
d="M-88 576c-85 0 -64 93 -123 93c-37 0 -60 -35 -69 -83h-35c14 75 55 115 108 115c79 0 60 -92 120 -92c32 0 60 36 69 88h35c-14 -75 -55 -121 -105 -121z" />
    <glyph glyph-name="uni0304" unicode="&#x304;" 
d="M-282 612l6 31h269l-7 -31h-268z" />
    <glyph glyph-name="hookabovecomb" unicode="&#x309;" 
d="M-117 532l-5 31c51 10 101 21 101 72c0 38 -41 53 -88 53h-16l6 30h13c68 0 118 -29 118 -81c0 -73 -60 -92 -129 -105z" />
    <glyph glyph-name="uni030F" unicode="&#x30f;" 
d="M-131 697l135 -148h-66l-142 148h73z" />
    <glyph glyph-name="uni0312" unicode="&#x312;" 
d="M-135 556l143 144h35l-124 -144h-54z" />
    <glyph glyph-name="uni031B" unicode="&#x31b;" 
d="M-154 498l5 35c66 0 101 44 115 111l11 53h39l-11 -53c-18 -92 -67 -146 -159 -146z" />
    <glyph glyph-name="dotbelowcomb" unicode="&#x323;" 
d="M-221 -173l19 97h52l-20 -97h-51z" />
    <glyph glyph-name="uni0326" unicode="&#x326;" 
d="M-279 -219l128 162h54l-147 -162h-35z" />
    <glyph glyph-name="uni0327" unicode="&#x327;" 
d="M-228 -253c-45 0 -81 21 -96 52l22 22c9 -27 37 -44 71 -44c40 0 67 24 67 61c0 52 -57 69 -118 69l69 93h34l-53 -71c59 -7 101 -35 101 -88c0 -59 -42 -94 -97 -94z" />
    <glyph glyph-name="uni0328" unicode="&#x328;" 
d="M-217 -211c-45 0 -75 26 -70 73c7 58 62 113 118 141l41 -4c-77 -38 -117 -86 -123 -128c-4 -30 14 -46 42 -46c18 0 43 9 64 26l21 -24c-29 -25 -62 -38 -93 -38z" />
    <glyph glyph-name="uni0335" unicode="&#x335;" 
d="M-330 272l7 34h250l-7 -34h-250z" />
    <glyph glyph-name="uni0336" unicode="&#x336;" 
d="M-708 266l6 31h628l-7 -31h-627z" />
    <glyph glyph-name="uni0337" unicode="&#x337;" 
d="M-244 283l9 52l246 168l-9 -50z" />
    <glyph glyph-name="uni0338" unicode="&#x338;" 
d="M-473 0l490 596h40l-490 -596h-40z" />
    <glyph glyph-name="dieresis" unicode="&#xa8;" horiz-adv-x="393" 
d="M157 599l19 98h43l-20 -98h-42zM332 599l19 98h42l-19 -98h-42z" />
    <glyph glyph-name="dotaccent" unicode="&#x2d9;" horiz-adv-x="227" 
d="M157 599l19 98h51l-19 -98h-51z" />
    <glyph glyph-name="grave" unicode="`" horiz-adv-x="234" 
d="M216 557l-90 140h52l77 -140h-39z" />
    <glyph glyph-name="acute" unicode="&#xb4;" horiz-adv-x="238" 
d="M100 557l133 140h55l-148 -140h-40z" />
    <glyph glyph-name="hungarumlaut" unicode="&#x2dd;" horiz-adv-x="400" 
d="M99 549l135 148h48l-143 -148h-40zM261 549l135 148h55l-150 -148h-40z" />
    <glyph glyph-name="circumflex" unicode="&#x2c6;" horiz-adv-x="355" 
d="M90 551l177 153l116 -153h-41l-81 107l-125 -107h-46z" />
    <glyph glyph-name="caron" unicode="&#x2c7;" horiz-adv-x="357" 
d="M238 548l-118 149h43l82 -105l123 105h45z" />
    <glyph glyph-name="breve" unicode="&#x2d8;" horiz-adv-x="423" 
d="M274 567c-93 0 -141 48 -125 130h36c-12 -65 22 -97 94 -97c79 0 118 35 130 97h37c-17 -86 -75 -130 -172 -130z" />
    <glyph glyph-name="ring" unicode="&#x2da;" horiz-adv-x="312" 
d="M216 544c-50 0 -81 36 -75 86c5 53 52 95 106 95c47 0 80 -37 74 -87c-5 -53 -52 -94 -105 -94zM221 572c36 0 67 30 72 64c5 35 -18 60 -50 60c-36 0 -69 -27 -74 -64s18 -60 52 -60z" />
    <glyph glyph-name="tilde" unicode="&#x2dc;" horiz-adv-x="452" 
d="M364 576c-84 0 -61 93 -123 93c-37 0 -64 -35 -74 -83h-30c14 75 55 115 108 115c79 0 60 -92 120 -92c32 0 62 36 73 88h31c-14 -75 -55 -121 -105 -121z" />
    <glyph glyph-name="macron" unicode="&#xaf;" horiz-adv-x="438" 
d="M156 612l6 31h269l-7 -31h-268z" />
    <glyph glyph-name="cedilla" unicode="&#xb8;" horiz-adv-x="289" 
d="M61 -253c-45 0 -81 21 -96 52l22 22c9 -27 37 -44 71 -44c40 0 67 24 67 61c0 52 -57 69 -118 69l69 93h34l-53 -71c59 -7 101 -35 101 -88c0 -59 -42 -94 -97 -94z" />
    <glyph glyph-name="ogonek" unicode="&#x2db;" horiz-adv-x="273" 
d="M56 -211c-45 0 -75 26 -70 73c7 58 62 113 118 141l41 -4c-77 -38 -117 -86 -123 -128c-4 -30 14 -46 42 -46c18 0 43 9 64 26l21 -24c-29 -25 -62 -38 -93 -38z" />
    <glyph glyph-name="uni030A.case" 
d="M-95 544c-46 0 -77 31 -77 76c0 58 50 105 107 105c44 0 76 -31 76 -77c0 -57 -51 -104 -106 -104zM-91 572c38 0 73 33 73 73c0 31 -21 51 -51 51c-40 0 -75 -33 -75 -73c0 -30 21 -51 53 -51z" />
    <glyph glyph-name="uni0337.case" 
d="M-334 199l8 52l339 232l-9 -52z" />
    <glyph glyph-name="uni0338.case" 
d="M-530 0l556 697h52l-556 -697h-52z" />
    <glyph glyph-name="uni0308.ss03" 
d="M-246 609c-25 0 -43 21 -37 49c5 25 29 45 54 45c27 0 44 -20 39 -47c-5 -26 -29 -47 -56 -47zM-50 609c-25 0 -43 21 -37 49c5 25 29 45 54 45c27 0 44 -20 39 -47c-5 -26 -29 -47 -56 -47z" />
    <glyph glyph-name="uni0307.ss03" 
d="M-50 609c-25 0 -43 21 -37 49c5 25 29 45 54 45c27 0 44 -20 39 -47c-5 -26 -29 -47 -56 -47z" />
    <glyph glyph-name="dotbelowcomb.ss03" 
d="M-202 -176c-26 0 -44 21 -38 49c5 25 29 45 54 45c28 0 44 -20 39 -47c-5 -26 -29 -47 -55 -47z" />
    <glyph glyph-name="dieresis.ss03" horiz-adv-x="437" 
d="M191 609c-25 0 -43 21 -37 49c5 25 29 45 54 45c27 0 44 -20 39 -47c-5 -26 -29 -47 -56 -47zM387 609c-25 0 -43 21 -37 49c5 25 29 45 54 45c27 0 44 -20 39 -47c-5 -26 -29 -47 -56 -47z" />
    <glyph glyph-name="dotaccent.ss03" horiz-adv-x="241" 
d="M191 609c-25 0 -43 21 -37 49c5 25 29 45 54 45c27 0 44 -20 39 -47c-5 -26 -29 -47 -56 -47z" />
    <glyph glyph-name="uni03060301" 
d="M-114 761l134 140h55l-148 -140h-41zM-139 567c-94 0 -142 48 -126 130h36c-12 -65 22 -97 95 -97c78 0 117 35 130 97h36c-16 -86 -75 -130 -171 -130z" />
    <glyph glyph-name="uni03060300" 
d="M-93 761l-148 140h55l134 -140h-41zM-118 567c-94 0 -142 48 -126 130h36c-12 -65 22 -97 95 -97c78 0 117 35 130 97h36c-16 -86 -75 -130 -171 -130z" />
    <glyph glyph-name="uni03060309" 
d="M-97 736l-5 31c51 10 101 21 101 72c0 38 -41 53 -88 53h-16l6 30h13c68 0 118 -29 118 -81c0 -73 -60 -92 -129 -105zM-134 567c-93 0 -141 48 -125 130h36c-13 -65 21 -97 94 -97c79 0 118 35 130 97h37c-17 -86 -76 -130 -172 -130z" />
    <glyph glyph-name="uni03060303" 
d="M-38 780c-85 0 -64 93 -123 93c-38 0 -60 -35 -70 -83h-34c14 75 55 115 108 115c78 0 59 -92 120 -92c31 0 60 36 69 88h34c-14 -75 -54 -121 -104 -121zM-161 567c-94 0 -142 48 -126 130h36c-12 -65 22 -97 95 -97c78 0 117 35 130 97h36c-16 -86 -75 -130 -171 -130z
" />
    <glyph glyph-name="uni03020301" 
d="M-101 756l134 140h55l-148 -140h-41zM-270 551l177 153l116 -153h-40l-82 107l-124 -107h-47z" />
    <glyph glyph-name="uni03020300" 
d="M-79 756l-148 140h55l134 -140h-41zM-248 551l177 153l116 -153h-40l-82 107l-124 -107h-47z" />
    <glyph glyph-name="uni03020309" 
d="M-85 732l-5 30c50 10 100 21 100 72c0 39 -41 53 -87 53h-16l6 30h13c68 0 118 -29 118 -81c0 -73 -60 -92 -129 -104zM-266 551l177 153l116 -153h-40l-82 107l-124 -107h-47z" />
    <glyph glyph-name="uni03020303" 
d="M-23 775c-85 0 -64 93 -123 93c-38 0 -60 -35 -70 -82h-34c14 75 55 115 108 115c78 0 59 -93 120 -93c31 0 60 36 69 88h34c-14 -75 -54 -121 -104 -121zM-290 551l177 153l116 -153h-40l-82 107l-124 -107h-47z" />
    </font>
</defs>
</svg>
